<svg xmlns="http://www.w3.org/2000/svg" viewBox="0 0 750 500"><g id="freepik--background-simple--inject-3"><path d="M687.83,133.59C647.34,74.63,580.21,31.86,510,21.94l-1.57-.22c-103.69-13.93-203,96.6-233.73,113.13S87.49,161,51.47,214.92-4.77,357.64,55,423.78s219.68,7.84,288.22,18.28c51.89,7.91,105.5,14.26,158.52,16.59,47,2.07,101.59,5.84,142.06-22.72,35.57-25.1,41.78-62.27,57-99.87,9.77-24.17,24.53-46.36,25.84-72.87C728.88,217,713.93,171.61,687.83,133.59Z" style="fill:#FFC100"></path><path d="M687.83,133.59C647.34,74.63,580.21,31.86,510,21.94l-1.57-.22c-103.69-13.93-203,96.6-233.73,113.13S87.49,161,51.47,214.92-4.77,357.64,55,423.78s219.68,7.84,288.22,18.28c51.89,7.91,105.5,14.26,158.52,16.59,47,2.07,101.59,5.84,142.06-22.72,35.57-25.1,41.78-62.27,57-99.87,9.77-24.17,24.53-46.36,25.84-72.87C728.88,217,713.93,171.61,687.83,133.59Z" style="fill:#fff;opacity:0.8"></path></g><g id="freepik--Typewriter--inject-3"><g style="opacity:0.30000000000000004"><path d="M423.58,112.37h-332a642.2,642.2,0,0,0-6.37,159l3,35.34H427l3-65.62a642.47,642.47,0,0,0-3.27-100.68Z" style="fill:#fff"></path><path d="M427,307.25H88.22a.49.49,0,0,1-.49-.46l-3-35.34a643.17,643.17,0,0,1,6.38-159.16.49.49,0,0,1,.49-.42h332a.5.5,0,0,1,.5.44l3.13,28.09a644.68,644.68,0,0,1,3.28,100.76l-3,65.61A.5.5,0,0,1,427,307.25Zm-338.29-1H426.49l3-65.14a643.89,643.89,0,0,0-3.27-100.6l-3.08-27.64H92a642.19,642.19,0,0,0-6.3,158.5Z"></path><rect x="53.85" y="240.22" width="382.26" height="5.23"></rect><path d="M436.11,246H53.85a.5.5,0,0,1-.5-.5v-5.24a.5.5,0,0,1,.5-.5H436.11a.51.51,0,0,1,.5.5v5.24A.51.51,0,0,1,436.11,246ZM54.35,245H435.61v-4.24H54.35Z"></path><path d="M61.07,242.06h0a4.81,4.81,0,0,1-1.61,6.37L33.51,265.16A9.34,9.34,0,0,0,29.24,273v65.59s8.5,9,7.6,13-.89,9.85-2.23,7.16-9.4-18.34-9.4-21V267.93a9.34,9.34,0,0,1,3.52-7.29l25.12-20A4.81,4.81,0,0,1,61.07,242.06Z" style="fill:#fff"></path><path d="M35.2,359.91c-.56,0-.89-.67-1-1l-.54-1.07c-3.82-7.57-8.91-17.9-8.91-20.18V267.93a9.79,9.79,0,0,1,3.7-7.68l25.12-20a5.33,5.33,0,0,1,8,1.6h0a5.33,5.33,0,0,1-1.78,7L33.78,265.58a8.8,8.8,0,0,0-4,7.42v65.39c1.15,1.23,8.48,9.29,7.59,13.28-.27,1.25-.47,2.69-.64,4-.39,2.94-.58,4.13-1.37,4.27ZM56.85,240.06a4.29,4.29,0,0,0-2.69.95L29,261a8.8,8.8,0,0,0-3.33,6.9V337.7c0,1.53,3,8.17,8.81,19.73l.54,1.07c0,.07.07.13.1.19a24.68,24.68,0,0,0,.54-3.19c.18-1.29.37-2.76.66-4,.68-3.09-5.17-10.09-7.48-12.52a.52.52,0,0,1-.14-.35V273a9.78,9.78,0,0,1,4.5-8.26L59.19,248a4.33,4.33,0,0,0,1.44-5.71h0a4.28,4.28,0,0,0-2.93-2.15A4.17,4.17,0,0,0,56.85,240.06Z"></path><rect x="433.69" y="240.22" width="4.63" height="30.11"></rect><path d="M438.32,270.83h-4.63a.5.5,0,0,1-.5-.5V240.22a.5.5,0,0,1,.5-.5h4.63a.5.5,0,0,1,.5.5v30.11A.5.5,0,0,1,438.32,270.83Zm-4.13-1h3.63V240.72h-3.63Z"></path><rect x="53.37" y="257.94" width="17.32" height="57.95"></rect><path d="M70.69,316.38H53.37a.5.5,0,0,1-.5-.5V257.94a.5.5,0,0,1,.5-.5H70.69a.5.5,0,0,1,.5.5v57.94A.5.5,0,0,1,70.69,316.38Zm-16.82-1H70.19V258.44H53.87Z"></path><rect x="440.11" y="257.94" width="17.32" height="57.95"></rect><path d="M457.43,316.38H440.11a.5.5,0,0,1-.5-.5V257.94a.5.5,0,0,1,.5-.5h17.32a.5.5,0,0,1,.5.5v57.94A.5.5,0,0,1,457.43,316.38Zm-16.82-1h16.32V258.44H440.61Z"></path><polygon points="254.79 264.77 71.39 264.77 71.39 309.05 254.79 309.05 438.2 309.05 438.2 264.77 254.79 264.77"></polygon><path d="M438.2,309.55H71.39a.5.5,0,0,1-.5-.5V264.77a.5.5,0,0,1,.5-.5H438.2a.5.5,0,0,1,.5.5v44.28A.5.5,0,0,1,438.2,309.55Zm-366.31-1H437.7V265.27H71.89Z"></path><path d="M425,268.55H333a14.74,14.74,0,0,0-12.33,6.67l-15.41,23.57a18.78,18.78,0,0,1-15.71,8.5H222.13a18.78,18.78,0,0,1-15.71-8.5L191,275.22a14.74,14.74,0,0,0-12.33-6.67h-92a14.74,14.74,0,0,0-14.73,14.73v33.94H439.7V283.28A14.73,14.73,0,0,0,425,268.55Z" style="fill:#fff"></path><path d="M439.7,317.72H71.93a.5.5,0,0,1-.5-.5V283.28a15.24,15.24,0,0,1,15.23-15.23h92a15.19,15.19,0,0,1,12.75,6.9l15.41,23.56a18.21,18.21,0,0,0,15.29,8.28H289.5a18.21,18.21,0,0,0,15.29-8.28L320.2,275a15.19,15.19,0,0,1,12.75-6.9h92a15.24,15.24,0,0,1,15.23,15.23v33.94A.5.5,0,0,1,439.7,317.72Zm-367.27-1H439.2V283.28A14.24,14.24,0,0,0,425,269.05H333A14.2,14.2,0,0,0,321,275.49l-15.41,23.57a19.19,19.19,0,0,1-16.13,8.73H222.13A19.19,19.19,0,0,1,206,299.06l-15.41-23.57a14.2,14.2,0,0,0-11.91-6.44h-92a14.24,14.24,0,0,0-14.23,14.23Z"></path><path d="M452.54,372.84a217,217,0,0,1-10.08-45.69l-5.55-5h-362l-5.54,5a217.43,217.43,0,0,1-10.09,45.69c-8.06,23.34-19.66,64.06-19.66,64.06H472.2S460.61,396.18,452.54,372.84Z" style="fill:#fff"></path><path d="M472.2,437.4H39.65a.49.49,0,0,1-.4-.2.5.5,0,0,1-.08-.43c.12-.41,11.69-41,19.67-64.09A219.26,219.26,0,0,0,68.9,327.11a.5.5,0,0,1,.16-.33l5.55-5a.5.5,0,0,1,.33-.12h362a.52.52,0,0,1,.34.12l5.54,5a.51.51,0,0,1,.17.33A218.72,218.72,0,0,0,453,372.68c8,23.08,19.56,63.68,19.67,64.09a.45.45,0,0,1-.08.43A.48.48,0,0,1,472.2,437.4Zm-431.89-1H471.54c-1.51-5.27-12.05-41.93-19.47-63.4A219.5,219.5,0,0,1,442,327.39l-5.26-4.7H75.13l-5.26,4.7A219.5,219.5,0,0,1,59.78,373C52.36,394.47,41.82,431.13,40.31,436.4Z"></path><path d="M39.65,436.9H471.71a0,0,0,0,1,0,0v21.54a8.26,8.26,0,0,1-8.26,8.26H47.91a8.26,8.26,0,0,1-8.26-8.26V436.9A0,0,0,0,1,39.65,436.9Z" style="fill:#fff"></path><path d="M463.45,467.2H47.91a8.77,8.77,0,0,1-8.76-8.76V436.9a.5.5,0,0,1,.5-.5H471.71a.51.51,0,0,1,.5.5v21.54A8.77,8.77,0,0,1,463.45,467.2ZM40.15,437.4v21a7.77,7.77,0,0,0,7.76,7.76H463.45a7.77,7.77,0,0,0,7.76-7.76v-21Z"></path><path d="M430.25,358.57a20.63,20.63,0,0,0-19.72-14H99.32a20.63,20.63,0,0,0-19.73,14L56,430.94H453.83Z"></path><path d="M453.83,431.44H56a.48.48,0,0,1-.4-.2.52.52,0,0,1-.07-.45l23.57-72.38A21.06,21.06,0,0,1,99.32,344H410.53a21.06,21.06,0,0,1,20.2,14.38l23.57,72.38a.49.49,0,0,1-.07.45A.48.48,0,0,1,453.83,431.44Zm-397.13-1H453.14l-23.36-71.72A20.08,20.08,0,0,0,410.53,345H99.32a20.08,20.08,0,0,0-19.26,13.69Z"></path><path d="M125,361.61h0a2.09,2.09,0,0,1-2.1-2.09V347.84h4.2v11.68A2.09,2.09,0,0,1,125,361.61Z" style="fill:#fff"></path><path d="M125,362.11a2.6,2.6,0,0,1-2.6-2.59V347.84a.51.51,0,0,1,.5-.5h4.2a.51.51,0,0,1,.5.5v11.68A2.6,2.6,0,0,1,125,362.11Zm-1.6-13.77v11.18a1.6,1.6,0,0,0,3.2,0V348.34Z"></path><path d="M134.26,346.77c0,3.43-4.22,6.21-9.44,6.21s-9.43-2.78-9.43-6.21c0-6.88,4.22-6.21,9.43-6.21S134.26,339.53,134.26,346.77Z" style="fill:#fff"></path><path d="M124.82,353.48c-5.47,0-9.93-3-9.93-6.71,0-2.43.52-4.13,1.6-5.19,1.6-1.59,4.13-1.56,7.06-1.53,1,0,2,0,3,0,2.73,0,5.08-.11,6.6,1.38,1.1,1.07,1.61,2.77,1.61,5.36C134.76,350.47,130.3,353.48,124.82,353.48ZM122.38,341c-2.21,0-4.08.15-5.19,1.25-.88.86-1.3,2.33-1.3,4.48,0,3.15,4,5.71,8.93,5.71s8.94-2.56,8.94-5.71c0-2.27-.43-3.79-1.3-4.65-1.23-1.19-3.39-1.14-5.88-1.09-1,0-2,0-3,0Z"></path><path d="M134.26,344.31c0,3.43-4.22,6.21-9.44,6.21s-9.43-2.78-9.43-6.21,4.22-6.21,9.43-6.21S134.26,340.88,134.26,344.31Z" style="fill:#fff"></path><path d="M124.82,351c-5.47,0-9.93-3-9.93-6.71s4.46-6.71,9.93-6.71,9.94,3,9.94,6.71S130.3,351,124.82,351Zm0-12.42c-4.92,0-8.93,2.57-8.93,5.71s4,5.71,8.93,5.71,8.94-2.56,8.94-5.71S129.75,338.6,124.82,338.6Z"></path><path d="M148.64,361.61h0a2.09,2.09,0,0,1-2.09-2.09V347.84h4.19v11.68A2.09,2.09,0,0,1,148.64,361.61Z" style="fill:#fff"></path><path d="M148.64,362.11a2.59,2.59,0,0,1-2.59-2.59V347.84a.5.5,0,0,1,.5-.5h4.19a.5.5,0,0,1,.5.5v11.68A2.59,2.59,0,0,1,148.64,362.11Zm-1.59-13.77v11.18a1.6,1.6,0,0,0,3.19,0V348.34Z"></path><path d="M157.91,346.77c0,3.43-4.22,6.21-9.43,6.21S139,350.2,139,346.77c0-6.88,4.23-6.21,9.44-6.21S157.91,339.53,157.91,346.77Z" style="fill:#fff"></path><path d="M148.48,353.48c-5.48,0-9.94-3-9.94-6.71,0-2.43.53-4.13,1.6-5.19,1.6-1.59,4.14-1.56,7.07-1.53,1,0,2,0,3,0,2.72,0,5.07-.11,6.6,1.38,1.09,1.07,1.6,2.77,1.6,5.36C158.41,350.47,154,353.48,148.48,353.48ZM146,341c-2.2,0-4.07.15-5.19,1.25-.87.86-1.3,2.33-1.3,4.48,0,3.15,4,5.71,8.94,5.71s8.93-2.56,8.93-5.71c0-2.27-.42-3.79-1.3-4.65-1.23-1.19-3.38-1.14-5.88-1.09-1,0-2,0-3,0Z"></path><path d="M157.91,344.31c0,3.43-4.22,6.21-9.43,6.21s-9.44-2.78-9.44-6.21,4.23-6.21,9.44-6.21S157.91,340.88,157.91,344.31Z" style="fill:#fff"></path><path d="M148.48,351c-5.48,0-9.94-3-9.94-6.71s4.46-6.71,9.94-6.71,9.93,3,9.93,6.71S154,351,148.48,351Zm0-12.42c-4.93,0-8.94,2.57-8.94,5.71s4,5.71,8.94,5.71,8.93-2.56,8.93-5.71S153.41,338.6,148.48,338.6Z"></path><path d="M172.3,361.61h0a2.09,2.09,0,0,1-2.1-2.09V347.84h4.19v11.68A2.08,2.08,0,0,1,172.3,361.61Z" style="fill:#fff"></path><path d="M172.3,362.11a2.6,2.6,0,0,1-2.6-2.59V347.84a.51.51,0,0,1,.5-.5h4.19a.5.5,0,0,1,.5.5v11.68A2.59,2.59,0,0,1,172.3,362.11Zm-1.6-13.77v11.18a1.6,1.6,0,0,0,3.19,0V348.34Z"></path><path d="M181.57,346.77c0,3.43-4.23,6.21-9.44,6.21s-9.43-2.78-9.43-6.21c0-6.88,4.22-6.21,9.43-6.21S181.57,339.53,181.57,346.77Z" style="fill:#fff"></path><path d="M172.13,353.48c-5.48,0-9.93-3-9.93-6.71,0-2.43.52-4.13,1.59-5.19,1.61-1.59,4.14-1.56,7.07-1.53,1,0,2,0,3,0,2.73,0,5.08-.11,6.6,1.38,1.1,1.07,1.61,2.77,1.61,5.36C182.07,350.47,177.61,353.48,172.13,353.48ZM169.69,341c-2.21,0-4.08.15-5.19,1.25-.88.86-1.3,2.33-1.3,4.48,0,3.15,4,5.71,8.93,5.71s8.94-2.56,8.94-5.71c0-2.27-.43-3.79-1.31-4.65-1.22-1.19-3.38-1.14-5.88-1.09-1,0-2,0-3,0Z"></path><path d="M181.57,344.31c0,3.43-4.23,6.21-9.44,6.21s-9.43-2.78-9.43-6.21,4.22-6.21,9.43-6.21S181.57,340.88,181.57,344.31Z" style="fill:#fff"></path><path d="M172.13,351c-5.48,0-9.93-3-9.93-6.71s4.45-6.71,9.93-6.71,9.94,3,9.94,6.71S177.61,351,172.13,351Zm0-12.42c-4.92,0-8.93,2.57-8.93,5.71s4,5.71,8.93,5.71,8.94-2.56,8.94-5.71S177.06,338.6,172.13,338.6Z"></path><path d="M196,361.61h0a2.08,2.08,0,0,1-2.09-2.09V347.84h4.19v11.68A2.09,2.09,0,0,1,196,361.61Z" style="fill:#fff"></path><path d="M196,362.11a2.59,2.59,0,0,1-2.59-2.59V347.84a.5.5,0,0,1,.5-.5h4.19a.51.51,0,0,1,.5.5v11.68A2.6,2.6,0,0,1,196,362.11Zm-1.59-13.77v11.18a1.6,1.6,0,0,0,3.19,0V348.34Z"></path><path d="M205.22,346.77c0,3.43-4.22,6.21-9.43,6.21s-9.44-2.78-9.44-6.21c0-6.88,4.23-6.21,9.44-6.21S205.22,339.53,205.22,346.77Z" style="fill:#fff"></path><path d="M195.79,353.48c-5.48,0-9.94-3-9.94-6.71,0-2.43.52-4.13,1.6-5.19,1.6-1.59,4.13-1.56,7.06-1.53,1,0,2,0,3,0,2.73,0,5.08-.11,6.61,1.38,1.09,1.07,1.6,2.77,1.6,5.36C205.72,350.47,201.26,353.48,195.79,353.48ZM193.34,341c-2.21,0-4.07.15-5.19,1.25-.87.86-1.3,2.33-1.3,4.48,0,3.15,4,5.71,8.94,5.71s8.93-2.56,8.93-5.71c0-2.27-.42-3.79-1.3-4.65-1.23-1.19-3.38-1.14-5.88-1.09-1,0-2,0-3,0Z"></path><path d="M205.22,344.31c0,3.43-4.22,6.21-9.43,6.21s-9.44-2.78-9.44-6.21,4.23-6.21,9.44-6.21S205.22,340.88,205.22,344.31Z" style="fill:#fff"></path><path d="M195.79,351c-5.48,0-9.94-3-9.94-6.71s4.46-6.71,9.94-6.71,9.93,3,9.93,6.71S201.26,351,195.79,351Zm0-12.42c-4.93,0-8.94,2.57-8.94,5.71s4,5.71,8.94,5.71,8.93-2.56,8.93-5.71S200.71,338.6,195.79,338.6Z"></path><path d="M219.61,361.61h0a2.09,2.09,0,0,1-2.1-2.09V347.84h4.19v11.68A2.09,2.09,0,0,1,219.61,361.61Z" style="fill:#fff"></path><path d="M219.61,362.11a2.59,2.59,0,0,1-2.6-2.59V347.84a.5.5,0,0,1,.5-.5h4.19a.5.5,0,0,1,.5.5v11.68A2.59,2.59,0,0,1,219.61,362.11ZM218,348.34v11.18a1.6,1.6,0,0,0,3.19,0V348.34Z"></path><path d="M228.88,346.77c0,3.43-4.23,6.21-9.44,6.21S210,350.2,210,346.77c0-6.88,4.23-6.21,9.44-6.21S228.88,339.53,228.88,346.77Z" style="fill:#fff"></path><path d="M219.44,353.48c-5.48,0-9.94-3-9.94-6.71,0-2.43.53-4.13,1.6-5.19,1.6-1.59,4.14-1.56,7.07-1.53,1,0,2,0,3,0,2.72,0,5.07-.11,6.6,1.38,1.1,1.07,1.61,2.77,1.61,5.36C229.38,350.47,224.92,353.48,219.44,353.48ZM217,341c-2.2,0-4.07.15-5.19,1.25-.87.86-1.3,2.33-1.3,4.48,0,3.15,4,5.71,8.94,5.71s8.94-2.56,8.94-5.71c0-2.27-.43-3.79-1.31-4.65-1.22-1.19-3.38-1.14-5.88-1.09-1,0-2,0-3,0Z"></path><path d="M228.88,344.31c0,3.43-4.23,6.21-9.44,6.21s-9.44-2.78-9.44-6.21,4.23-6.21,9.44-6.21S228.88,340.88,228.88,344.31Z" style="fill:#fff"></path><path d="M219.44,351c-5.48,0-9.94-3-9.94-6.71s4.46-6.71,9.94-6.71,9.94,3,9.94,6.71S224.92,351,219.44,351Zm0-12.42c-4.93,0-8.94,2.57-8.94,5.71s4,5.71,8.94,5.71,8.94-2.56,8.94-5.71S224.37,338.6,219.44,338.6Z"></path><path d="M243.26,361.61h0a2.09,2.09,0,0,1-2.1-2.09V347.84h4.2v11.68A2.09,2.09,0,0,1,243.26,361.61Z" style="fill:#fff"></path><path d="M243.26,362.11a2.6,2.6,0,0,1-2.6-2.59V347.84a.51.51,0,0,1,.5-.5h4.2a.51.51,0,0,1,.5.5v11.68A2.6,2.6,0,0,1,243.26,362.11Zm-1.6-13.77v11.18a1.6,1.6,0,0,0,3.2,0V348.34Z"></path><path d="M252.53,346.77c0,3.43-4.22,6.21-9.44,6.21s-9.43-2.78-9.43-6.21c0-6.88,4.22-6.21,9.43-6.21S252.53,339.53,252.53,346.77Z" style="fill:#fff"></path><path d="M243.09,353.48c-5.47,0-9.93-3-9.93-6.71,0-2.43.52-4.13,1.59-5.19,1.61-1.59,4.14-1.56,7.07-1.53,1,0,2,0,3,0,2.72,0,5.08-.11,6.6,1.38,1.1,1.07,1.61,2.77,1.61,5.36C253,350.47,248.57,353.48,243.09,353.48ZM240.65,341c-2.21,0-4.08.15-5.19,1.25-.88.86-1.3,2.33-1.3,4.48,0,3.15,4,5.71,8.93,5.71s8.94-2.56,8.94-5.71c0-2.27-.43-3.79-1.31-4.65-1.22-1.19-3.38-1.14-5.88-1.09-1,0-2,0-3,0Z"></path><path d="M252.53,344.31c0,3.43-4.22,6.21-9.44,6.21s-9.43-2.78-9.43-6.21,4.22-6.21,9.43-6.21S252.53,340.88,252.53,344.31Z" style="fill:#fff"></path><path d="M243.09,351c-5.47,0-9.93-3-9.93-6.71s4.46-6.71,9.93-6.71,9.94,3,9.94,6.71S248.57,351,243.09,351Zm0-12.42c-4.92,0-8.93,2.57-8.93,5.71s4,5.71,8.93,5.71,8.94-2.56,8.94-5.71S248,338.6,243.09,338.6Z"></path><path d="M266.91,361.61h0a2.09,2.09,0,0,1-2.09-2.09V347.84H269v11.68A2.09,2.09,0,0,1,266.91,361.61Z" style="fill:#fff"></path><path d="M266.91,362.11a2.59,2.59,0,0,1-2.59-2.59V347.84a.5.5,0,0,1,.5-.5H269a.5.5,0,0,1,.5.5v11.68A2.6,2.6,0,0,1,266.91,362.11Zm-1.59-13.77v11.18a1.6,1.6,0,0,0,3.19,0V348.34Z"></path><path d="M276.18,346.77c0,3.43-4.22,6.21-9.43,6.21s-9.44-2.78-9.44-6.21c0-6.88,4.23-6.21,9.44-6.21S276.18,339.53,276.18,346.77Z" style="fill:#fff"></path><path d="M266.75,353.48c-5.48,0-9.94-3-9.94-6.71,0-2.43.52-4.13,1.6-5.19,1.6-1.59,4.13-1.56,7.07-1.53,1,0,2,0,3,0,2.71,0,5.07-.11,6.6,1.38,1.09,1.07,1.6,2.77,1.6,5.36C276.68,350.47,272.23,353.48,266.75,353.48ZM264.3,341c-2.21,0-4.07.15-5.19,1.25-.87.86-1.3,2.33-1.3,4.48,0,3.15,4,5.71,8.94,5.71s8.93-2.56,8.93-5.71c0-2.27-.42-3.79-1.3-4.65-1.23-1.19-3.39-1.14-5.88-1.09-1,0-2,0-3,0Z"></path><path d="M276.18,344.31c0,3.43-4.22,6.21-9.43,6.21s-9.44-2.78-9.44-6.21,4.23-6.21,9.44-6.21S276.18,340.88,276.18,344.31Z" style="fill:#fff"></path><path d="M266.75,351c-5.48,0-9.94-3-9.94-6.71s4.46-6.71,9.94-6.71,9.93,3,9.93,6.71S272.23,351,266.75,351Zm0-12.42c-4.93,0-8.94,2.57-8.94,5.71s4,5.71,8.94,5.71,8.93-2.56,8.93-5.71S271.67,338.6,266.75,338.6Z"></path><path d="M290.57,361.61h0a2.09,2.09,0,0,1-2.1-2.09V347.84h4.19v11.68A2.09,2.09,0,0,1,290.57,361.61Z" style="fill:#fff"></path><path d="M290.57,362.11a2.6,2.6,0,0,1-2.6-2.59V347.84a.5.5,0,0,1,.5-.5h4.19a.5.5,0,0,1,.5.5v11.68A2.59,2.59,0,0,1,290.57,362.11ZM289,348.34v11.18a1.6,1.6,0,0,0,3.19,0V348.34Z"></path><path d="M299.84,346.77c0,3.43-4.23,6.21-9.44,6.21S281,350.2,281,346.77c0-6.88,4.22-6.21,9.43-6.21S299.84,339.53,299.84,346.77Z" style="fill:#fff"></path><path d="M290.4,353.48c-5.48,0-9.93-3-9.93-6.71,0-2.43.52-4.13,1.59-5.19,1.61-1.59,4.14-1.56,7.07-1.53,1,0,2,0,3,0,2.72,0,5.07-.11,6.6,1.38,1.1,1.07,1.61,2.77,1.61,5.36C300.34,350.47,295.88,353.48,290.4,353.48ZM288,341c-2.21,0-4.08.15-5.19,1.25-.88.86-1.3,2.33-1.3,4.48,0,3.15,4,5.71,8.93,5.71s8.94-2.56,8.94-5.71c0-2.27-.43-3.79-1.31-4.65-1.22-1.19-3.38-1.14-5.88-1.09-1,0-2,0-3,0Z"></path><path d="M299.84,344.31c0,3.43-4.23,6.21-9.44,6.21s-9.43-2.78-9.43-6.21,4.22-6.21,9.43-6.21S299.84,340.88,299.84,344.31Z" style="fill:#fff"></path><path d="M290.4,351c-5.48,0-9.93-3-9.93-6.71s4.45-6.71,9.93-6.71,9.94,3,9.94,6.71S295.88,351,290.4,351Zm0-12.42c-4.93,0-8.93,2.57-8.93,5.71s4,5.71,8.93,5.71,8.94-2.56,8.94-5.71S295.33,338.6,290.4,338.6Z"></path><path d="M314.22,361.61h0a2.08,2.08,0,0,1-2.09-2.09V347.84h4.19v11.68A2.09,2.09,0,0,1,314.22,361.61Z" style="fill:#fff"></path><path d="M314.22,362.11a2.59,2.59,0,0,1-2.59-2.59V347.84a.5.5,0,0,1,.5-.5h4.19a.51.51,0,0,1,.5.5v11.68A2.6,2.6,0,0,1,314.22,362.11Zm-1.59-13.77v11.18a1.6,1.6,0,0,0,3.19,0V348.34Z"></path><path d="M323.49,346.77c0,3.43-4.22,6.21-9.43,6.21s-9.44-2.78-9.44-6.21c0-6.88,4.22-6.21,9.44-6.21S323.49,339.53,323.49,346.77Z" style="fill:#fff"></path><path d="M314.06,353.48c-5.48,0-9.94-3-9.94-6.71,0-2.43.52-4.13,1.6-5.19,1.6-1.59,4.13-1.56,7.06-1.53,1,0,2,0,3,0,2.72,0,5.08-.11,6.6,1.38,1.1,1.07,1.61,2.77,1.61,5.36C324,350.47,319.53,353.48,314.06,353.48ZM311.61,341c-2.21,0-4.08.15-5.19,1.25-.88.86-1.3,2.33-1.3,4.48,0,3.15,4,5.71,8.94,5.71s8.93-2.56,8.93-5.71c0-2.27-.43-3.79-1.3-4.65-1.23-1.19-3.39-1.14-5.88-1.09-1,0-2,0-3,0Z"></path><path d="M323.49,344.31c0,3.43-4.22,6.21-9.43,6.21s-9.44-2.78-9.44-6.21,4.22-6.21,9.44-6.21S323.49,340.88,323.49,344.31Z" style="fill:#fff"></path><path d="M314.06,351c-5.48,0-9.94-3-9.94-6.71s4.46-6.71,9.94-6.71,9.93,3,9.93,6.71S319.53,351,314.06,351Zm0-12.42c-4.93,0-8.94,2.57-8.94,5.71s4,5.71,8.94,5.71,8.93-2.56,8.93-5.71S319,338.6,314.06,338.6Z"></path><path d="M337.87,361.61h0a2.09,2.09,0,0,1-2.09-2.09V347.84H340v11.68A2.09,2.09,0,0,1,337.87,361.61Z" style="fill:#fff"></path><path d="M337.88,362.11a2.59,2.59,0,0,1-2.6-2.59V347.84a.5.5,0,0,1,.5-.5H340a.5.5,0,0,1,.5.5v11.68A2.59,2.59,0,0,1,337.88,362.11Zm-1.6-13.77v11.18a1.6,1.6,0,0,0,3.19,0V348.34Z"></path><path d="M347.14,346.77c0,3.43-4.22,6.21-9.43,6.21s-9.44-2.78-9.44-6.21c0-6.88,4.23-6.21,9.44-6.21S347.14,339.53,347.14,346.77Z" style="fill:#fff"></path><path d="M337.71,353.48c-5.48,0-9.94-3-9.94-6.71,0-2.43.53-4.13,1.6-5.19,1.6-1.59,4.14-1.56,7.07-1.53,1,0,2,0,3,0,2.72,0,5.07-.11,6.6,1.38,1.09,1.07,1.6,2.77,1.6,5.36C347.64,350.47,343.19,353.48,337.71,353.48ZM335.26,341c-2.2,0-4.07.15-5.19,1.25-.87.86-1.3,2.33-1.3,4.48,0,3.15,4,5.71,8.94,5.71s8.93-2.56,8.93-5.71c0-2.27-.42-3.79-1.3-4.65-1.23-1.19-3.38-1.14-5.88-1.09-1,0-2,0-3,0Z"></path><path d="M347.14,344.31c0,3.43-4.22,6.21-9.43,6.21s-9.44-2.78-9.44-6.21,4.23-6.21,9.44-6.21S347.14,340.88,347.14,344.31Z" style="fill:#fff"></path><path d="M337.71,351c-5.48,0-9.94-3-9.94-6.71s4.46-6.71,9.94-6.71,9.93,3,9.93,6.71S343.19,351,337.71,351Zm0-12.42c-4.93,0-8.94,2.57-8.94,5.71s4,5.71,8.94,5.71,8.93-2.56,8.93-5.71S342.64,338.6,337.71,338.6Z"></path><path d="M361.53,361.61h0a2.09,2.09,0,0,1-2.1-2.09V347.84h4.19v11.68A2.08,2.08,0,0,1,361.53,361.61Z" style="fill:#fff"></path><path d="M361.53,362.11a2.6,2.6,0,0,1-2.6-2.59V347.84a.51.51,0,0,1,.5-.5h4.19a.5.5,0,0,1,.5.5v11.68A2.59,2.59,0,0,1,361.53,362.11Zm-1.6-13.77v11.18a1.6,1.6,0,0,0,3.19,0V348.34Z"></path><path d="M370.8,346.77c0,3.43-4.23,6.21-9.44,6.21s-9.43-2.78-9.43-6.21c0-6.88,4.22-6.21,9.43-6.21S370.8,339.53,370.8,346.77Z" style="fill:#fff"></path><path d="M361.36,353.48c-5.48,0-9.93-3-9.93-6.71,0-2.43.52-4.13,1.59-5.19,1.61-1.59,4.14-1.56,7.07-1.53,1,0,2,0,3,0,2.73,0,5.08-.11,6.6,1.38,1.1,1.07,1.61,2.77,1.61,5.36C371.3,350.47,366.84,353.48,361.36,353.48ZM358.92,341c-2.21,0-4.08.15-5.19,1.25-.88.86-1.3,2.33-1.3,4.48,0,3.15,4,5.71,8.93,5.71s8.94-2.56,8.94-5.71c0-2.27-.43-3.79-1.31-4.65-1.22-1.19-3.38-1.14-5.88-1.09-1,0-2,0-3,0Z"></path><path d="M370.8,344.31c0,3.43-4.23,6.21-9.44,6.21s-9.43-2.78-9.43-6.21,4.22-6.21,9.43-6.21S370.8,340.88,370.8,344.31Z" style="fill:#fff"></path><path d="M361.36,351c-5.48,0-9.93-3-9.93-6.71s4.45-6.71,9.93-6.71,9.94,3,9.94,6.71S366.84,351,361.36,351Zm0-12.42c-4.92,0-8.93,2.57-8.93,5.71s4,5.71,8.93,5.71,8.94-2.56,8.94-5.71S366.29,338.6,361.36,338.6Z"></path><path d="M385.18,361.61h0a2.08,2.08,0,0,1-2.09-2.09V347.84h4.19v11.68A2.09,2.09,0,0,1,385.18,361.61Z" style="fill:#fff"></path><path d="M385.18,362.11a2.59,2.59,0,0,1-2.59-2.59V347.84a.5.5,0,0,1,.5-.5h4.19a.51.51,0,0,1,.5.5v11.68A2.6,2.6,0,0,1,385.18,362.11Zm-1.59-13.77v11.18a1.6,1.6,0,0,0,3.19,0V348.34Z"></path><path d="M394.45,346.77c0,3.43-4.22,6.21-9.43,6.21s-9.44-2.78-9.44-6.21c0-6.88,4.23-6.21,9.44-6.21S394.45,339.53,394.45,346.77Z" style="fill:#fff"></path><path d="M385,353.48c-5.48,0-9.94-3-9.94-6.71,0-2.43.52-4.13,1.6-5.19,1.6-1.59,4.14-1.56,7.07-1.53,1,0,2,0,3,0,2.73,0,5.08-.11,6.61,1.38,1.09,1.07,1.6,2.77,1.6,5.36C395,350.47,390.5,353.48,385,353.48ZM382.57,341c-2.21,0-4.07.15-5.19,1.25-.87.86-1.3,2.33-1.3,4.48,0,3.15,4,5.71,8.94,5.71s8.93-2.56,8.93-5.71c0-2.27-.42-3.79-1.3-4.65-1.23-1.19-3.38-1.14-5.88-1.09-1,0-2,0-3,0Z"></path><path d="M394.45,344.31c0,3.43-4.22,6.21-9.43,6.21s-9.44-2.78-9.44-6.21,4.23-6.21,9.44-6.21S394.45,340.88,394.45,344.31Z" style="fill:#fff"></path><path d="M385,351c-5.48,0-9.94-3-9.94-6.71s4.46-6.71,9.94-6.71,9.93,3,9.93,6.71S390.5,351,385,351Zm0-12.42c-4.93,0-8.94,2.57-8.94,5.71s4,5.71,8.94,5.71,8.93-2.56,8.93-5.71S389.94,338.6,385,338.6Z"></path><path d="M103.3,382.14h0a2.1,2.1,0,0,1-2.09-2.09V368.37h4.19v11.68A2.1,2.1,0,0,1,103.3,382.14Z" style="fill:#fff"></path><path d="M103.3,382.64a2.59,2.59,0,0,1-2.59-2.59V368.37a.5.5,0,0,1,.5-.5h4.19a.5.5,0,0,1,.5.5v11.68A2.6,2.6,0,0,1,103.3,382.64Zm-1.59-13.77v11.18a1.6,1.6,0,0,0,3.19,0V368.87Z"></path><ellipse cx="103.14" cy="367.29" rx="9.44" ry="6.21" style="fill:#fff"></ellipse><path d="M103.14,374c-5.48,0-9.94-3-9.94-6.71,0-2.42.52-4.12,1.6-5.18,1.6-1.59,4.13-1.57,7.07-1.53,1,0,2,0,3,0,2.72-.06,5.07-.12,6.6,1.38,1.09,1.07,1.6,2.77,1.6,5.35C113.07,371,108.62,374,103.14,374Zm-2.45-12.43c-2.2,0-4.07.14-5.19,1.25-.87.86-1.3,2.33-1.3,4.47,0,3.15,4,5.71,8.94,5.71s8.93-2.56,8.93-5.71c0-2.26-.42-3.78-1.3-4.64-1.23-1.2-3.38-1.15-5.88-1.09-1,0-2,0-3,0Z"></path><ellipse cx="103.14" cy="364.84" rx="9.44" ry="6.21" style="fill:#fff"></ellipse><path d="M103.14,371.55c-5.48,0-9.94-3-9.94-6.71s4.46-6.71,9.94-6.71,9.93,3,9.93,6.71S108.62,371.55,103.14,371.55Zm0-12.42c-4.93,0-8.94,2.56-8.94,5.71s4,5.71,8.94,5.71,8.93-2.56,8.93-5.71S108.07,359.13,103.14,359.13Z"></path><path d="M127,382.14h0a2.1,2.1,0,0,1-2.1-2.09V368.37h4.19v11.68A2.09,2.09,0,0,1,127,382.14Z" style="fill:#fff"></path><path d="M127,382.64a2.6,2.6,0,0,1-2.6-2.59V368.37a.5.5,0,0,1,.5-.5h4.19a.5.5,0,0,1,.5.5v11.68A2.59,2.59,0,0,1,127,382.64Zm-1.6-13.77v11.18a1.6,1.6,0,0,0,3.19,0V368.87Z"></path><ellipse cx="126.79" cy="367.29" rx="9.44" ry="6.21" style="fill:#fff"></ellipse><path d="M126.79,374c-5.48,0-9.93-3-9.93-6.71,0-2.42.52-4.12,1.59-5.18,1.61-1.59,4.14-1.57,7.07-1.53,1,0,2,0,3,0,2.72-.06,5.07-.12,6.6,1.38,1.1,1.07,1.61,2.77,1.61,5.35C136.73,371,132.27,374,126.79,374Zm-2.44-12.43c-2.21,0-4.08.14-5.19,1.25-.88.86-1.3,2.33-1.3,4.47,0,3.15,4,5.71,8.93,5.71s8.94-2.56,8.94-5.71c0-2.26-.43-3.78-1.31-4.64-1.22-1.2-3.38-1.15-5.88-1.09-1,0-2,0-3,0Z"></path><ellipse cx="126.79" cy="364.84" rx="9.44" ry="6.21" style="fill:#fff"></ellipse><path d="M126.79,371.55c-5.48,0-9.93-3-9.93-6.71s4.45-6.71,9.93-6.71,9.94,3,9.94,6.71S132.27,371.55,126.79,371.55Zm0-12.42c-4.93,0-8.93,2.56-8.93,5.71s4,5.71,8.93,5.71,8.94-2.56,8.94-5.71S131.72,359.13,126.79,359.13Z"></path><path d="M150.61,382.14h0a2.09,2.09,0,0,1-2.09-2.09V368.37h4.19v11.68A2.1,2.1,0,0,1,150.61,382.14Z" style="fill:#fff"></path><path d="M150.61,382.64a2.59,2.59,0,0,1-2.59-2.59V368.37a.5.5,0,0,1,.5-.5h4.19a.5.5,0,0,1,.5.5v11.68A2.6,2.6,0,0,1,150.61,382.64ZM149,368.87v11.18a1.6,1.6,0,0,0,3.19,0V368.87Z"></path><ellipse cx="150.45" cy="367.29" rx="9.44" ry="6.21" style="fill:#fff"></ellipse><path d="M150.45,374c-5.48,0-9.94-3-9.94-6.71,0-2.42.52-4.12,1.6-5.18,1.6-1.59,4.13-1.57,7.07-1.53,1,0,2,0,3,0,2.73-.06,5.08-.12,6.61,1.38,1.09,1.07,1.6,2.77,1.6,5.35C160.38,371,155.92,374,150.45,374ZM148,361.57c-2.21,0-4.07.14-5.19,1.25-.87.86-1.3,2.33-1.3,4.47,0,3.15,4,5.71,8.94,5.71s8.93-2.56,8.93-5.71c0-2.26-.43-3.78-1.3-4.64-1.23-1.2-3.39-1.15-5.88-1.09-1,0-2,0-3,0Z"></path><ellipse cx="150.45" cy="364.84" rx="9.44" ry="6.21" style="fill:#fff"></ellipse><path d="M150.45,371.55c-5.48,0-9.94-3-9.94-6.71s4.46-6.71,9.94-6.71,9.93,3,9.93,6.71S155.92,371.55,150.45,371.55Zm0-12.42c-4.93,0-8.94,2.56-8.94,5.71s4,5.71,8.94,5.71,8.93-2.56,8.93-5.71S155.37,359.13,150.45,359.13Z"></path><path d="M174.27,382.14h0a2.1,2.1,0,0,1-2.1-2.09V368.37h4.19v11.68A2.1,2.1,0,0,1,174.27,382.14Z" style="fill:#fff"></path><path d="M174.27,382.64a2.59,2.59,0,0,1-2.6-2.59V368.37a.5.5,0,0,1,.5-.5h4.19a.5.5,0,0,1,.5.5v11.68A2.59,2.59,0,0,1,174.27,382.64Zm-1.6-13.77v11.18a1.6,1.6,0,0,0,3.19,0V368.87Z"></path><ellipse cx="174.1" cy="367.29" rx="9.44" ry="6.21" style="fill:#fff"></ellipse><path d="M174.1,374c-5.48,0-9.94-3-9.94-6.71,0-2.42.53-4.12,1.6-5.18,1.6-1.59,4.14-1.57,7.07-1.53,1,0,2,0,3,0,2.72-.06,5.07-.12,6.6,1.38,1.1,1.07,1.61,2.77,1.61,5.35C184,371,179.58,374,174.1,374Zm-2.44-12.43c-2.21,0-4.08.14-5.2,1.25-.87.86-1.3,2.33-1.3,4.47,0,3.15,4,5.71,8.94,5.71s8.94-2.56,8.94-5.71c0-2.26-.43-3.78-1.31-4.64-1.23-1.2-3.38-1.15-5.88-1.09-1,0-2,0-3,0Z"></path><ellipse cx="174.1" cy="364.84" rx="9.44" ry="6.21" style="fill:#fff"></ellipse><path d="M174.1,371.55c-5.48,0-9.94-3-9.94-6.71s4.46-6.71,9.94-6.71,9.94,3,9.94,6.71S179.58,371.55,174.1,371.55Zm0-12.42c-4.93,0-8.94,2.56-8.94,5.71s4,5.71,8.94,5.71S183,368,183,364.84,179,359.13,174.1,359.13Z"></path><path d="M197.92,382.14h0a2.1,2.1,0,0,1-2.1-2.09V368.37H200v11.68A2.09,2.09,0,0,1,197.92,382.14Z" style="fill:#fff"></path><path d="M197.92,382.64a2.6,2.6,0,0,1-2.6-2.59V368.37a.5.5,0,0,1,.5-.5H200a.5.5,0,0,1,.5.5v11.68A2.59,2.59,0,0,1,197.92,382.64Zm-1.6-13.77v11.18a1.6,1.6,0,0,0,3.19,0V368.87Z"></path><ellipse cx="197.75" cy="367.29" rx="9.44" ry="6.21" style="fill:#fff"></ellipse><path d="M197.75,374c-5.48,0-9.93-3-9.93-6.71,0-2.42.52-4.12,1.59-5.18,1.61-1.59,4.14-1.57,7.07-1.53,1,0,2,0,3,0,2.73-.06,5.08-.12,6.6,1.38,1.1,1.07,1.61,2.77,1.61,5.35C207.69,371,203.23,374,197.75,374Zm-2.44-12.43c-2.21,0-4.08.14-5.19,1.25-.88.86-1.3,2.33-1.3,4.47,0,3.15,4,5.71,8.93,5.71s8.94-2.56,8.94-5.71c0-2.26-.43-3.78-1.31-4.64-1.22-1.2-3.38-1.15-5.88-1.09-1,0-2,0-3,0Z"></path><ellipse cx="197.75" cy="364.84" rx="9.44" ry="6.21" style="fill:#fff"></ellipse><path d="M197.75,371.55c-5.48,0-9.93-3-9.93-6.71s4.45-6.71,9.93-6.71,9.94,3,9.94,6.71S203.23,371.55,197.75,371.55Zm0-12.42c-4.92,0-8.93,2.56-8.93,5.71s4,5.71,8.93,5.71,8.94-2.56,8.94-5.71S202.68,359.13,197.75,359.13Z"></path><path d="M221.57,382.14h0a2.1,2.1,0,0,1-2.09-2.09V368.37h4.19v11.68A2.1,2.1,0,0,1,221.57,382.14Z" style="fill:#fff"></path><path d="M221.57,382.64a2.59,2.59,0,0,1-2.59-2.59V368.37a.5.5,0,0,1,.5-.5h4.19a.5.5,0,0,1,.5.5v11.68A2.6,2.6,0,0,1,221.57,382.64ZM220,368.87v11.18a1.6,1.6,0,0,0,3.19,0V368.87Z"></path><ellipse cx="221.41" cy="367.29" rx="9.44" ry="6.21" style="fill:#fff"></ellipse><path d="M221.41,374c-5.48,0-9.94-3-9.94-6.71,0-2.42.52-4.12,1.6-5.18,1.6-1.59,4.13-1.57,7.07-1.53,1,0,2,0,3,0,2.73-.06,5.08-.12,6.61,1.38,1.09,1.07,1.6,2.77,1.6,5.35C231.34,371,226.89,374,221.41,374ZM219,361.57c-2.2,0-4.07.14-5.19,1.25-.87.86-1.3,2.33-1.3,4.47,0,3.15,4,5.71,8.94,5.71s8.93-2.56,8.93-5.71c0-2.26-.42-3.78-1.3-4.64-1.23-1.2-3.38-1.15-5.88-1.09-1,0-2,0-3,0Z"></path><ellipse cx="221.41" cy="364.84" rx="9.44" ry="6.21" style="fill:#fff"></ellipse><path d="M221.41,371.55c-5.48,0-9.94-3-9.94-6.71s4.46-6.71,9.94-6.71,9.93,3,9.93,6.71S226.89,371.55,221.41,371.55Zm0-12.42c-4.93,0-8.94,2.56-8.94,5.71s4,5.71,8.94,5.71,8.93-2.56,8.93-5.71S226.33,359.13,221.41,359.13Z"></path><path d="M245.23,382.14h0a2.1,2.1,0,0,1-2.1-2.09V368.37h4.19v11.68A2.1,2.1,0,0,1,245.23,382.14Z" style="fill:#fff"></path><path d="M245.23,382.64a2.6,2.6,0,0,1-2.6-2.59V368.37a.5.5,0,0,1,.5-.5h4.19a.5.5,0,0,1,.5.5v11.68A2.59,2.59,0,0,1,245.23,382.64Zm-1.6-13.77v11.18a1.6,1.6,0,0,0,3.19,0V368.87Z"></path><ellipse cx="245.06" cy="367.29" rx="9.44" ry="6.21" style="fill:#fff"></ellipse><path d="M245.06,374c-5.48,0-9.93-3-9.93-6.71,0-2.42.52-4.12,1.59-5.18,1.6-1.59,4.13-1.57,7.07-1.53,1,0,2,0,3,0,2.72-.06,5.07-.12,6.6,1.38,1.1,1.07,1.61,2.77,1.61,5.35C255,371,250.54,374,245.06,374Zm-2.44-12.43c-2.21,0-4.08.14-5.2,1.25-.87.86-1.29,2.33-1.29,4.47,0,3.15,4,5.71,8.93,5.71s8.94-2.56,8.94-5.71c0-2.26-.43-3.78-1.31-4.64-1.22-1.2-3.38-1.15-5.88-1.09-1,0-2,0-3,0Z"></path><ellipse cx="245.06" cy="364.84" rx="9.44" ry="6.21" style="fill:#fff"></ellipse><path d="M245.06,371.55c-5.48,0-9.93-3-9.93-6.71s4.45-6.71,9.93-6.71,9.94,3,9.94,6.71S250.54,371.55,245.06,371.55Zm0-12.42c-4.93,0-8.93,2.56-8.93,5.71s4,5.71,8.93,5.71S254,368,254,364.84,250,359.13,245.06,359.13Z"></path><path d="M268.88,382.14h0a2.1,2.1,0,0,1-2.1-2.09V368.37H271v11.68A2.1,2.1,0,0,1,268.88,382.14Z" style="fill:#fff"></path><path d="M268.88,382.64a2.6,2.6,0,0,1-2.6-2.59V368.37a.5.5,0,0,1,.5-.5H271a.5.5,0,0,1,.5.5v11.68A2.6,2.6,0,0,1,268.88,382.64Zm-1.6-13.77v11.18a1.6,1.6,0,0,0,3.2,0V368.87Z"></path><ellipse cx="268.71" cy="367.29" rx="9.44" ry="6.21" style="fill:#fff"></ellipse><path d="M268.71,374c-5.47,0-9.93-3-9.93-6.71,0-2.42.52-4.12,1.6-5.18,1.6-1.59,4.13-1.57,7.06-1.53,1,0,2,0,3,0,2.73-.06,5.08-.12,6.6,1.38,1.1,1.07,1.61,2.77,1.61,5.35C278.65,371,274.19,374,268.71,374Zm-2.44-12.43c-2.21,0-4.08.14-5.19,1.25-.88.86-1.3,2.33-1.3,4.47,0,3.15,4,5.71,8.93,5.71s8.94-2.56,8.94-5.71c0-2.26-.43-3.78-1.3-4.64-1.23-1.2-3.39-1.15-5.89-1.09-1,0-2,0-3,0Z"></path><ellipse cx="268.71" cy="364.84" rx="9.44" ry="6.21" style="fill:#fff"></ellipse><path d="M268.71,371.55c-5.47,0-9.93-3-9.93-6.71s4.46-6.71,9.93-6.71,9.94,3,9.94,6.71S274.19,371.55,268.71,371.55Zm0-12.42c-4.92,0-8.93,2.56-8.93,5.71s4,5.71,8.93,5.71,8.94-2.56,8.94-5.71S273.64,359.13,268.71,359.13Z"></path><path d="M290.44,368.37h4.19a0,0,0,0,1,0,0V380a2.1,2.1,0,0,1-2.1,2.1h0a2.1,2.1,0,0,1-2.1-2.1V368.37a0,0,0,0,1,0,0Z" style="fill:#fff"></path><path d="M292.53,382.64a2.59,2.59,0,0,1-2.59-2.59V368.37a.5.5,0,0,1,.5-.5h4.19a.5.5,0,0,1,.5.5v11.68A2.59,2.59,0,0,1,292.53,382.64Zm-1.59-13.77v11.18a1.6,1.6,0,0,0,3.19,0V368.87Z"></path><ellipse cx="292.37" cy="367.29" rx="9.44" ry="6.21" style="fill:#fff"></ellipse><path d="M292.37,374c-5.48,0-9.94-3-9.94-6.71,0-2.42.52-4.12,1.6-5.18,1.6-1.59,4.13-1.57,7.07-1.53,1,0,2,0,3,0,2.72-.06,5.07-.12,6.6,1.38,1.09,1.07,1.6,2.77,1.6,5.35C302.3,371,297.85,374,292.37,374Zm-2.44-12.43c-2.21,0-4.08.14-5.2,1.25-.87.86-1.3,2.33-1.3,4.47,0,3.15,4,5.71,8.94,5.71s8.93-2.56,8.93-5.71c0-2.26-.42-3.78-1.3-4.64-1.23-1.2-3.38-1.15-5.88-1.09-1,0-2,0-3,0Z"></path><ellipse cx="292.37" cy="364.84" rx="9.44" ry="6.21" style="fill:#fff"></ellipse><path d="M292.37,371.55c-5.48,0-9.94-3-9.94-6.71s4.46-6.71,9.94-6.71,9.93,3,9.93,6.71S297.85,371.55,292.37,371.55Zm0-12.42c-4.93,0-8.94,2.56-8.94,5.71s4,5.71,8.94,5.71,8.93-2.56,8.93-5.71S297.3,359.13,292.37,359.13Z"></path><path d="M316.19,382.14h0a2.1,2.1,0,0,1-2.1-2.09V368.37h4.19v11.68A2.09,2.09,0,0,1,316.19,382.14Z" style="fill:#fff"></path><path d="M316.19,382.64a2.6,2.6,0,0,1-2.6-2.59V368.37a.5.5,0,0,1,.5-.5h4.19a.5.5,0,0,1,.5.5v11.68A2.59,2.59,0,0,1,316.19,382.64Zm-1.6-13.77v11.18a1.6,1.6,0,0,0,3.19,0V368.87Z"></path><ellipse cx="316.02" cy="367.29" rx="9.44" ry="6.21" style="fill:#fff"></ellipse><path d="M316,374c-5.48,0-9.93-3-9.93-6.71,0-2.42.52-4.12,1.59-5.18,1.61-1.59,4.14-1.57,7.07-1.53,1,0,2,0,3,0,2.72-.06,5.07-.12,6.6,1.38,1.1,1.07,1.61,2.77,1.61,5.35C326,371,321.5,374,316,374Zm-2.44-12.43c-2.21,0-4.08.14-5.19,1.25-.88.86-1.3,2.33-1.3,4.47,0,3.15,4,5.71,8.93,5.71s8.94-2.56,8.94-5.71c0-2.26-.43-3.78-1.31-4.64-1.22-1.2-3.38-1.15-5.88-1.09-1,0-2,0-3,0Z"></path><ellipse cx="316.02" cy="364.84" rx="9.44" ry="6.21" style="fill:#fff"></ellipse><path d="M316,371.55c-5.48,0-9.93-3-9.93-6.71s4.45-6.71,9.93-6.71,9.94,3,9.94,6.71S321.5,371.55,316,371.55Zm0-12.42c-4.93,0-8.93,2.56-8.93,5.71s4,5.71,8.93,5.71S325,368,325,364.84,321,359.13,316,359.13Z"></path><path d="M339.84,382.14h0a2.09,2.09,0,0,1-2.09-2.09V368.37h4.19v11.68A2.1,2.1,0,0,1,339.84,382.14Z" style="fill:#fff"></path><path d="M339.84,382.64a2.59,2.59,0,0,1-2.59-2.59V368.37a.5.5,0,0,1,.5-.5h4.19a.5.5,0,0,1,.5.5v11.68A2.6,2.6,0,0,1,339.84,382.64Zm-1.59-13.77v11.18a1.6,1.6,0,0,0,3.19,0V368.87Z"></path><ellipse cx="339.68" cy="367.29" rx="9.44" ry="6.21" style="fill:#fff"></ellipse><path d="M339.68,374c-5.48,0-9.94-3-9.94-6.71,0-2.42.52-4.12,1.6-5.18,1.6-1.59,4.13-1.57,7.07-1.53,1,0,2,0,3,0,2.73-.06,5.08-.12,6.61,1.38,1.09,1.07,1.6,2.77,1.6,5.35C349.61,371,345.15,374,339.68,374Zm-2.45-12.43c-2.21,0-4.07.14-5.19,1.25-.87.86-1.3,2.33-1.3,4.47,0,3.15,4,5.71,8.94,5.71s8.93-2.56,8.93-5.71c0-2.26-.43-3.78-1.3-4.64-1.23-1.2-3.38-1.15-5.88-1.09-1,0-2,0-3,0Z"></path><ellipse cx="339.68" cy="364.84" rx="9.44" ry="6.21" style="fill:#fff"></ellipse><path d="M339.68,371.55c-5.48,0-9.94-3-9.94-6.71s4.46-6.71,9.94-6.71,9.93,3,9.93,6.71S345.15,371.55,339.68,371.55Zm0-12.42c-4.93,0-8.94,2.56-8.94,5.71s4,5.71,8.94,5.71,8.93-2.56,8.93-5.71S344.6,359.13,339.68,359.13Z"></path><path d="M363.5,382.14h0a2.1,2.1,0,0,1-2.1-2.09V368.37h4.19v11.68A2.1,2.1,0,0,1,363.5,382.14Z" style="fill:#fff"></path><path d="M363.5,382.64a2.59,2.59,0,0,1-2.6-2.59V368.37a.5.5,0,0,1,.5-.5h4.19a.5.5,0,0,1,.5.5v11.68A2.59,2.59,0,0,1,363.5,382.64Zm-1.6-13.77v11.18a1.6,1.6,0,0,0,3.19,0V368.87Z"></path><ellipse cx="363.33" cy="367.29" rx="9.44" ry="6.21" style="fill:#fff"></ellipse><path d="M363.33,374c-5.48,0-9.94-3-9.94-6.71,0-2.42.53-4.12,1.6-5.18,1.6-1.59,4.13-1.57,7.07-1.53,1,0,2,0,3,0,2.72-.06,5.07-.12,6.6,1.38,1.1,1.07,1.61,2.77,1.61,5.35C373.27,371,368.81,374,363.33,374Zm-2.44-12.43c-2.21,0-4.08.14-5.2,1.25-.87.86-1.3,2.33-1.3,4.47,0,3.15,4,5.71,8.94,5.71s8.94-2.56,8.94-5.71c0-2.26-.43-3.78-1.31-4.64-1.23-1.2-3.38-1.15-5.88-1.09-1,0-2,0-3,0Z"></path><ellipse cx="363.33" cy="364.84" rx="9.44" ry="6.21" style="fill:#fff"></ellipse><path d="M363.33,371.55c-5.48,0-9.94-3-9.94-6.71s4.46-6.71,9.94-6.71,9.94,3,9.94,6.71S368.81,371.55,363.33,371.55Zm0-12.42c-4.93,0-8.94,2.56-8.94,5.71s4,5.71,8.94,5.71,8.94-2.56,8.94-5.71S368.26,359.13,363.33,359.13Z"></path><path d="M386.86,382.14h0a2.1,2.1,0,0,1-2.1-2.09V368.37H389v11.68A2.09,2.09,0,0,1,386.86,382.14Z" style="fill:#fff"></path><path d="M386.86,382.64a2.6,2.6,0,0,1-2.6-2.59V368.37a.5.5,0,0,1,.5-.5H389a.5.5,0,0,1,.5.5v11.68A2.59,2.59,0,0,1,386.86,382.64Zm-1.6-13.77v11.18a1.6,1.6,0,0,0,3.19,0V368.87Z"></path><ellipse cx="386.69" cy="367.29" rx="9.44" ry="6.21" style="fill:#fff"></ellipse><path d="M386.69,374c-5.48,0-9.93-3-9.93-6.71,0-2.42.52-4.12,1.59-5.18,1.61-1.59,4.14-1.57,7.07-1.53,1,0,2,0,3,0,2.72-.06,5.07-.12,6.6,1.38,1.1,1.07,1.61,2.77,1.61,5.35C396.63,371,392.17,374,386.69,374Zm-2.44-12.43c-2.21,0-4.08.14-5.19,1.25-.88.86-1.3,2.33-1.3,4.47,0,3.15,4,5.71,8.93,5.71s8.94-2.56,8.94-5.71c0-2.26-.43-3.78-1.31-4.64-1.22-1.2-3.38-1.15-5.88-1.09-1,0-2,0-3,0Z"></path><ellipse cx="386.69" cy="364.84" rx="9.44" ry="6.21" style="fill:#fff"></ellipse><path d="M386.69,371.55c-5.48,0-9.93-3-9.93-6.71s4.45-6.71,9.93-6.71,9.94,3,9.94,6.71S392.17,371.55,386.69,371.55Zm0-12.42c-4.93,0-8.93,2.56-8.93,5.71s4,5.71,8.93,5.71,8.94-2.56,8.94-5.71S391.62,359.13,386.69,359.13Z"></path><path d="M410.22,382.14h0a2.1,2.1,0,0,1-2.1-2.09V368.37h4.2v11.68A2.1,2.1,0,0,1,410.22,382.14Z" style="fill:#fff"></path><path d="M410.22,382.64a2.6,2.6,0,0,1-2.6-2.59V368.37a.5.5,0,0,1,.5-.5h4.2a.5.5,0,0,1,.5.5v11.68A2.6,2.6,0,0,1,410.22,382.64Zm-1.6-13.77v11.18a1.6,1.6,0,0,0,3.2,0V368.87Z"></path><ellipse cx="410.05" cy="367.29" rx="9.44" ry="6.21" style="fill:#fff"></ellipse><path d="M410.05,374c-5.47,0-9.93-3-9.93-6.71,0-2.42.52-4.12,1.59-5.18,1.61-1.59,4.14-1.57,7.07-1.53,1,0,2,0,3,0,2.73-.06,5.08-.12,6.6,1.38,1.1,1.07,1.61,2.77,1.61,5.35C420,371,415.53,374,410.05,374Zm-2.44-12.43c-2.21,0-4.08.14-5.19,1.25-.88.86-1.3,2.33-1.3,4.47,0,3.15,4,5.71,8.93,5.71s8.94-2.56,8.94-5.71c0-2.26-.43-3.78-1.31-4.64-1.22-1.2-3.38-1.15-5.88-1.09-1,0-2,0-3,0Z"></path><ellipse cx="410.05" cy="364.84" rx="9.44" ry="6.21" style="fill:#fff"></ellipse><path d="M410.05,371.55c-5.47,0-9.93-3-9.93-6.71s4.46-6.71,9.93-6.71,9.94,3,9.94,6.71S415.53,371.55,410.05,371.55Zm0-12.42c-4.92,0-8.93,2.56-8.93,5.71s4,5.71,8.93,5.71S419,368,419,364.84,415,359.13,410.05,359.13Z"></path><path d="M103.3,401.13h0a2.1,2.1,0,0,1-2.09-2.09V387.36h4.19V399A2.1,2.1,0,0,1,103.3,401.13Z" style="fill:#fff"></path><path d="M103.3,401.63a2.59,2.59,0,0,1-2.59-2.59V387.36a.5.5,0,0,1,.5-.5h4.19a.5.5,0,0,1,.5.5V399A2.6,2.6,0,0,1,103.3,401.63Zm-1.59-13.77V399a1.6,1.6,0,0,0,3.19,0V387.86Z"></path><ellipse cx="103.14" cy="386.29" rx="9.44" ry="6.21" style="fill:#fff"></ellipse><path d="M103.14,393c-5.48,0-9.94-3-9.94-6.7,0-2.43.52-4.13,1.6-5.19,1.6-1.59,4.13-1.57,7.07-1.53,1,0,2,0,3,0,2.71-.06,5.07-.11,6.6,1.38,1.09,1.07,1.6,2.77,1.6,5.36C113.07,390,108.62,393,103.14,393Zm-2.45-12.43c-2.2,0-4.07.14-5.19,1.25-.87.86-1.3,2.33-1.3,4.48,0,3.14,4,5.7,8.94,5.7s8.93-2.56,8.93-5.7c0-2.27-.42-3.79-1.3-4.65-1.23-1.2-3.38-1.14-5.88-1.09-1,0-2,0-3,0Z"></path><ellipse cx="103.14" cy="383.83" rx="9.44" ry="6.21" style="fill:#fff"></ellipse><path d="M103.14,390.54c-5.48,0-9.94-3-9.94-6.71s4.46-6.71,9.94-6.71,9.93,3,9.93,6.71S108.62,390.54,103.14,390.54Zm0-12.42c-4.93,0-8.94,2.56-8.94,5.71s4,5.71,8.94,5.71,8.93-2.56,8.93-5.71S108.07,378.12,103.14,378.12Z"></path><path d="M127,401.13h0a2.1,2.1,0,0,1-2.1-2.09V387.36h4.19V399A2.09,2.09,0,0,1,127,401.13Z" style="fill:#fff"></path><path d="M127,401.63a2.6,2.6,0,0,1-2.6-2.59V387.36a.5.5,0,0,1,.5-.5h4.19a.5.5,0,0,1,.5.5V399A2.59,2.59,0,0,1,127,401.63Zm-1.6-13.77V399a1.6,1.6,0,0,0,3.19,0V387.86Z"></path><ellipse cx="126.79" cy="386.29" rx="9.44" ry="6.21" style="fill:#fff"></ellipse><path d="M126.79,393c-5.48,0-9.93-3-9.93-6.7,0-2.43.52-4.13,1.59-5.19,1.61-1.59,4.14-1.57,7.07-1.53,1,0,2,0,3,0,2.72-.06,5.07-.11,6.6,1.38,1.1,1.07,1.61,2.77,1.61,5.36C136.73,390,132.27,393,126.79,393Zm-2.44-12.43c-2.21,0-4.08.14-5.19,1.25-.88.86-1.3,2.33-1.3,4.48,0,3.14,4,5.7,8.93,5.7s8.94-2.56,8.94-5.7c0-2.27-.43-3.79-1.31-4.65-1.22-1.2-3.38-1.14-5.88-1.09-1,0-2,0-3,0Z"></path><ellipse cx="126.79" cy="383.83" rx="9.44" ry="6.21" style="fill:#fff"></ellipse><path d="M126.79,390.54c-5.48,0-9.93-3-9.93-6.71s4.45-6.71,9.93-6.71,9.94,3,9.94,6.71S132.27,390.54,126.79,390.54Zm0-12.42c-4.93,0-8.93,2.56-8.93,5.71s4,5.71,8.93,5.71,8.94-2.56,8.94-5.71S131.72,378.12,126.79,378.12Z"></path><path d="M150.61,401.13h0a2.09,2.09,0,0,1-2.09-2.09V387.36h4.19V399A2.1,2.1,0,0,1,150.61,401.13Z" style="fill:#fff"></path><path d="M150.61,401.63A2.59,2.59,0,0,1,148,399V387.36a.5.5,0,0,1,.5-.5h4.19a.5.5,0,0,1,.5.5V399A2.6,2.6,0,0,1,150.61,401.63ZM149,387.86V399a1.6,1.6,0,0,0,3.19,0V387.86Z"></path><ellipse cx="150.45" cy="386.29" rx="9.44" ry="6.21" style="fill:#fff"></ellipse><path d="M150.45,393c-5.48,0-9.94-3-9.94-6.7,0-2.43.52-4.13,1.6-5.19,1.6-1.59,4.13-1.57,7.07-1.53,1,0,2,0,3,0,2.72-.06,5.08-.11,6.61,1.38,1.09,1.07,1.6,2.77,1.6,5.36C160.38,390,155.92,393,150.45,393ZM148,380.56c-2.21,0-4.07.14-5.19,1.25-.88.86-1.3,2.33-1.3,4.48,0,3.14,4,5.7,8.94,5.7s8.93-2.56,8.93-5.7c0-2.27-.43-3.79-1.3-4.65-1.23-1.19-3.39-1.14-5.88-1.09-1,0-2,0-3,0Z"></path><ellipse cx="150.45" cy="383.83" rx="9.44" ry="6.21" style="fill:#fff"></ellipse><path d="M150.45,390.54c-5.48,0-9.94-3-9.94-6.71s4.46-6.71,9.94-6.71,9.93,3,9.93,6.71S155.92,390.54,150.45,390.54Zm0-12.42c-4.93,0-8.94,2.56-8.94,5.71s4,5.71,8.94,5.71,8.93-2.56,8.93-5.71S155.37,378.12,150.45,378.12Z"></path><path d="M174.27,401.13h0a2.1,2.1,0,0,1-2.1-2.09V387.36h4.19V399A2.1,2.1,0,0,1,174.27,401.13Z" style="fill:#fff"></path><path d="M174.27,401.63a2.59,2.59,0,0,1-2.6-2.59V387.36a.5.5,0,0,1,.5-.5h4.19a.5.5,0,0,1,.5.5V399A2.59,2.59,0,0,1,174.27,401.63Zm-1.6-13.77V399a1.6,1.6,0,0,0,3.19,0V387.86Z"></path><ellipse cx="174.1" cy="386.29" rx="9.44" ry="6.21" style="fill:#fff"></ellipse><path d="M174.1,393c-5.48,0-9.94-3-9.94-6.7,0-2.43.53-4.13,1.6-5.19,1.6-1.59,4.14-1.57,7.07-1.53,1,0,2,0,3,0,2.72-.06,5.07-.11,6.6,1.38,1.1,1.07,1.61,2.77,1.61,5.36C184,390,179.58,393,174.1,393Zm-2.44-12.43c-2.21,0-4.08.14-5.2,1.25-.87.86-1.3,2.33-1.3,4.48,0,3.14,4,5.7,8.94,5.7s8.94-2.56,8.94-5.7c0-2.27-.43-3.79-1.31-4.65-1.22-1.19-3.38-1.14-5.88-1.09-1,0-2,0-3,0Z"></path><ellipse cx="174.1" cy="383.83" rx="9.44" ry="6.21" style="fill:#fff"></ellipse><path d="M174.1,390.54c-5.48,0-9.94-3-9.94-6.71s4.46-6.71,9.94-6.71,9.94,3,9.94,6.71S179.58,390.54,174.1,390.54Zm0-12.42c-4.93,0-8.94,2.56-8.94,5.71s4,5.71,8.94,5.71S183,387,183,383.83,179,378.12,174.1,378.12Z"></path><path d="M197.92,401.13h0a2.1,2.1,0,0,1-2.1-2.09V387.36H200V399A2.09,2.09,0,0,1,197.92,401.13Z" style="fill:#fff"></path><path d="M197.92,401.63a2.6,2.6,0,0,1-2.6-2.59V387.36a.5.5,0,0,1,.5-.5H200a.5.5,0,0,1,.5.5V399A2.59,2.59,0,0,1,197.92,401.63Zm-1.6-13.77V399a1.6,1.6,0,0,0,3.19,0V387.86Z"></path><ellipse cx="197.75" cy="386.29" rx="9.44" ry="6.21" style="fill:#fff"></ellipse><path d="M197.75,393c-5.48,0-9.93-3-9.93-6.7,0-2.43.52-4.13,1.59-5.19,1.61-1.59,4.14-1.57,7.07-1.53,1,0,2,0,3,0,2.72-.06,5.08-.11,6.6,1.38,1.1,1.07,1.61,2.77,1.61,5.36C207.69,390,203.23,393,197.75,393Zm-2.44-12.43c-2.21,0-4.08.14-5.19,1.25-.88.86-1.3,2.33-1.3,4.48,0,3.14,4,5.7,8.93,5.7s8.94-2.56,8.94-5.7c0-2.27-.43-3.79-1.31-4.65-1.22-1.19-3.38-1.14-5.88-1.09-1,0-2,0-3,0Z"></path><ellipse cx="197.75" cy="383.83" rx="9.44" ry="6.21" style="fill:#fff"></ellipse><path d="M197.75,390.54c-5.48,0-9.93-3-9.93-6.71s4.45-6.71,9.93-6.71,9.94,3,9.94,6.71S203.23,390.54,197.75,390.54Zm0-12.42c-4.92,0-8.93,2.56-8.93,5.71s4,5.71,8.93,5.71,8.94-2.56,8.94-5.71S202.68,378.12,197.75,378.12Z"></path><path d="M221.57,401.13h0a2.1,2.1,0,0,1-2.09-2.09V387.36h4.19V399A2.1,2.1,0,0,1,221.57,401.13Z" style="fill:#fff"></path><path d="M221.57,401.63A2.59,2.59,0,0,1,219,399V387.36a.5.5,0,0,1,.5-.5h4.19a.5.5,0,0,1,.5.5V399A2.6,2.6,0,0,1,221.57,401.63ZM220,387.86V399a1.6,1.6,0,0,0,3.19,0V387.86Z"></path><ellipse cx="221.41" cy="386.29" rx="9.44" ry="6.21" style="fill:#fff"></ellipse><path d="M221.41,393c-5.48,0-9.94-3-9.94-6.7,0-2.43.52-4.13,1.6-5.19,1.6-1.59,4.13-1.57,7.07-1.53,1,0,2,0,3,0,2.73-.06,5.08-.11,6.61,1.38,1.09,1.07,1.6,2.77,1.6,5.36C231.34,390,226.89,393,221.41,393ZM219,380.56c-2.2,0-4.07.14-5.19,1.25-.87.86-1.3,2.33-1.3,4.48,0,3.14,4,5.7,8.94,5.7s8.93-2.56,8.93-5.7c0-2.27-.42-3.79-1.3-4.65-1.23-1.19-3.39-1.14-5.88-1.09-1,0-2,0-3,0Z"></path><ellipse cx="221.41" cy="383.83" rx="9.44" ry="6.21" style="fill:#fff"></ellipse><path d="M221.41,390.54c-5.48,0-9.94-3-9.94-6.71s4.46-6.71,9.94-6.71,9.93,3,9.93,6.71S226.89,390.54,221.41,390.54Zm0-12.42c-4.93,0-8.94,2.56-8.94,5.71s4,5.71,8.94,5.71,8.93-2.56,8.93-5.71S226.33,378.12,221.41,378.12Z"></path><path d="M245.23,401.13h0a2.1,2.1,0,0,1-2.1-2.09V387.36h4.19V399A2.1,2.1,0,0,1,245.23,401.13Z" style="fill:#fff"></path><path d="M245.23,401.63a2.6,2.6,0,0,1-2.6-2.59V387.36a.5.5,0,0,1,.5-.5h4.19a.5.5,0,0,1,.5.5V399A2.59,2.59,0,0,1,245.23,401.63Zm-1.6-13.77V399a1.6,1.6,0,0,0,3.19,0V387.86Z"></path><ellipse cx="245.06" cy="386.29" rx="9.44" ry="6.21" style="fill:#fff"></ellipse><path d="M245.06,393c-5.48,0-9.93-3-9.93-6.7,0-2.43.52-4.13,1.59-5.19,1.6-1.59,4.13-1.57,7.07-1.53,1,0,2,0,3,0,2.72-.06,5.07-.11,6.6,1.38,1.1,1.07,1.61,2.77,1.61,5.36C255,390,250.54,393,245.06,393Zm-2.44-12.43c-2.21,0-4.08.14-5.2,1.25-.87.86-1.29,2.33-1.29,4.48,0,3.14,4,5.7,8.93,5.7s8.94-2.56,8.94-5.7c0-2.27-.43-3.79-1.31-4.65-1.22-1.19-3.38-1.14-5.88-1.09-1,0-2,0-3,0Z"></path><ellipse cx="245.06" cy="383.83" rx="9.44" ry="6.21" style="fill:#fff"></ellipse><path d="M245.06,390.54c-5.48,0-9.93-3-9.93-6.71s4.45-6.71,9.93-6.71,9.94,3,9.94,6.71S250.54,390.54,245.06,390.54Zm0-12.42c-4.93,0-8.93,2.56-8.93,5.71s4,5.71,8.93,5.71S254,387,254,383.83,250,378.12,245.06,378.12Z"></path><path d="M268.88,401.13h0a2.1,2.1,0,0,1-2.1-2.09V387.36H271V399A2.1,2.1,0,0,1,268.88,401.13Z" style="fill:#fff"></path><path d="M268.88,401.63a2.6,2.6,0,0,1-2.6-2.59V387.36a.5.5,0,0,1,.5-.5H271a.5.5,0,0,1,.5.5V399A2.6,2.6,0,0,1,268.88,401.63Zm-1.6-13.77V399a1.6,1.6,0,0,0,3.2,0V387.86Z"></path><ellipse cx="268.71" cy="386.29" rx="9.44" ry="6.21" style="fill:#fff"></ellipse><path d="M268.71,393c-5.47,0-9.93-3-9.93-6.7,0-2.43.52-4.13,1.6-5.19,1.6-1.59,4.13-1.57,7.06-1.53,1,0,2,0,3,0,2.72-.06,5.08-.11,6.6,1.38,1.1,1.07,1.61,2.77,1.61,5.36C278.65,390,274.19,393,268.71,393Zm-2.44-12.43c-2.21,0-4.08.14-5.19,1.25-.88.86-1.3,2.33-1.3,4.48,0,3.14,4,5.7,8.93,5.7s8.94-2.56,8.94-5.7c0-2.27-.43-3.79-1.3-4.65-1.23-1.19-3.39-1.14-5.88-1.09-1,0-2,0-3,0Z"></path><ellipse cx="268.71" cy="383.83" rx="9.44" ry="6.21" style="fill:#fff"></ellipse><path d="M268.71,390.54c-5.47,0-9.93-3-9.93-6.71s4.46-6.71,9.93-6.71,9.94,3,9.94,6.71S274.19,390.54,268.71,390.54Zm0-12.42c-4.92,0-8.93,2.56-8.93,5.71s4,5.71,8.93,5.71,8.94-2.56,8.94-5.71S273.64,378.12,268.71,378.12Z"></path><path d="M290.44,387.36h4.19a0,0,0,0,1,0,0V399a2.1,2.1,0,0,1-2.1,2.1h0a2.1,2.1,0,0,1-2.1-2.1V387.36A0,0,0,0,1,290.44,387.36Z" style="fill:#fff"></path><path d="M292.53,401.63a2.59,2.59,0,0,1-2.59-2.59V387.36a.5.5,0,0,1,.5-.5h4.19a.5.5,0,0,1,.5.5V399A2.59,2.59,0,0,1,292.53,401.63Zm-1.59-13.77V399a1.6,1.6,0,0,0,3.19,0V387.86Z"></path><ellipse cx="292.37" cy="386.29" rx="9.44" ry="6.21" style="fill:#fff"></ellipse><path d="M292.37,393c-5.48,0-9.94-3-9.94-6.7,0-2.43.52-4.13,1.6-5.19,1.6-1.59,4.13-1.57,7.07-1.53,1,0,2,0,3,0,2.72-.06,5.07-.11,6.6,1.38,1.09,1.07,1.6,2.77,1.6,5.36C302.3,390,297.85,393,292.37,393Zm-2.45-12.43c-2.2,0-4.07.14-5.19,1.25-.87.86-1.3,2.33-1.3,4.48,0,3.14,4,5.7,8.94,5.7s8.93-2.56,8.93-5.7c0-2.27-.42-3.79-1.3-4.65-1.23-1.19-3.38-1.14-5.88-1.09-1,0-2,0-3,0Z"></path><ellipse cx="292.37" cy="383.83" rx="9.44" ry="6.21" style="fill:#fff"></ellipse><path d="M292.37,390.54c-5.48,0-9.94-3-9.94-6.71s4.46-6.71,9.94-6.71,9.93,3,9.93,6.71S297.85,390.54,292.37,390.54Zm0-12.42c-4.93,0-8.94,2.56-8.94,5.71s4,5.71,8.94,5.71,8.93-2.56,8.93-5.71S297.3,378.12,292.37,378.12Z"></path><path d="M316.19,401.13h0a2.1,2.1,0,0,1-2.1-2.09V387.36h4.19V399A2.09,2.09,0,0,1,316.19,401.13Z" style="fill:#fff"></path><path d="M316.19,401.63a2.6,2.6,0,0,1-2.6-2.59V387.36a.5.5,0,0,1,.5-.5h4.19a.5.5,0,0,1,.5.5V399A2.59,2.59,0,0,1,316.19,401.63Zm-1.6-13.77V399a1.6,1.6,0,0,0,3.19,0V387.86Z"></path><ellipse cx="316.02" cy="386.29" rx="9.44" ry="6.21" style="fill:#fff"></ellipse><path d="M316,393c-5.48,0-9.93-3-9.93-6.7,0-2.43.52-4.13,1.59-5.19,1.61-1.59,4.14-1.57,7.07-1.53,1,0,2,0,3,0,2.72-.06,5.07-.11,6.6,1.38,1.1,1.07,1.61,2.77,1.61,5.36C326,390,321.5,393,316,393Zm-2.44-12.43c-2.21,0-4.08.14-5.19,1.25-.88.86-1.3,2.33-1.3,4.48,0,3.14,4,5.7,8.93,5.7s8.94-2.56,8.94-5.7c0-2.27-.43-3.79-1.31-4.65-1.22-1.2-3.38-1.14-5.88-1.09-1,0-2,0-3,0Z"></path><ellipse cx="316.02" cy="383.83" rx="9.44" ry="6.21" style="fill:#fff"></ellipse><path d="M316,390.54c-5.48,0-9.93-3-9.93-6.71s4.45-6.71,9.93-6.71,9.94,3,9.94,6.71S321.5,390.54,316,390.54Zm0-12.42c-4.93,0-8.93,2.56-8.93,5.71s4,5.71,8.93,5.71S325,387,325,383.83,321,378.12,316,378.12Z"></path><path d="M339.84,401.13h0a2.09,2.09,0,0,1-2.09-2.09V387.36h4.19V399A2.1,2.1,0,0,1,339.84,401.13Z" style="fill:#fff"></path><path d="M339.84,401.63a2.59,2.59,0,0,1-2.59-2.59V387.36a.5.5,0,0,1,.5-.5h4.19a.5.5,0,0,1,.5.5V399A2.6,2.6,0,0,1,339.84,401.63Zm-1.59-13.77V399a1.6,1.6,0,0,0,3.19,0V387.86Z"></path><ellipse cx="339.68" cy="386.29" rx="9.44" ry="6.21" style="fill:#fff"></ellipse><path d="M339.68,393c-5.48,0-9.94-3-9.94-6.7,0-2.43.52-4.13,1.6-5.19,1.6-1.59,4.13-1.57,7.07-1.53,1,0,2,0,3,0,2.72-.06,5.08-.11,6.61,1.38,1.09,1.07,1.6,2.77,1.6,5.36C349.61,390,345.15,393,339.68,393Zm-2.45-12.43c-2.21,0-4.07.14-5.19,1.25-.87.86-1.3,2.33-1.3,4.48,0,3.14,4,5.7,8.94,5.7s8.93-2.56,8.93-5.7c0-2.27-.43-3.79-1.3-4.65-1.23-1.2-3.39-1.14-5.88-1.09-1,0-2,0-3,0Z"></path><ellipse cx="339.68" cy="383.83" rx="9.44" ry="6.21" style="fill:#fff"></ellipse><path d="M339.68,390.54c-5.48,0-9.94-3-9.94-6.71s4.46-6.71,9.94-6.71,9.93,3,9.93,6.71S345.15,390.54,339.68,390.54Zm0-12.42c-4.93,0-8.94,2.56-8.94,5.71s4,5.71,8.94,5.71,8.93-2.56,8.93-5.71S344.6,378.12,339.68,378.12Z"></path><path d="M363.5,401.13h0a2.1,2.1,0,0,1-2.1-2.09V387.36h4.19V399A2.1,2.1,0,0,1,363.5,401.13Z" style="fill:#fff"></path><path d="M363.5,401.63a2.59,2.59,0,0,1-2.6-2.59V387.36a.5.5,0,0,1,.5-.5h4.19a.5.5,0,0,1,.5.5V399A2.59,2.59,0,0,1,363.5,401.63Zm-1.6-13.77V399a1.6,1.6,0,0,0,3.19,0V387.86Z"></path><ellipse cx="363.33" cy="386.29" rx="9.44" ry="6.21" style="fill:#fff"></ellipse><path d="M363.33,393c-5.48,0-9.94-3-9.94-6.7,0-2.43.53-4.13,1.6-5.19,1.6-1.59,4.13-1.57,7.07-1.53,1,0,2,0,3,0,2.72-.06,5.07-.11,6.6,1.38,1.1,1.07,1.61,2.77,1.61,5.36C373.27,390,368.81,393,363.33,393Zm-2.44-12.43c-2.21,0-4.08.14-5.2,1.25-.87.86-1.3,2.33-1.3,4.48,0,3.14,4,5.7,8.94,5.7s8.94-2.56,8.94-5.7c0-2.27-.43-3.79-1.31-4.65-1.23-1.2-3.38-1.14-5.88-1.09-1,0-2,0-3,0Z"></path><ellipse cx="363.33" cy="383.83" rx="9.44" ry="6.21" style="fill:#fff"></ellipse><path d="M363.33,390.54c-5.48,0-9.94-3-9.94-6.71s4.46-6.71,9.94-6.71,9.94,3,9.94,6.71S368.81,390.54,363.33,390.54Zm0-12.42c-4.93,0-8.94,2.56-8.94,5.71s4,5.71,8.94,5.71,8.94-2.56,8.94-5.71S368.26,378.12,363.33,378.12Z"></path><path d="M386.86,401.13h0a2.1,2.1,0,0,1-2.1-2.09V387.36H389V399A2.09,2.09,0,0,1,386.86,401.13Z" style="fill:#fff"></path><path d="M386.86,401.63a2.6,2.6,0,0,1-2.6-2.59V387.36a.5.5,0,0,1,.5-.5H389a.5.5,0,0,1,.5.5V399A2.59,2.59,0,0,1,386.86,401.63Zm-1.6-13.77V399a1.6,1.6,0,0,0,3.19,0V387.86Z"></path><ellipse cx="386.69" cy="386.29" rx="9.44" ry="6.21" style="fill:#fff"></ellipse><path d="M386.69,393c-5.48,0-9.93-3-9.93-6.7,0-2.43.52-4.13,1.59-5.19,1.61-1.59,4.14-1.57,7.07-1.53,1,0,2,0,3,0,2.72-.06,5.07-.11,6.6,1.38,1.1,1.07,1.61,2.77,1.61,5.36C396.63,390,392.17,393,386.69,393Zm-2.44-12.43c-2.21,0-4.08.14-5.19,1.25-.88.86-1.3,2.33-1.3,4.48,0,3.14,4,5.7,8.93,5.7s8.94-2.56,8.94-5.7c0-2.27-.43-3.79-1.31-4.65-1.22-1.2-3.38-1.14-5.88-1.09-1,0-2,0-3,0Z"></path><ellipse cx="386.69" cy="383.83" rx="9.44" ry="6.21" style="fill:#fff"></ellipse><path d="M386.69,390.54c-5.48,0-9.93-3-9.93-6.71s4.45-6.71,9.93-6.71,9.94,3,9.94,6.71S392.17,390.54,386.69,390.54Zm0-12.42c-4.93,0-8.93,2.56-8.93,5.71s4,5.71,8.93,5.71,8.94-2.56,8.94-5.71S391.62,378.12,386.69,378.12Z"></path><path d="M410.22,401.13h0a2.1,2.1,0,0,1-2.1-2.09V387.36h4.2V399A2.1,2.1,0,0,1,410.22,401.13Z" style="fill:#fff"></path><path d="M410.22,401.63a2.6,2.6,0,0,1-2.6-2.59V387.36a.5.5,0,0,1,.5-.5h4.2a.5.5,0,0,1,.5.5V399A2.6,2.6,0,0,1,410.22,401.63Zm-1.6-13.77V399a1.6,1.6,0,0,0,3.2,0V387.86Z"></path><ellipse cx="410.05" cy="386.29" rx="9.44" ry="6.21" style="fill:#fff"></ellipse><path d="M410.05,393c-5.47,0-9.93-3-9.93-6.7,0-2.43.52-4.13,1.59-5.19,1.61-1.59,4.14-1.57,7.07-1.53,1,0,2,0,3,0,2.73-.06,5.08-.11,6.6,1.38,1.1,1.07,1.61,2.77,1.61,5.36C420,390,415.53,393,410.05,393Zm-2.44-12.43c-2.21,0-4.08.14-5.19,1.25-.88.86-1.3,2.33-1.3,4.48,0,3.14,4,5.7,8.93,5.7s8.94-2.56,8.94-5.7c0-2.27-.43-3.79-1.31-4.65-1.22-1.2-3.38-1.14-5.88-1.09-1,0-2,0-3,0Z"></path><ellipse cx="410.05" cy="383.83" rx="9.44" ry="6.21" style="fill:#fff"></ellipse><path d="M410.05,390.54c-5.47,0-9.93-3-9.93-6.71s4.46-6.71,9.93-6.71,9.94,3,9.94,6.71S415.53,390.54,410.05,390.54Zm0-12.42c-4.92,0-8.93,2.56-8.93,5.71s4,5.71,8.93,5.71S419,387,419,383.83,415,378.12,410.05,378.12Z"></path><path d="M103.3,423.79h0a2.09,2.09,0,0,1-2.09-2.09V410h4.19V421.7A2.09,2.09,0,0,1,103.3,423.79Z" style="fill:#fff"></path><path d="M103.3,424.29a2.59,2.59,0,0,1-2.59-2.59V410a.5.5,0,0,1,.5-.5h4.19a.5.5,0,0,1,.5.5V421.7A2.6,2.6,0,0,1,103.3,424.29Zm-1.59-13.77V421.7a1.6,1.6,0,0,0,3.19,0V410.52Z"></path><ellipse cx="103.14" cy="408.95" rx="9.44" ry="6.21" style="fill:#fff"></ellipse><path d="M103.14,415.65c-5.48,0-9.94-3-9.94-6.7,0-2.43.52-4.13,1.6-5.19,1.6-1.59,4.13-1.57,7.07-1.53,1,0,2,0,3,0,2.71-.06,5.07-.11,6.6,1.38,1.09,1.07,1.6,2.77,1.6,5.36C113.07,412.65,108.62,415.65,103.14,415.65Zm-2.45-12.43c-2.2,0-4.07.14-5.19,1.25-.87.86-1.3,2.33-1.3,4.48,0,3.14,4,5.7,8.94,5.7s8.93-2.56,8.93-5.7c0-2.27-.42-3.79-1.3-4.65-1.23-1.19-3.38-1.14-5.88-1.09-1,0-2,0-3,0Z"></path><ellipse cx="103.14" cy="406.49" rx="9.44" ry="6.21" style="fill:#fff"></ellipse><path d="M103.14,413.2c-5.48,0-9.94-3-9.94-6.71s4.46-6.71,9.94-6.71,9.93,3,9.93,6.71S108.62,413.2,103.14,413.2Zm0-12.42c-4.93,0-8.94,2.56-8.94,5.71s4,5.71,8.94,5.71,8.93-2.56,8.93-5.71S108.07,400.78,103.14,400.78Z"></path><path d="M80.06,423.79h0A2.08,2.08,0,0,1,78,421.7V410h4.19V421.7A2.09,2.09,0,0,1,80.06,423.79Z" style="fill:#fff"></path><path d="M80.06,424.29a2.59,2.59,0,0,1-2.59-2.59V410a.5.5,0,0,1,.5-.5h4.19a.5.5,0,0,1,.5.5V421.7A2.6,2.6,0,0,1,80.06,424.29Zm-1.59-13.77V421.7a1.6,1.6,0,0,0,3.19,0V410.52Z"></path><ellipse cx="79.9" cy="408.95" rx="9.44" ry="6.21" style="fill:#fff"></ellipse><path d="M79.9,415.65c-5.48,0-9.94-3-9.94-6.7,0-2.43.52-4.13,1.6-5.19,1.6-1.59,4.13-1.57,7.07-1.53,1,0,2,0,3,0,2.73-.06,5.08-.11,6.61,1.38,1.09,1.07,1.6,2.77,1.6,5.36C89.83,412.65,85.37,415.65,79.9,415.65Zm-2.45-12.43c-2.21,0-4.07.14-5.19,1.25-.88.86-1.3,2.33-1.3,4.48,0,3.14,4,5.7,8.94,5.7s8.93-2.56,8.93-5.7c0-2.27-.43-3.79-1.3-4.65-1.23-1.19-3.38-1.14-5.88-1.09-1,0-2,0-3,0Z"></path><ellipse cx="79.9" cy="406.49" rx="9.44" ry="6.21" style="fill:#fff"></ellipse><path d="M79.9,413.2c-5.48,0-9.94-3-9.94-6.71s4.46-6.71,9.94-6.71,9.93,3,9.93,6.71S85.37,413.2,79.9,413.2Zm0-12.42c-4.93,0-8.94,2.56-8.94,5.71s4,5.71,8.94,5.71,8.93-2.56,8.93-5.71S84.82,400.78,79.9,400.78Z"></path><path d="M127,423.79h0a2.09,2.09,0,0,1-2.1-2.09V410h4.19V421.7A2.08,2.08,0,0,1,127,423.79Z" style="fill:#fff"></path><path d="M127,424.29a2.6,2.6,0,0,1-2.6-2.59V410a.5.5,0,0,1,.5-.5h4.19a.5.5,0,0,1,.5.5V421.7A2.59,2.59,0,0,1,127,424.29Zm-1.6-13.77V421.7a1.6,1.6,0,0,0,3.19,0V410.52Z"></path><ellipse cx="126.79" cy="408.95" rx="9.44" ry="6.21" style="fill:#fff"></ellipse><path d="M126.79,415.65c-5.48,0-9.93-3-9.93-6.7,0-2.43.52-4.13,1.59-5.19,1.61-1.59,4.14-1.57,7.07-1.53,1,0,2,0,3,0,2.72-.06,5.07-.11,6.6,1.38,1.1,1.07,1.61,2.77,1.61,5.36C136.73,412.65,132.27,415.65,126.79,415.65Zm-2.44-12.43c-2.21,0-4.08.14-5.19,1.25-.88.86-1.3,2.33-1.3,4.48,0,3.14,4,5.7,8.93,5.7s8.94-2.56,8.94-5.7c0-2.27-.43-3.79-1.31-4.65-1.22-1.19-3.38-1.14-5.88-1.09-1,0-2,0-3,0Z"></path><ellipse cx="126.79" cy="406.49" rx="9.44" ry="6.21" style="fill:#fff"></ellipse><path d="M126.79,413.2c-5.48,0-9.93-3-9.93-6.71s4.45-6.71,9.93-6.71,9.94,3,9.94,6.71S132.27,413.2,126.79,413.2Zm0-12.42c-4.93,0-8.93,2.56-8.93,5.71s4,5.71,8.93,5.71,8.94-2.56,8.94-5.71S131.72,400.78,126.79,400.78Z"></path><path d="M150.61,423.79h0a2.08,2.08,0,0,1-2.09-2.09V410h4.19V421.7A2.09,2.09,0,0,1,150.61,423.79Z" style="fill:#fff"></path><path d="M150.61,424.29A2.59,2.59,0,0,1,148,421.7V410a.5.5,0,0,1,.5-.5h4.19a.5.5,0,0,1,.5.5V421.7A2.6,2.6,0,0,1,150.61,424.29ZM149,410.52V421.7a1.6,1.6,0,0,0,3.19,0V410.52Z"></path><ellipse cx="150.45" cy="408.95" rx="9.44" ry="6.21" style="fill:#fff"></ellipse><path d="M150.45,415.65c-5.48,0-9.94-3-9.94-6.7,0-2.43.52-4.13,1.6-5.19,1.6-1.59,4.13-1.57,7.07-1.53,1,0,2,0,3,0,2.72-.06,5.08-.11,6.61,1.38,1.09,1.07,1.6,2.77,1.6,5.36C160.38,412.65,155.92,415.65,150.45,415.65ZM148,403.22c-2.21,0-4.07.14-5.19,1.25-.88.86-1.3,2.33-1.3,4.48,0,3.14,4,5.7,8.94,5.7s8.93-2.56,8.93-5.7c0-2.27-.43-3.79-1.3-4.65-1.23-1.19-3.39-1.14-5.88-1.09-1,0-2,0-3,0Z"></path><ellipse cx="150.45" cy="406.49" rx="9.44" ry="6.21" style="fill:#fff"></ellipse><path d="M150.45,413.2c-5.48,0-9.94-3-9.94-6.71s4.46-6.71,9.94-6.71,9.93,3,9.93,6.71S155.92,413.2,150.45,413.2Zm0-12.42c-4.93,0-8.94,2.56-8.94,5.71s4,5.71,8.94,5.71,8.93-2.56,8.93-5.71S155.37,400.78,150.45,400.78Z"></path><path d="M174.27,423.79h0a2.09,2.09,0,0,1-2.1-2.09V410h4.19V421.7A2.09,2.09,0,0,1,174.27,423.79Z" style="fill:#fff"></path><path d="M174.27,424.29a2.59,2.59,0,0,1-2.6-2.59V410a.5.5,0,0,1,.5-.5h4.19a.5.5,0,0,1,.5.5V421.7A2.59,2.59,0,0,1,174.27,424.29Zm-1.6-13.77V421.7a1.6,1.6,0,0,0,3.19,0V410.52Z"></path><ellipse cx="174.1" cy="408.95" rx="9.44" ry="6.21" style="fill:#fff"></ellipse><path d="M174.1,415.65c-5.48,0-9.94-3-9.94-6.7,0-2.43.53-4.13,1.6-5.19,1.6-1.59,4.14-1.57,7.07-1.53,1,0,2,0,3,0,2.72-.06,5.07-.11,6.6,1.38,1.1,1.07,1.61,2.77,1.61,5.36C184,412.65,179.58,415.65,174.1,415.65Zm-2.44-12.43c-2.21,0-4.08.14-5.2,1.25-.87.86-1.3,2.33-1.3,4.48,0,3.14,4,5.7,8.94,5.7S183,412.09,183,409c0-2.27-.43-3.79-1.31-4.65-1.22-1.19-3.38-1.14-5.88-1.09-1,0-2,0-3,0Z"></path><ellipse cx="174.1" cy="406.49" rx="9.44" ry="6.21" style="fill:#fff"></ellipse><path d="M174.1,413.2c-5.48,0-9.94-3-9.94-6.71s4.46-6.71,9.94-6.71,9.94,3,9.94,6.71S179.58,413.2,174.1,413.2Zm0-12.42c-4.93,0-8.94,2.56-8.94,5.71s4,5.71,8.94,5.71,8.94-2.56,8.94-5.71S179,400.78,174.1,400.78Z"></path><path d="M197.92,423.79h0a2.09,2.09,0,0,1-2.1-2.09V410H200V421.7A2.08,2.08,0,0,1,197.92,423.79Z" style="fill:#fff"></path><path d="M197.92,424.29a2.6,2.6,0,0,1-2.6-2.59V410a.5.5,0,0,1,.5-.5H200a.5.5,0,0,1,.5.5V421.7A2.59,2.59,0,0,1,197.92,424.29Zm-1.6-13.77V421.7a1.6,1.6,0,0,0,3.19,0V410.52Z"></path><ellipse cx="197.75" cy="408.95" rx="9.44" ry="6.21" style="fill:#fff"></ellipse><path d="M197.75,415.65c-5.48,0-9.93-3-9.93-6.7,0-2.43.52-4.13,1.59-5.19,1.61-1.59,4.14-1.57,7.07-1.53,1,0,2,0,3,0,2.72-.06,5.08-.11,6.6,1.38,1.1,1.07,1.61,2.77,1.61,5.36C207.69,412.65,203.23,415.65,197.75,415.65Zm-2.44-12.43c-2.21,0-4.08.14-5.19,1.25-.88.86-1.3,2.33-1.3,4.48,0,3.14,4,5.7,8.93,5.7s8.94-2.56,8.94-5.7c0-2.27-.43-3.79-1.31-4.65-1.22-1.19-3.38-1.14-5.88-1.09-1,0-2,0-3,0Z"></path><ellipse cx="197.75" cy="406.49" rx="9.44" ry="6.21" style="fill:#fff"></ellipse><path d="M197.75,413.2c-5.48,0-9.93-3-9.93-6.71s4.45-6.71,9.93-6.71,9.94,3,9.94,6.71S203.23,413.2,197.75,413.2Zm0-12.42c-4.92,0-8.93,2.56-8.93,5.71s4,5.71,8.93,5.71,8.94-2.56,8.94-5.71S202.68,400.78,197.75,400.78Z"></path><path d="M221.57,423.79h0a2.09,2.09,0,0,1-2.09-2.09V410h4.19V421.7A2.09,2.09,0,0,1,221.57,423.79Z" style="fill:#fff"></path><path d="M221.57,424.29A2.59,2.59,0,0,1,219,421.7V410a.5.5,0,0,1,.5-.5h4.19a.5.5,0,0,1,.5.5V421.7A2.6,2.6,0,0,1,221.57,424.29ZM220,410.52V421.7a1.6,1.6,0,0,0,3.19,0V410.52Z"></path><ellipse cx="221.41" cy="408.95" rx="9.44" ry="6.21" style="fill:#fff"></ellipse><path d="M221.41,415.65c-5.48,0-9.94-3-9.94-6.7,0-2.43.52-4.13,1.6-5.19,1.6-1.59,4.13-1.57,7.07-1.53,1,0,2,0,3,0,2.73-.06,5.08-.11,6.61,1.38,1.09,1.07,1.6,2.77,1.6,5.36C231.34,412.65,226.89,415.65,221.41,415.65ZM219,403.22c-2.2,0-4.07.14-5.19,1.25-.87.86-1.3,2.33-1.3,4.48,0,3.14,4,5.7,8.94,5.7s8.93-2.56,8.93-5.7c0-2.27-.42-3.79-1.3-4.65-1.23-1.19-3.39-1.14-5.88-1.09-1,0-2,0-3,0Z"></path><ellipse cx="221.41" cy="406.49" rx="9.44" ry="6.21" style="fill:#fff"></ellipse><path d="M221.41,413.2c-5.48,0-9.94-3-9.94-6.71s4.46-6.71,9.94-6.71,9.93,3,9.93,6.71S226.89,413.2,221.41,413.2Zm0-12.42c-4.93,0-8.94,2.56-8.94,5.71s4,5.71,8.94,5.71,8.93-2.56,8.93-5.71S226.33,400.78,221.41,400.78Z"></path><path d="M245.23,423.79h0a2.09,2.09,0,0,1-2.1-2.09V410h4.19V421.7A2.09,2.09,0,0,1,245.23,423.79Z" style="fill:#fff"></path><path d="M245.23,424.29a2.6,2.6,0,0,1-2.6-2.59V410a.5.5,0,0,1,.5-.5h4.19a.5.5,0,0,1,.5.5V421.7A2.59,2.59,0,0,1,245.23,424.29Zm-1.6-13.77V421.7a1.6,1.6,0,0,0,3.19,0V410.52Z"></path><ellipse cx="245.06" cy="408.95" rx="9.44" ry="6.21" style="fill:#fff"></ellipse><path d="M245.06,415.65c-5.48,0-9.93-3-9.93-6.7,0-2.43.52-4.13,1.59-5.19,1.6-1.59,4.13-1.57,7.07-1.53,1,0,2,0,3,0,2.72-.06,5.07-.11,6.6,1.38,1.1,1.07,1.61,2.77,1.61,5.36C255,412.65,250.54,415.65,245.06,415.65Zm-2.44-12.43c-2.21,0-4.08.14-5.2,1.25-.87.86-1.29,2.33-1.29,4.48,0,3.14,4,5.7,8.93,5.7S254,412.09,254,409c0-2.27-.43-3.79-1.31-4.65-1.22-1.19-3.38-1.14-5.88-1.09-1,0-2,0-3,0Z"></path><ellipse cx="245.06" cy="406.49" rx="9.44" ry="6.21" style="fill:#fff"></ellipse><path d="M245.06,413.2c-5.48,0-9.93-3-9.93-6.71s4.45-6.71,9.93-6.71,9.94,3,9.94,6.71S250.54,413.2,245.06,413.2Zm0-12.42c-4.93,0-8.93,2.56-8.93,5.71s4,5.71,8.93,5.71,8.94-2.56,8.94-5.71S250,400.78,245.06,400.78Z"></path><path d="M268.88,423.79h0a2.09,2.09,0,0,1-2.1-2.09V410H271V421.7A2.09,2.09,0,0,1,268.88,423.79Z" style="fill:#fff"></path><path d="M268.88,424.29a2.6,2.6,0,0,1-2.6-2.59V410a.5.5,0,0,1,.5-.5H271a.5.5,0,0,1,.5.5V421.7A2.6,2.6,0,0,1,268.88,424.29Zm-1.6-13.77V421.7a1.6,1.6,0,0,0,3.2,0V410.52Z"></path><ellipse cx="268.71" cy="408.95" rx="9.44" ry="6.21" style="fill:#fff"></ellipse><path d="M268.71,415.65c-5.47,0-9.93-3-9.93-6.7,0-2.43.52-4.13,1.6-5.19,1.6-1.59,4.13-1.57,7.06-1.53,1,0,2,0,3,0,2.72-.06,5.08-.11,6.6,1.38,1.1,1.07,1.61,2.77,1.61,5.36C278.65,412.65,274.19,415.65,268.71,415.65Zm-2.44-12.43c-2.21,0-4.08.14-5.19,1.25-.88.86-1.3,2.33-1.3,4.48,0,3.14,4,5.7,8.93,5.7s8.94-2.56,8.94-5.7c0-2.27-.43-3.79-1.3-4.65-1.23-1.19-3.39-1.14-5.88-1.09-1,0-2,0-3,0Z"></path><ellipse cx="268.71" cy="406.49" rx="9.44" ry="6.21" style="fill:#fff"></ellipse><path d="M268.71,413.2c-5.47,0-9.93-3-9.93-6.71s4.46-6.71,9.93-6.71,9.94,3,9.94,6.71S274.19,413.2,268.71,413.2Zm0-12.42c-4.92,0-8.93,2.56-8.93,5.71s4,5.71,8.93,5.71,8.94-2.56,8.94-5.71S273.64,400.78,268.71,400.78Z"></path><path d="M290.44,410h4.19a0,0,0,0,1,0,0V421.7a2.1,2.1,0,0,1-2.1,2.1h0a2.1,2.1,0,0,1-2.1-2.1V410A0,0,0,0,1,290.44,410Z" style="fill:#fff"></path><path d="M292.53,424.29a2.59,2.59,0,0,1-2.59-2.59V410a.5.5,0,0,1,.5-.5h4.19a.5.5,0,0,1,.5.5V421.7A2.59,2.59,0,0,1,292.53,424.29Zm-1.59-13.77V421.7a1.6,1.6,0,0,0,3.19,0V410.52Z"></path><ellipse cx="292.37" cy="408.95" rx="9.44" ry="6.21" style="fill:#fff"></ellipse><path d="M292.37,415.65c-5.48,0-9.94-3-9.94-6.7,0-2.43.52-4.13,1.6-5.19,1.6-1.59,4.13-1.57,7.07-1.53,1,0,2,0,3,0,2.72-.06,5.07-.11,6.6,1.38,1.09,1.07,1.6,2.77,1.6,5.36C302.3,412.65,297.85,415.65,292.37,415.65Zm-2.45-12.43c-2.2,0-4.07.14-5.19,1.25-.87.86-1.3,2.33-1.3,4.48,0,3.14,4,5.7,8.94,5.7s8.93-2.56,8.93-5.7c0-2.27-.42-3.79-1.3-4.65-1.23-1.19-3.38-1.14-5.88-1.09-1,0-2,0-3,0Z"></path><ellipse cx="292.37" cy="406.49" rx="9.44" ry="6.21" style="fill:#fff"></ellipse><path d="M292.37,413.2c-5.48,0-9.94-3-9.94-6.71s4.46-6.71,9.94-6.71,9.93,3,9.93,6.71S297.85,413.2,292.37,413.2Zm0-12.42c-4.93,0-8.94,2.56-8.94,5.71s4,5.71,8.94,5.71,8.93-2.56,8.93-5.71S297.3,400.78,292.37,400.78Z"></path><path d="M316.19,423.79h0a2.09,2.09,0,0,1-2.1-2.09V410h4.19V421.7A2.08,2.08,0,0,1,316.19,423.79Z" style="fill:#fff"></path><path d="M316.19,424.29a2.6,2.6,0,0,1-2.6-2.59V410a.5.5,0,0,1,.5-.5h4.19a.5.5,0,0,1,.5.5V421.7A2.59,2.59,0,0,1,316.19,424.29Zm-1.6-13.77V421.7a1.6,1.6,0,0,0,3.19,0V410.52Z"></path><ellipse cx="316.02" cy="408.95" rx="9.44" ry="6.21" style="fill:#fff"></ellipse><path d="M316,415.65c-5.48,0-9.93-3-9.93-6.7,0-2.43.52-4.13,1.59-5.19,1.61-1.59,4.14-1.57,7.07-1.53,1,0,2,0,3,0,2.72-.06,5.07-.11,6.6,1.38,1.1,1.07,1.61,2.77,1.61,5.36C326,412.65,321.5,415.65,316,415.65Zm-2.44-12.43c-2.21,0-4.08.14-5.19,1.25-.88.86-1.3,2.33-1.3,4.48,0,3.14,4,5.7,8.93,5.7S325,412.09,325,409c0-2.27-.43-3.79-1.31-4.65-1.22-1.19-3.38-1.14-5.88-1.09-1,0-2,0-3,0Z"></path><ellipse cx="316.02" cy="406.49" rx="9.44" ry="6.21" style="fill:#fff"></ellipse><path d="M316,413.2c-5.48,0-9.93-3-9.93-6.71s4.45-6.71,9.93-6.71,9.94,3,9.94,6.71S321.5,413.2,316,413.2Zm0-12.42c-4.93,0-8.93,2.56-8.93,5.71s4,5.71,8.93,5.71,8.94-2.56,8.94-5.71S321,400.78,316,400.78Z"></path><path d="M339.84,423.79h0a2.08,2.08,0,0,1-2.09-2.09V410h4.19V421.7A2.09,2.09,0,0,1,339.84,423.79Z" style="fill:#fff"></path><path d="M339.84,424.29a2.59,2.59,0,0,1-2.59-2.59V410a.5.5,0,0,1,.5-.5h4.19a.5.5,0,0,1,.5.5V421.7A2.6,2.6,0,0,1,339.84,424.29Zm-1.59-13.77V421.7a1.6,1.6,0,0,0,3.19,0V410.52Z"></path><ellipse cx="339.68" cy="408.95" rx="9.44" ry="6.21" style="fill:#fff"></ellipse><path d="M339.68,415.65c-5.48,0-9.94-3-9.94-6.7,0-2.43.52-4.13,1.6-5.19,1.6-1.59,4.13-1.57,7.07-1.53,1,0,2,0,3,0,2.72-.06,5.08-.11,6.61,1.38,1.09,1.07,1.6,2.77,1.6,5.36C349.61,412.65,345.15,415.65,339.68,415.65Zm-2.45-12.43c-2.21,0-4.07.14-5.19,1.25-.87.86-1.3,2.33-1.3,4.48,0,3.14,4,5.7,8.94,5.7s8.93-2.56,8.93-5.7c0-2.27-.43-3.79-1.3-4.65-1.23-1.19-3.39-1.14-5.88-1.09-1,0-2,0-3,0Z"></path><ellipse cx="339.68" cy="406.49" rx="9.44" ry="6.21" style="fill:#fff"></ellipse><path d="M339.68,413.2c-5.48,0-9.94-3-9.94-6.71s4.46-6.71,9.94-6.71,9.93,3,9.93,6.71S345.15,413.2,339.68,413.2Zm0-12.42c-4.93,0-8.94,2.56-8.94,5.71s4,5.71,8.94,5.71,8.93-2.56,8.93-5.71S344.6,400.78,339.68,400.78Z"></path><path d="M363.5,423.79h0a2.09,2.09,0,0,1-2.1-2.09V410h4.19V421.7A2.09,2.09,0,0,1,363.5,423.79Z" style="fill:#fff"></path><path d="M363.5,424.29a2.59,2.59,0,0,1-2.6-2.59V410a.5.5,0,0,1,.5-.5h4.19a.5.5,0,0,1,.5.5V421.7A2.59,2.59,0,0,1,363.5,424.29Zm-1.6-13.77V421.7a1.6,1.6,0,0,0,3.19,0V410.52Z"></path><ellipse cx="363.33" cy="408.95" rx="9.44" ry="6.21" style="fill:#fff"></ellipse><path d="M363.33,415.65c-5.48,0-9.94-3-9.94-6.7,0-2.43.53-4.13,1.6-5.19,1.6-1.59,4.13-1.57,7.07-1.53,1,0,2,0,3,0,2.72-.06,5.07-.11,6.6,1.38,1.1,1.07,1.61,2.77,1.61,5.36C373.27,412.65,368.81,415.65,363.33,415.65Zm-2.44-12.43c-2.21,0-4.08.14-5.2,1.25-.87.86-1.3,2.33-1.3,4.48,0,3.14,4,5.7,8.94,5.7s8.94-2.56,8.94-5.7c0-2.27-.43-3.79-1.31-4.65-1.23-1.19-3.38-1.14-5.88-1.09-1,0-2,0-3,0Z"></path><ellipse cx="363.33" cy="406.49" rx="9.44" ry="6.21" style="fill:#fff"></ellipse><path d="M363.33,413.2c-5.48,0-9.94-3-9.94-6.71s4.46-6.71,9.94-6.71,9.94,3,9.94,6.71S368.81,413.2,363.33,413.2Zm0-12.42c-4.93,0-8.94,2.56-8.94,5.71s4,5.71,8.94,5.71,8.94-2.56,8.94-5.71S368.26,400.78,363.33,400.78Z"></path><path d="M386.86,423.79h0a2.09,2.09,0,0,1-2.1-2.09V410H389V421.7A2.08,2.08,0,0,1,386.86,423.79Z" style="fill:#fff"></path><path d="M386.86,424.29a2.6,2.6,0,0,1-2.6-2.59V410a.5.5,0,0,1,.5-.5H389a.5.5,0,0,1,.5.5V421.7A2.59,2.59,0,0,1,386.86,424.29Zm-1.6-13.77V421.7a1.6,1.6,0,0,0,3.19,0V410.52Z"></path><ellipse cx="386.69" cy="408.95" rx="9.44" ry="6.21" style="fill:#fff"></ellipse><path d="M386.69,415.65c-5.48,0-9.93-3-9.93-6.7,0-2.43.52-4.13,1.59-5.19,1.61-1.59,4.14-1.57,7.07-1.53,1,0,2,0,3,0,2.72-.06,5.07-.11,6.6,1.38,1.1,1.07,1.61,2.77,1.61,5.36C396.63,412.65,392.17,415.65,386.69,415.65Zm-2.44-12.43c-2.21,0-4.08.14-5.19,1.25-.88.86-1.3,2.33-1.3,4.48,0,3.14,4,5.7,8.93,5.7s8.94-2.56,8.94-5.7c0-2.27-.43-3.79-1.31-4.65-1.22-1.19-3.38-1.14-5.88-1.09-1,0-2,0-3,0Z"></path><ellipse cx="386.69" cy="406.49" rx="9.44" ry="6.21" style="fill:#fff"></ellipse><path d="M386.69,413.2c-5.48,0-9.93-3-9.93-6.71s4.45-6.71,9.93-6.71,9.94,3,9.94,6.71S392.17,413.2,386.69,413.2Zm0-12.42c-4.93,0-8.93,2.56-8.93,5.71s4,5.71,8.93,5.71,8.94-2.56,8.94-5.71S391.62,400.78,386.69,400.78Z"></path><path d="M410.22,423.79h0a2.09,2.09,0,0,1-2.1-2.09V410h4.2V421.7A2.09,2.09,0,0,1,410.22,423.79Z" style="fill:#fff"></path><path d="M410.22,424.29a2.6,2.6,0,0,1-2.6-2.59V410a.5.5,0,0,1,.5-.5h4.2a.5.5,0,0,1,.5.5V421.7A2.6,2.6,0,0,1,410.22,424.29Zm-1.6-13.77V421.7a1.6,1.6,0,0,0,3.2,0V410.52Z"></path><ellipse cx="410.05" cy="408.95" rx="9.44" ry="6.21" style="fill:#fff"></ellipse><path d="M410.05,415.65c-5.47,0-9.93-3-9.93-6.7,0-2.43.52-4.13,1.59-5.19,1.61-1.59,4.14-1.57,7.07-1.53,1,0,2,0,3,0,2.73-.06,5.08-.11,6.6,1.38,1.1,1.07,1.61,2.77,1.61,5.36C420,412.65,415.53,415.65,410.05,415.65Zm-2.44-12.43c-2.21,0-4.08.14-5.19,1.25-.88.86-1.3,2.33-1.3,4.48,0,3.14,4,5.7,8.93,5.7S419,412.09,419,409c0-2.27-.43-3.79-1.31-4.65-1.22-1.19-3.38-1.14-5.88-1.09-1,0-2,0-3,0Z"></path><ellipse cx="410.05" cy="406.49" rx="9.44" ry="6.21" style="fill:#fff"></ellipse><path d="M410.05,413.2c-5.47,0-9.93-3-9.93-6.71s4.46-6.71,9.93-6.71,9.94,3,9.94,6.71S415.53,413.2,410.05,413.2Zm0-12.42c-4.92,0-8.93,2.56-8.93,5.71s4,5.71,8.93,5.71,8.94-2.56,8.94-5.71S415,400.78,410.05,400.78Z"></path><path d="M433,423.79h0a2.08,2.08,0,0,1-2.09-2.09V410h4.19V421.7A2.09,2.09,0,0,1,433,423.79Z" style="fill:#fff"></path><path d="M433,424.29a2.59,2.59,0,0,1-2.59-2.59V410a.5.5,0,0,1,.5-.5h4.19a.5.5,0,0,1,.5.5V421.7A2.6,2.6,0,0,1,433,424.29Zm-1.59-13.77V421.7a1.6,1.6,0,0,0,3.19,0V410.52Z"></path><ellipse cx="432.79" cy="408.95" rx="9.44" ry="6.21" style="fill:#fff"></ellipse><path d="M432.79,415.65c-5.48,0-9.94-3-9.94-6.7,0-2.43.52-4.13,1.6-5.19,1.6-1.59,4.13-1.57,7.07-1.53,1,0,2,0,3,0,2.72-.06,5.08-.11,6.61,1.38,1.09,1.07,1.6,2.77,1.6,5.36C442.72,412.65,438.26,415.65,432.79,415.65Zm-2.45-12.43c-2.21,0-4.07.14-5.19,1.25-.87.86-1.3,2.33-1.3,4.48,0,3.14,4,5.7,8.94,5.7s8.93-2.56,8.93-5.7c0-2.27-.42-3.79-1.3-4.65-1.23-1.19-3.39-1.14-5.88-1.09-1,0-2,0-3,0Z"></path><ellipse cx="432.79" cy="406.49" rx="9.44" ry="6.21" style="fill:#fff"></ellipse><path d="M432.79,413.2c-5.48,0-9.94-3-9.94-6.71s4.46-6.71,9.94-6.71,9.93,3,9.93,6.71S438.26,413.2,432.79,413.2Zm0-12.42c-4.93,0-8.94,2.56-8.94,5.71s4,5.71,8.94,5.71,8.93-2.56,8.93-5.71S437.71,400.78,432.79,400.78Z"></path><path d="M349,443H162.37a7.62,7.62,0,0,1-7.54-8.63h0a7.61,7.61,0,0,1,7.54-6.6H349a7.61,7.61,0,0,1,7.55,6.6h0A7.62,7.62,0,0,1,349,443Z" style="fill:#fff"></path><path d="M349,443.51H162.37a8.12,8.12,0,0,1,0-16.23H349a8.12,8.12,0,1,1,0,16.23ZM162.37,428.28a7.12,7.12,0,0,0,0,14.23H349a7.12,7.12,0,0,0,0-14.23Z"></path><path d="M349,439.49H162.37a7.61,7.61,0,0,1-7.54-8.62h0a7.62,7.62,0,0,1,7.54-6.61H349a7.62,7.62,0,0,1,7.55,6.61h0A7.61,7.61,0,0,1,349,439.49Z" style="fill:#fff"></path><path d="M349,440H162.37a8.12,8.12,0,0,1,0-16.23H349A8.12,8.12,0,1,1,349,440ZM162.37,424.76a7.12,7.12,0,0,0,0,14.23H349a7.12,7.12,0,0,0,0-14.23Z"></path></g></g><g id="freepik--Floor--inject-3"><path d="M738.6,467.2H15.46a.5.5,0,1,1,0-1H738.6a.5.5,0,0,1,0,1Z" style="fill:#263238"></path></g><g id="freepik--Letters--inject-3"><path d="M171.64,140.14l6.07-28.58h3.85l6.1,28.58h-3.78l-1.3-7.2h-5.82l-1.38,7.2Zm5.65-10h4.76l-2.4-12.88Z" style="fill:#b2b2b2"></path><path d="M353.62,139.35l-12.85-56,6.86-3.19,34.59,46-6.74,3.13-8.3-11.77-10.39,4.82,3.51,14Zm1.74-22.63,8.51-4-15-21Z" style="fill:#b2b2b2"></path><path d="M299,182.06a13.53,13.53,0,0,1-7.69-.52,12.23,12.23,0,0,1-5.42-4.4,22,22,0,0,1-3.2-7.42l6-2.87a28.64,28.64,0,0,0,1.82,5.06,9.6,9.6,0,0,0,2.94,3.72,5.58,5.58,0,0,0,4.52.82,5.45,5.45,0,0,0,3.9-2.32,6.4,6.4,0,0,0,.59-4.7,9.25,9.25,0,0,0-2.61-5.28,29.83,29.83,0,0,0-4.76-3.51l-10-6a14.6,14.6,0,0,1-4.61-4.12,15.85,15.85,0,0,1-2.4-6.24q-1-5.59,1.6-9.28t8.18-4.72a16.77,16.77,0,0,1,5.46-.2,9.56,9.56,0,0,1,4.3,1.71,12.11,12.11,0,0,1,3.22,3.67,23.39,23.39,0,0,1,2.31,5.59l-5.74,2.76a25.5,25.5,0,0,0-1.62-4.48,6.91,6.91,0,0,0-2.61-3,5.89,5.89,0,0,0-4.3-.54A5.83,5.83,0,0,0,285,138a5.63,5.63,0,0,0-.7,4.46,8.34,8.34,0,0,0,1.51,3.69,11.58,11.58,0,0,0,3.12,2.62l10,5.95a27.36,27.36,0,0,1,6.23,5.06,15.46,15.46,0,0,1,3.74,7.87,13.06,13.06,0,0,1-.36,6.81,10.77,10.77,0,0,1-3.54,5A13.52,13.52,0,0,1,299,182.06Z" style="fill:#b2b2b2"></path><path d="M319.09,181.33a3.34,3.34,0,0,1,1.55,2,2,2,0,0,1-1.59,2.43,1.82,1.82,0,0,1-1.38-.24,1.58,1.58,0,0,1-.75-1.09,2.5,2.5,0,0,1,.13-1.24,2.61,2.61,0,0,0,.19-.88.75.75,0,0,0-.55-.56,2.82,2.82,0,0,0-1.41,0q-3.37.63-5.14,4.93a14.81,14.81,0,0,0-1,8.5,6.17,6.17,0,0,0,1.69,3.52,3.6,3.6,0,0,0,3.27.78,6,6,0,0,0,2.95-1.51,12.49,12.49,0,0,0,2.35-2.9l.12-.19.69.35a15.91,15.91,0,0,1-2.29,3.39,9,9,0,0,1-5,2.73,6.13,6.13,0,0,1-4.87-1,6.77,6.77,0,0,1-2.64-4.56,12.57,12.57,0,0,1,2.24-9.46q3.09-4.69,7.55-5.52A5.08,5.08,0,0,1,319.09,181.33Z" style="fill:#b2b2b2"></path><path d="M275.84,82.82a3.31,3.31,0,0,1,1.55,2,2,2,0,0,1-.31,1.63,2,2,0,0,1-1.28.8,1.91,1.91,0,0,1-1.38-.24,1.59,1.59,0,0,1-.75-1.1,2.47,2.47,0,0,1,.13-1.23,2.4,2.4,0,0,0,.19-.88.74.74,0,0,0-.55-.56,2.82,2.82,0,0,0-1.41,0q-3.37.63-5.14,4.92a14.85,14.85,0,0,0-1,8.51,6.17,6.17,0,0,0,1.69,3.52,3.6,3.6,0,0,0,3.27.78,6.1,6.1,0,0,0,2.95-1.51,12.49,12.49,0,0,0,2.35-2.9l.12-.19.69.34a15.75,15.75,0,0,1-2.29,3.4,9.15,9.15,0,0,1-5,2.73,6.18,6.18,0,0,1-4.88-.95,6.82,6.82,0,0,1-2.64-4.56,12.59,12.59,0,0,1,2.24-9.47q3.09-4.68,7.55-5.51A5,5,0,0,1,275.84,82.82Z" style="fill:#b2b2b2"></path><path d="M193.1,122.55a38.6,38.6,0,0,1,6.32-2.81v-1.46a6.07,6.07,0,0,0-.34-2.45,2.45,2.45,0,0,0-2.43-1.15,3.32,3.32,0,0,0-1.67.45,1.41,1.41,0,0,0-.79,1.27,5.64,5.64,0,0,0,.08.7,4.86,4.86,0,0,1,.09.63,1.42,1.42,0,0,1-.64,1.34,1.6,1.6,0,0,1-.86.23,1.45,1.45,0,0,1-1.19-.51,1.79,1.79,0,0,1-.41-1.13,3.55,3.55,0,0,1,1.49-2.52,6.4,6.4,0,0,1,4.37-1.32q3.33,0,4.53,2.17a7.57,7.57,0,0,1,.63,3.46v6.91a4.65,4.65,0,0,0,.14,1.38.9.9,0,0,0,.93.67,1.56,1.56,0,0,0,.66-.12,6.71,6.71,0,0,0,.89-.59v.9a5.33,5.33,0,0,1-1.19,1.1,3.42,3.42,0,0,1-2,.66,1.94,1.94,0,0,1-1.7-.76,3.38,3.38,0,0,1-.57-1.81,16.75,16.75,0,0,1-2.24,1.69,5.89,5.89,0,0,1-3,.93,3.6,3.6,0,0,1-2.57-1,3.54,3.54,0,0,1-1.09-2.65A4.94,4.94,0,0,1,193.1,122.55Zm6.32-1.94a15.32,15.32,0,0,0-3.27,1.44c-1.65,1-2.48,2.19-2.48,3.48a2.64,2.64,0,0,0,1,2.31,2.53,2.53,0,0,0,1.5.48,4.14,4.14,0,0,0,2.18-.63,1.87,1.87,0,0,0,1-1.62Z" style="fill:#b2b2b2"></path><path d="M325.38,106.66a38.19,38.19,0,0,1,6.32-2.81v-1.46a6.07,6.07,0,0,0-.34-2.45,2.45,2.45,0,0,0-2.43-1.15,3.32,3.32,0,0,0-1.67.45,1.42,1.42,0,0,0-.8,1.27,4.51,4.51,0,0,0,.09.7,4.86,4.86,0,0,1,.09.63,1.44,1.44,0,0,1-.64,1.34,1.6,1.6,0,0,1-.86.23,1.45,1.45,0,0,1-1.19-.51,1.73,1.73,0,0,1-.41-1.13A3.55,3.55,0,0,1,325,99.25a6.38,6.38,0,0,1,4.36-1.32q3.35,0,4.53,2.17a7.43,7.43,0,0,1,.64,3.46v6.91a4.65,4.65,0,0,0,.14,1.38.9.9,0,0,0,.93.67,1.54,1.54,0,0,0,.65-.12,6,6,0,0,0,.9-.59v.9a5.56,5.56,0,0,1-1.19,1.1,3.44,3.44,0,0,1-2,.66,1.94,1.94,0,0,1-1.7-.76,3.47,3.47,0,0,1-.58-1.81,16.14,16.14,0,0,1-2.24,1.69,5.83,5.83,0,0,1-3,.93,3.59,3.59,0,0,1-2.56-1,3.51,3.51,0,0,1-1.09-2.65A4.91,4.91,0,0,1,325.38,106.66Zm6.32-1.94a15.32,15.32,0,0,0-3.27,1.44c-1.66,1-2.48,2.19-2.48,3.48a2.64,2.64,0,0,0,1,2.31,2.53,2.53,0,0,0,1.5.48,4.16,4.16,0,0,0,2.18-.63,1.87,1.87,0,0,0,1-1.62Z" style="fill:#b2b2b2"></path><path d="M155,104.91a3.29,3.29,0,0,1,.85,1.35l.12.33.52-1.76a1.85,1.85,0,0,1,.17-.4.46.46,0,0,1,.33-.13l2.68-.3c.14,0,.23,0,.25.08a.58.58,0,0,1,0,.29q-.1.3-.15.48c0,.12-.09.28-.15.5l-2.3,8.33c-.51,1.81-.93,3.38-1.28,4.7a36.22,36.22,0,0,0-.86,4.08.61.61,0,0,0,.17.47.64.64,0,0,0,.43.15.93.93,0,0,0,.47-.14,4.25,4.25,0,0,0,.62-.42l.42-.32.44-.39.59-.54,1.52-1.49.56.49a24.75,24.75,0,0,1-4,4.2,4.94,4.94,0,0,1-2.87,1.1,1.64,1.64,0,0,1-1.36-.6,2.35,2.35,0,0,1-.47-1.51,13,13,0,0,1,.31-2.4c.21-1,.41-1.93.62-2.64q-.42.7-1.41,2a16.69,16.69,0,0,1-2.43,2.6,11.4,11.4,0,0,1-3.25,2.14,7.08,7.08,0,0,1-2.32.42,4.72,4.72,0,0,1-3.42-1.55,6,6,0,0,1-1.53-4.39q0-4.89,4.42-10.21,4.56-5.52,9.46-5.52A4,4,0,0,1,155,104.91Zm-.75.88a2.56,2.56,0,0,0-1.88-.79q-3.84,0-7.13,5.83c-1.93,3.41-2.89,6.36-2.89,8.83a3.88,3.88,0,0,0,.8,2.71,2.62,2.62,0,0,0,2,.85c2.33,0,4.59-1.89,6.75-5.66q3.13-5.15,3.14-9.3A3.4,3.4,0,0,0,154.25,105.79Z" style="fill:#b2b2b2"></path><path d="M191.77,163.94q7.51-7.89,15.52-7.89a7.42,7.42,0,0,1,4.7,1.37,4.81,4.81,0,0,1,1.75,4.05q0,5.44-6.39,9.33a33.65,33.65,0,0,1-13.45,4.75l-2.16.27c-.33,1-.56,1.86-.69,2.48a12.53,12.53,0,0,0-.19,2.34,6.46,6.46,0,0,0,2.18,5.19,7.73,7.73,0,0,0,5.18,1.86,11.87,11.87,0,0,0,6-1.89,49.85,49.85,0,0,0,5.28-4l1,.87a23.91,23.91,0,0,1-4.89,4.44,19.33,19.33,0,0,1-11.34,4.06,10,10,0,0,1-7.06-2.84c-2-1.9-3-4.61-3-8.15Q184.19,171.82,191.77,163.94ZM204.06,169q4.56-4,4.56-8a3.51,3.51,0,0,0-.69-2.29,2.41,2.41,0,0,0-2-.86,7.3,7.3,0,0,0-4.83,2.11,28.11,28.11,0,0,0-4.27,4.75,37.07,37.07,0,0,0-3.19,5.94c-.43,1-.88,2.15-1.36,3.44A22.14,22.14,0,0,0,204.06,169Z" style="fill:#b2b2b2"></path><path d="M233.93,61.6q-.39-9,4.2-13.76a6.11,6.11,0,0,1,3.51-2,4,4,0,0,1,3.41,1.28q3.25,3.12,1.9,9.16A27.74,27.74,0,0,1,242.07,67L241,68.43a20.5,20.5,0,0,0,1.09,1.83,9.09,9.09,0,0,0,1.28,1.45,5.3,5.3,0,0,0,4.34,1.68,6.39,6.39,0,0,0,4.08-2,9.84,9.84,0,0,0,2.33-4.68,43.05,43.05,0,0,0,.67-5.4l1.08-.09a19.39,19.39,0,0,1-.16,5.46,16,16,0,0,1-4.08,9.08,8.28,8.28,0,0,1-5.74,2.58,8.78,8.78,0,0,1-6.59-2.86Q234.28,70.63,233.93,61.6ZM244,57.19q.19-5-2.16-7.3a3,3,0,0,0-1.76-.91,2,2,0,0,0-1.66.71,6,6,0,0,0-1.52,4.09,24,24,0,0,0,.38,5.26A31,31,0,0,0,239,64.35q.53,1.25,1.26,2.79A18.37,18.37,0,0,0,244,57.19Z" style="fill:#b2b2b2"></path><path d="M219.9,147.19a10.85,10.85,0,0,1,3.14-2.32,3.85,3.85,0,0,1-.7-.58,1.12,1.12,0,0,1-.28-.8,2.49,2.49,0,0,1,1-1.62,16.23,16.23,0,0,1,1.8-1.36,5.63,5.63,0,0,1-1.9-1.17,3.7,3.7,0,0,1-1-2.64,5.42,5.42,0,0,1,2-4.32,7.5,7.5,0,0,1,5-1.73,6.36,6.36,0,0,1,2.65.5A3.14,3.14,0,0,1,233,132h2.32v1.39h-1.75c.06.25.12.48.15.69a5.77,5.77,0,0,1-2.11,5.27,7.71,7.71,0,0,1-4.66,1.6,3.64,3.64,0,0,1-.48,0,5.51,5.51,0,0,1-.55-.1c-.18,0-.41.17-.71.5a1.46,1.46,0,0,0-.47.9c0,.39,1.27,1.06,3.79,2s3.78,2.35,3.78,4.19a4.59,4.59,0,0,1-1.9,3.62q-1.89,1.56-5.72,1.56a6.93,6.93,0,0,1-4.2-1.14,3.35,3.35,0,0,1-1.55-2.77A3.72,3.72,0,0,1,219.9,147.19Zm8.85,4.62a2.82,2.82,0,0,0,1.36-2.34,2.37,2.37,0,0,0-.71-1.74,5.09,5.09,0,0,0-1.22-.81c-.47-.23-1.27-.56-2.39-1a11,11,0,0,0-1.94-.65c-.3,0-.87.4-1.74,1.2a3.62,3.62,0,0,0-1.29,2.71,3.14,3.14,0,0,0,2,3.15,6.4,6.4,0,0,0,2.55.45A5.59,5.59,0,0,0,228.75,151.81Zm-3.67-12.68a2,2,0,0,0,2,1.05c1,0,1.95-.66,2.76-2a8.16,8.16,0,0,0,1.22-4.35,2.85,2.85,0,0,0-.5-1.78,1.77,1.77,0,0,0-1.5-.65,3.51,3.51,0,0,0-3.11,2,7.89,7.89,0,0,0-1.18,4A3.7,3.7,0,0,0,225.08,139.13Z" style="fill:#b2b2b2"></path><path d="M256.06,145.11a18.37,18.37,0,0,1,1.15-6.52,6.07,6.07,0,0,1-1.54.12,2,2,0,0,1-1.28-.67,4.17,4.17,0,0,1-.68-3.13,26.48,26.48,0,0,1,.61-3.76,9.23,9.23,0,0,1-3.7.77,6.2,6.2,0,0,1-4.26-2.11,9.2,9.2,0,0,1-2.55-7.68,12.73,12.73,0,0,1,4.16-8,11,11,0,0,1,3.83-2.5,5.29,5.29,0,0,1,2.52-.48l2.86-2.72,1.61,1.71-2.15,2q.57.35,1,.66a9.11,9.11,0,0,1,1.09,1,8.76,8.76,0,0,1,2.47,7.91,13.05,13.05,0,0,1-3.85,7.41,7,7,0,0,1-.62.53c-.21.15-.47.33-.79.53a2,2,0,0,0-.28,1.44,2.35,2.35,0,0,0,.47,1.64q.69.72,7-2t9.52.73a7.8,7.8,0,0,1,1.91,6.66q-.51,4.13-5.2,8.6a11.87,11.87,0,0,1-6.49,3.51,5.68,5.68,0,0,1-5.14-1.59A6.3,6.3,0,0,1,256.06,145.11Zm16.27-4.67a4.82,4.82,0,0,0-1.08-4.45,4,4,0,0,0-2.9-1.31,8.32,8.32,0,0,0-2.44.43c-.85.27-2.21.79-4.09,1.57a18.47,18.47,0,0,0-3.13,1.47c-.37.35-.62,1.52-.74,3.5a6.11,6.11,0,0,0,1.58,4.84,5.32,5.32,0,0,0,6.11,1.56,10.87,10.87,0,0,0,3.66-2.43A9.53,9.53,0,0,0,272.33,140.44ZM253,129.17a3.46,3.46,0,0,0,3.66-1c1.27-1.21,1.64-3.09,1.09-5.65a13.72,13.72,0,0,0-3.59-6.76,4.82,4.82,0,0,0-2.69-1.61,3,3,0,0,0-2.59,1q-2.37,2.25-1.43,6.15a13.43,13.43,0,0,0,3.16,6.22A6.23,6.23,0,0,0,253,129.17Z" style="fill:#b2b2b2"></path><path d="M217.79,210.81a3.56,3.56,0,0,1,.12-.62l5.63-20.36h-4.43a2.41,2.41,0,0,1,.12-1,1.13,1.13,0,0,1,.58-.41,24.6,24.6,0,0,0,4.6-2.43,29.53,29.53,0,0,0,4.44-4.52l.47-.55a.67.67,0,0,1,.22-.19.57.57,0,0,1,.28-.08,1.62,1.62,0,0,1,.4.12,1,1,0,0,1,.09.7l-1.72,6.36h4.81l-.35,2h-5l-5.37,19.6a1.41,1.41,0,0,0,.08,1,.82.82,0,0,0,.79.48c.51,0,1.22-.51,2.13-1.52.53-.55,1.41-1.63,2.66-3.24l.76.44-.41.61a22.58,22.58,0,0,1-4.43,5.24,6.06,6.06,0,0,1-3.64,1.47,2.68,2.68,0,0,1-2.16-.79,2.65,2.65,0,0,1-.67-1.78Q217.76,211.13,217.79,210.81Z" style="fill:#b2b2b2"></path><path d="M213.33,101.32h1a18.53,18.53,0,0,0,1.52,5.16,5.13,5.13,0,0,0,4.78,3,4,4,0,0,0,3-1.26,4.55,4.55,0,0,0,1.21-3.32,5.89,5.89,0,0,0-.31-2.1,6.55,6.55,0,0,0-.77-1.49l-2.42-3.59c-1.46-2.18-2.37-3.63-2.74-4.37A7.23,7.23,0,0,1,217.7,90a6.35,6.35,0,0,1,1.83-4.48,6.76,6.76,0,0,1,5.17-1.94,11.7,11.7,0,0,1,3.27.54,11,11,0,0,0,2.51.54,1.62,1.62,0,0,0,1.08-.29,2.9,2.9,0,0,0,.64-.79h.85l-1.2,8.29h-1a13.2,13.2,0,0,0-1.14-4.26A4.67,4.67,0,0,0,225.32,85a3.54,3.54,0,0,0-2.29.81,2.81,2.81,0,0,0-1,2.35,4.7,4.7,0,0,0,.45,2.1,31.68,31.68,0,0,0,2.06,3.2l2.07,3a27,27,0,0,1,2.28,3.76,7.61,7.61,0,0,1,.67,3.15,6.58,6.58,0,0,1-2.69,5.31,9.88,9.88,0,0,1-6.39,2.16,16.38,16.38,0,0,1-3.41-.5,21.5,21.5,0,0,0-2.57-.49,1.24,1.24,0,0,0-.86.26,2.69,2.69,0,0,0-.51.79h-1Z" style="fill:#b2b2b2"></path><path d="M249.32,206.11a1.93,1.93,0,0,1,1.55-.61,2.58,2.58,0,0,1,1.17.25,5.31,5.31,0,0,1,1.07.74l.38.26a.91.91,0,0,0,.36.2,1.23,1.23,0,0,0,.44.07q1.31,0,4.21-3.45t2.9-5a33.85,33.85,0,0,0-1-5.88q-1-4.36-1.94-7.79a26.89,26.89,0,0,0-2.4-6.51,3.52,3.52,0,0,0-3.19-1.7,5.1,5.1,0,0,0-.55,0l-1.32.14V176l7.3-1.42.56,0c.44-.05,1.3,1.95,2.56,6a68.9,68.9,0,0,1,2.13,8l1.08,6.38q2.81-4.71,4.12-7.23,2.56-4.95,2.56-6.93a2.59,2.59,0,0,0-.16-.9,1.46,1.46,0,0,0-.74-.76l-.46-.24a4.07,4.07,0,0,1-1-.8,2.19,2.19,0,0,1-.58-1.58,1.91,1.91,0,0,1,.54-1.39,2.1,2.1,0,0,1,1.6-.57,3,3,0,0,1,2.17.79,3.64,3.64,0,0,1,.83,2.69q0,2.87-3.13,9.2a93.65,93.65,0,0,1-5.37,9.37,85.24,85.24,0,0,1-6.39,8.73q-4.26,4.83-7.06,4.83a3,3,0,0,1-1.94-.67,2.2,2.2,0,0,1-.84-1.82A2.15,2.15,0,0,1,249.32,206.11Z" style="fill:#b2b2b2"></path><path d="M313.92,157.16a1.92,1.92,0,0,1,1.54-.61,2.59,2.59,0,0,1,1.18.25,5.31,5.31,0,0,1,1.07.74l.38.26a.91.91,0,0,0,.36.2,1.23,1.23,0,0,0,.44.07q1.31,0,4.21-3.45t2.9-5a33.21,33.21,0,0,0-1-5.88c-.66-2.91-1.31-5.51-1.93-7.79a26.89,26.89,0,0,0-2.4-6.51,3.52,3.52,0,0,0-3.19-1.7,5.1,5.1,0,0,0-.55,0l-1.32.14V127l7.29-1.42.57,0c.44-.05,1.3,1.95,2.56,6a66.31,66.31,0,0,1,2.12,8l1.09,6.38q2.81-4.71,4.12-7.23,2.56-5,2.56-6.93a2.59,2.59,0,0,0-.16-.9,1.44,1.44,0,0,0-.75-.76l-.45-.24a4.07,4.07,0,0,1-1-.8,2.19,2.19,0,0,1-.58-1.58,1.91,1.91,0,0,1,.54-1.39,2.08,2.08,0,0,1,1.6-.57,3.06,3.06,0,0,1,2.17.79,3.62,3.62,0,0,1,.83,2.69q0,2.87-3.13,9.2a93.65,93.65,0,0,1-5.37,9.37,85.24,85.24,0,0,1-6.39,8.73q-4.26,4.83-7.06,4.83a3.07,3.07,0,0,1-1.94-.67,2.2,2.2,0,0,1-.84-1.82A2.15,2.15,0,0,1,313.92,157.16Z" style="fill:#b2b2b2"></path></g><g id="freepik--Plants--inject-3"><g style="opacity:0.30000000000000004"><path d="M610.26,288a1.14,1.14,0,0,0,.9-1.23c-1.31-52.57-26-101.34-64.38-127.27a.92.92,0,0,0-1.37.45,1.33,1.33,0,0,0,.38,1.63c37.79,25.53,62.07,73.52,63.36,125.26a1.11,1.11,0,0,0,1,1.17Z"></path><path d="M585.48,245.86c11.32-5.79,22.07,14.15,21.72,14.6q.76,3.66,1.36,7.41c-1.46-2.9-7.76-6.46-17-7.19C582.38,259.56,574.52,250.9,585.48,245.86Z"></path><path d="M618.79,231c11.27-5.2,11.26,14.65,3.16,21.07-7.77,6.61-12.54,12.54-13.21,15.81-.26-2.53-.58-5-.94-7.53C608.27,260.4,608.27,236.36,618.79,231Z"></path><path d="M577.63,226.21c10.35-7.94,23.68,9.32,23.4,9.8.84,2.28,1.63,4.58,2.37,6.92-1.84-2.51-8.54-4.67-17.76-3.49C576.47,240.24,567.54,233.37,577.63,226.21Z"></path><path d="M608.36,204.85c10.38-7.37,13.11,12,6,19.94-6.73,8-10.61,14.77-10.81,18.07-.61-2.39-1.27-4.77-2-7.12C602.07,235.76,598.75,212.3,608.36,204.85Z"></path><path d="M567.18,208.47c9.09-9.87,24.61,4.42,24.4,4.93q1.71,3.09,3.28,6.3c-2.15-2.09-9.05-2.85-18,.18C568,222.52,558.24,217.55,567.18,208.47Z"></path><path d="M594.47,181.3c9.21-9.33,14.6,9.22,8.7,18.39-5.52,9.24-8.4,16.63-8.15,19.9q-1.39-3.32-2.92-6.56C592.57,213,586.05,190.57,594.47,181.3Z"></path><path d="M554.36,193c7.58-11.54,24.92-.5,24.77,0q2.11,2.72,4.11,5.54c-2.41-1.61-9.31-1-17.67,3.77C557.15,206.76,546.83,203.78,554.36,193Z"></path><path d="M577.45,160.8c7.77-11,15.72,6.24,11.18,16.45-4.14,10.2-6,18.06-5.25,21.23-1.22-2-2.48-4-3.79-5.88C580.06,192.46,570.46,171.64,577.45,160.8Z"></path><path d="M539.42,180.3c5.86-12.9,24.64-5.39,24.55-4.84q2.47,2.26,4.85,4.67c-2.61-1.12-9.34.86-16.92,7.21C544.21,193.33,533.53,192.4,539.42,180.3Z"></path><path d="M557.61,143.88c6.1-12.44,16.51,3.08,13.48,14.07-2.62,10.91-3.29,19-2.15,22q-2.24-2.59-4.59-5.07C564.82,174.68,552.28,156,557.61,143.88Z"></path><path d="M554.47,166.47c.32-.09-11.18-16.59-20.07-21.67-8.61-5.29-14,1.15-13.59,6.17s6.46,8.44,12,10C538.35,161.91,554.47,166.12,554.47,166.47Z"></path><path d="M554.54,167.27l.09,0a.8.8,0,0,0,.51-.7.22.22,0,0,0,0-.08.64.64,0,0,0-.21-.58c-1.65-3.44-12.6-17.45-20.24-21.81-4.24-2.61-8.39-2.73-11.37-.33a8.73,8.73,0,0,0-3.17,7.3c.45,6.83,9.68,9.89,12.49,10.66,5.43,1,20.1,4.8,21.43,5.41A.6.6,0,0,0,554.54,167.27Zm-27.13-23.6c1.7-.22,3.92.15,6.68,1.84,7,4,15.57,15.09,18.63,19.49-1.37-.41-3.51-1-6.86-1.85-4.32-1.11-10-2.49-13-3-5.29-1.46-11.11-4.66-11.41-9.23a7,7,0,0,1,2.59-5.84A6.53,6.53,0,0,1,527.41,143.67Z"></path><path d="M620.27,291.57a1.52,1.52,0,0,0,1.9-1.13c24.26-76.29,13.14-163.59-29-227.85a1.41,1.41,0,0,0-2.19-.32,2.11,2.11,0,0,0-.27,2.61c41.49,63.24,52.43,149.16,28.56,224.24a2,2,0,0,0,.91,2.4Z"></path><path d="M605.68,213.73c19.11-.31,24.61,35.84,23.88,36.24q-.73,5.79-1.74,11.58c-.65-5.19-7.91-14.73-20.82-22.31C594.42,231.17,587.46,213.23,605.68,213.73Z"></path><path d="M660.83,215.86c18.75.49,8.87,28.94-6,32.43-14.41,4-24.2,9.13-26.79,13.34q1.32-5.7,2.4-11.46C631.12,250.63,643.07,216.18,660.83,215.86Z"></path><path d="M604.2,180c18.78-4.09,29.31,30.06,28.66,30.55q.1,5.79,0,11.59c-1.39-4.9-9.92-12.72-23.72-17.52C595.55,199.31,586.17,183.18,604.2,180Z"></path><path d="M658.86,171.08c18.55-3.25,12.81,26.51-1.28,32.82-13.64,6.76-22.55,13.69-24.49,18.28q.48-5.79.72-11.59C634.48,211,641.38,175,658.86,171.08Z"></path><path d="M598,147.22c18-7.74,33.1,23.7,32.53,24.28q.91,5.64,1.59,11.34c-2.07-4.51-11.56-10.46-25.85-12.4C592.2,167.93,580.69,153.94,598,147.22Z"></path><path d="M650.66,127.52C668.49,120.64,667,151,654,160c-12.49,9.35-20.3,17.91-21.57,22.78q-.35-5.75-.92-11.48C632.19,171.58,634,134.87,650.66,127.52Z"></path><path d="M587.32,116.07c16.61-11.2,36,16.84,35.49,17.5,1.13,3.59,2.17,7.2,3.15,10.85-2.66-4-12.86-8-27.21-7.06C584.51,137.71,571.18,126.15,587.32,116.07Z"></path><path d="M636.44,86.13c16.62-10.33,19.44,20,7.87,31.46-11,11.71-17.52,21.7-18.09,26.74q-1.14-5.58-2.51-11.11C624.45,133.35,621,96.73,636.44,86.13Z"></path><path d="M572.24,87.27c14.81-14.37,38,9.64,37.59,10.37q2.43,5,4.64,10.12c-3.19-3.45-13.81-5.36-27.84-1.61C572.63,109.32,557.78,100.46,572.24,87.27Z"></path><path d="M616.41,47.87c14.93-13.52,22.14,16.07,12.34,29.69-9.18,13.78-14.18,25-14,30.05q-1.9-5.3-4.06-10.5C611.44,97.11,602.77,61.45,616.41,47.87Z"></path><path d="M600.69,78.06c.5.09-7.78-31.68-18-45.22-9.71-13.66-20.62-8.21-22.54-.74s5.06,16.66,12.22,22.73C579.85,60.15,600.87,77.55,600.69,78.06Z"></path><path d="M600.39,79.25l.14,0a.95.95,0,0,0,1.12-.76,1,1,0,0,0,0-1c-.66-6.1-9.4-33.9-18.18-45.54-4.78-6.73-10.66-9.84-16.13-8.5a11.43,11.43,0,0,0-8.18,8.22c-2.75,10.11,9,21,12.62,24.11,7.29,5.19,26.42,21,28,22.86A1.09,1.09,0,0,0,600.39,79.25Zm-27.16-53c2.55.9,5.55,3,8.66,7.36,8.06,10.68,14.82,32.6,17,41.07-1.76-1.56-4.54-3.88-8.91-7.48-5.64-4.64-13.09-10.62-17.1-13.47-6.86-5.82-13.6-14.51-11.76-21.28a9.14,9.14,0,0,1,6.61-6.54A9.52,9.52,0,0,1,573.23,26.28Z"></path><path d="M713,339.43a.93.93,0,0,0-1.37-.45c-38.4,25.94-63.07,74.7-64.38,127.28a1.1,1.1,0,0,0,.08.48h1.85a1.36,1.36,0,0,0,.08-.41c1.29-51.74,25.57-99.74,63.36-125.26A1.35,1.35,0,0,0,713,339.43Z"></path><path d="M673,425.38c-11.32-5.79-22.07,14.14-21.72,14.59q-.76,3.67-1.36,7.41c1.46-2.9,7.76-6.46,17-7.19C676.07,439.07,683.93,430.42,673,425.38Z"></path><path d="M639.66,410.48c-11.27-5.21-11.26,14.65-3.16,21.07,7.77,6.6,12.54,12.54,13.21,15.8.26-2.52.58-5,.94-7.53C650.18,439.91,650.18,415.87,639.66,410.48Z"></path><path d="M680.82,405.72c-10.35-7.94-23.68,9.33-23.4,9.81-.84,2.27-1.63,4.58-2.37,6.91,1.84-2.51,8.54-4.67,17.76-3.48C682,419.75,690.91,412.89,680.82,405.72Z"></path><path d="M650.09,384.37c-10.38-7.37-13.11,12-6,19.94,6.73,8,10.61,14.76,10.81,18.07q.92-3.6,2-7.12C656.38,415.28,659.7,391.81,650.09,384.37Z"></path><path d="M691.27,388c-9.09-9.88-24.61,4.42-24.4,4.93q-1.71,3.09-3.28,6.29c2.15-2.08,9-2.84,18,.19C690.47,402,700.21,397.07,691.27,388Z"></path><path d="M664,360.81c-9.21-9.33-14.59,9.23-8.7,18.4,5.52,9.24,8.4,16.63,8.15,19.9q1.4-3.33,2.92-6.57C665.88,392.48,672.4,370.08,664,360.81Z"></path><path d="M704.09,372.56c-7.58-11.54-24.92-.51-24.77,0q-2.12,2.7-4.11,5.54c2.41-1.62,9.31-1,17.67,3.77C701.3,386.28,711.62,383.3,704.09,372.56Z"></path><path d="M681,340.32c-7.77-11-15.72,6.23-11.18,16.44C674,367,675.77,374.83,675.07,378q1.83-3,3.79-5.89C678.39,372,688,351.15,681,340.32Z"></path><path d="M719,359.82c-5.86-12.91-24.64-5.39-24.55-4.84-1.65,1.51-3.27,3.06-4.85,4.67,2.61-1.12,9.34.85,16.92,7.2C714.24,372.84,724.92,371.92,719,359.82Z"></path><path d="M700.84,323.39c-6.1-12.43-16.51,3.09-13.48,14.07,2.62,10.91,3.29,19,2.15,22q2.24-2.6,4.59-5.07C693.63,354.19,706.17,335.48,700.84,323.39Z"></path><path d="M704,346c-.32-.09,11.18-16.59,20.07-21.67,8.61-5.3,14,1.15,13.59,6.17s-6.46,8.44-12,10C720.1,341.42,704,345.63,704,346Z"></path><path d="M703.91,346.78h-.09a.8.8,0,0,1-.51-.71s0-.05,0-.08a.62.62,0,0,1,.21-.57c1.65-3.44,12.6-17.45,20.24-21.81,4.24-2.61,8.39-2.74,11.37-.34a8.74,8.74,0,0,1,3.17,7.3c-.45,6.83-9.68,9.89-12.49,10.67-5.42.95-20.1,4.79-21.43,5.41A.63.63,0,0,1,703.91,346.78ZM731,323.18a10.31,10.31,0,0,0-6.68,1.85c-7,4-15.57,15.09-18.63,19.48,1.37-.41,3.51-1,6.86-1.84,4.32-1.11,10-2.49,13-3,5.29-1.46,11.11-4.66,11.41-9.24a7,7,0,0,0-2.59-5.83A6.61,6.61,0,0,0,731,323.18Z"></path><path d="M638.63,466.74c-23.09-74.63-12-159.63,29.13-222.34a2.11,2.11,0,0,0-.27-2.61,1.39,1.39,0,0,0-2.19.32c-41.57,63.35-52.93,149.11-30,224.63Z"></path><path d="M652.77,393.25c-19.11-.32-24.61,35.84-23.88,36.23q.74,5.81,1.74,11.59c.65-5.19,7.91-14.74,20.82-22.31C664,410.69,671,392.74,652.77,393.25Z"></path><path d="M597.62,395.37c-18.75.5-8.87,28.95,6,32.44,14.41,4,24.2,9.13,26.79,13.33q-1.32-5.7-2.4-11.45C627.33,430.15,615.38,395.69,597.62,395.37Z"></path><path d="M654.25,359.53c-18.78-4.08-29.31,30.07-28.66,30.56-.07,3.85-.06,7.72,0,11.59,1.39-4.9,9.92-12.72,23.72-17.52C662.9,378.83,672.28,362.69,654.25,359.53Z"></path><path d="M599.59,350.6c-18.55-3.25-12.81,26.5,1.28,32.82,13.64,6.76,22.55,13.69,24.49,18.28q-.48-5.79-.72-11.59C624,390.47,617.07,354.49,599.59,350.6Z"></path><path d="M660.43,326.74C642.48,319,627.33,350.43,627.9,351q-.92,5.64-1.58,11.34c2.06-4.5,11.55-10.45,25.84-12.4C666.25,347.45,677.76,333.45,660.43,326.74Z"></path><path d="M607.79,307c-17.83-6.88-16.33,23.52-3.32,32.51,12.49,9.35,20.3,17.91,21.57,22.78q.35-5.76.92-11.48C626.26,351.09,624.47,314.38,607.79,307Z"></path><path d="M671.13,295.58c-16.61-11.19-36,16.85-35.49,17.51-1.13,3.58-2.17,7.2-3.15,10.85,2.66-4,12.86-8,27.21-7.06C673.94,317.22,687.27,305.67,671.13,295.58Z"></path><path d="M622,265.65c-16.62-10.34-19.44,20-7.87,31.46,11,11.71,17.52,21.7,18.09,26.74q1.14-5.6,2.51-11.12C634,312.86,637.41,276.25,622,265.65Z"></path><path d="M686.21,266.78c-14.81-14.37-38,9.65-37.59,10.38-1.62,3.32-3.17,6.7-4.64,10.11,3.19-3.45,13.81-5.35,27.84-1.6C685.82,288.83,700.67,280,686.21,266.78Z"></path><path d="M642,227.39c-14.93-13.52-22.14,16.07-12.34,29.68,9.18,13.79,14.18,25,14,30.06,1.27-3.53,2.63-7,4.06-10.5C647,276.63,655.68,241,642,227.39Z"></path><path d="M657.76,257.57c-.5.1,7.78-31.67,18-45.22,9.71-13.66,20.62-8.21,22.54-.74s-5.06,16.66-12.22,22.73C678.6,239.66,657.58,257.06,657.76,257.57Z"></path><path d="M658.06,258.76l-.14,0a1,1,0,0,1-1.09-.65l0-.11a1,1,0,0,1,0-1c.66-6.09,9.4-33.9,18.18-45.54,4.78-6.72,10.66-9.83,16.13-8.49a11.43,11.43,0,0,1,8.18,8.22c2.75,10.11-9,21-12.62,24.1-7.29,5.2-26.42,21-28,22.87A1.1,1.1,0,0,1,658.06,258.76Zm27.16-53c-2.55.9-5.55,3-8.66,7.36-8.06,10.69-14.82,32.61-17,41.07,1.76-1.55,4.54-3.88,8.91-7.48,5.64-4.64,13.09-10.61,17.1-13.46,6.86-5.82,13.6-14.51,11.76-21.28a9.14,9.14,0,0,0-6.61-6.54A9.5,9.5,0,0,0,685.22,205.79Z"></path></g></g><g id="freepik--Books--inject-3"><rect x="523.83" y="176.81" width="32.87" height="289.84" rx="6.12" transform="translate(-18.82 33.95) rotate(-3.54)" style="fill:#FFC100"></rect><path d="M538.53,467.53a6.63,6.63,0,0,1-6.6-6.21L514.8,184.24a6.62,6.62,0,0,1,6.19-7l20.6-1.28a6.62,6.62,0,0,1,7,6.2l17.14,277.08a6.63,6.63,0,0,1-6.2,7h0l-20.6,1.28ZM542,176.94h-.35l-20.6,1.28a5.59,5.59,0,0,0-5.26,6l17.13,277.08a5.56,5.56,0,0,0,1.88,3.86,5.64,5.64,0,0,0,4.07,1.4l20.6-1.27a5.64,5.64,0,0,0,5.26-6L547.61,182.21A5.63,5.63,0,0,0,542,176.94Zm17.5,288.8h0Z" style="fill:#263238"></path><path d="M725.57,463l-20.36,3.38a6.12,6.12,0,0,1-7-5L652.83,187.48a6.11,6.11,0,0,1,5-7l20.36-3.38a6.12,6.12,0,0,1,7,5L730.61,456A6.12,6.12,0,0,1,725.57,463Z" style="fill:#fff"></path><path d="M704.21,467a6.62,6.62,0,0,1-6.52-5.54L652.34,187.56a6.62,6.62,0,0,1,5.44-7.61l20.36-3.37a6.63,6.63,0,0,1,7.61,5.45L731.1,455.91a6.63,6.63,0,0,1-5.45,7.61l-.08-.5.08.5-20.36,3.37A6.56,6.56,0,0,1,704.21,467Zm-25-289.49a5.84,5.84,0,0,0-.93.08l-20.37,3.37a5.62,5.62,0,0,0-4.62,6.46l45.35,273.88a5.64,5.64,0,0,0,6.46,4.62l20.36-3.37a5.61,5.61,0,0,0,4.62-6.46L684.76,182.19a5.61,5.61,0,0,0-5.52-4.7Z" style="fill:#263238"></path><path d="M646.57,466.39l-19.62.26a6,6,0,0,1-6.31-6l-.18-274.92a6.47,6.47,0,0,1,6.3-6.37l19.63-.27a6.06,6.06,0,0,1,6.31,6L652.88,460A6.47,6.47,0,0,1,646.57,466.39Z" style="fill:#FFC100"></path><path d="M626.76,467.16a6.66,6.66,0,0,1-4.66-1.88,6.41,6.41,0,0,1-2-4.65L620,185.71a7,7,0,0,1,6.79-6.87l19.63-.27a6.72,6.72,0,0,1,4.86,1.88,6.45,6.45,0,0,1,2,4.65L653.38,460a7,7,0,0,1-6.79,6.87h0l-19.63.26Zm19.81-.77h0Zm0-286.82h-.17l-19.63.27a6,6,0,0,0-5.81,5.87l.18,274.92a5.47,5.47,0,0,0,1.65,3.93,5.6,5.6,0,0,0,4.14,1.59l19.63-.26a6,6,0,0,0,5.82-5.87L652.2,185.1a5.43,5.43,0,0,0-1.66-3.93A5.6,5.6,0,0,0,646.57,179.57Z" style="fill:#263238"></path><rect x="620.49" y="208.44" width="32.24" height="48.06" style="fill:#263238"></rect><path d="M652.75,257H620.51a.5.5,0,0,1-.5-.5l0-48.06a.54.54,0,0,1,.14-.36.52.52,0,0,1,.36-.14h32.24a.5.5,0,0,1,.5.5l0,48.06a.51.51,0,0,1-.15.35A.47.47,0,0,1,652.75,257ZM621,256h31.24l0-47.06H621Z" style="fill:#263238"></path><path d="M613.72,466.39l-40.75.26a6.05,6.05,0,0,1-6.31-6l-.17-274.92a6.46,6.46,0,0,1,6.3-6.37l40.75-.27a6.06,6.06,0,0,1,6.31,6L620,460A6.46,6.46,0,0,1,613.72,466.39Z" style="fill:#a6a6a6"></path><path d="M572.78,467.16a6.66,6.66,0,0,1-4.66-1.88,6.45,6.45,0,0,1-2-4.65L566,185.71a7,7,0,0,1,6.78-6.87l40.77-.27a6.69,6.69,0,0,1,4.85,1.88,6.45,6.45,0,0,1,2,4.65L620.52,460a7,7,0,0,1-6.78,6.87h0l-40.75.26Zm40.94-.77h0Zm0-286.82h-.17l-40.76.27a6,6,0,0,0-5.8,5.87l.17,274.92a5.44,5.44,0,0,0,1.66,3.93,5.59,5.59,0,0,0,4.14,1.59l40.75-.26a6,6,0,0,0,5.81-5.87l-.17-274.92a5.41,5.41,0,0,0-1.66-3.93A5.62,5.62,0,0,0,613.72,179.57Z" style="fill:#263238"></path><rect x="576.62" y="397.72" width="34.75" height="48.06" style="fill:#263238"></rect><path d="M611.37,446.28H576.62a.5.5,0,0,1-.5-.5V397.72a.51.51,0,0,1,.5-.5h34.75a.5.5,0,0,1,.5.5v48.06A.5.5,0,0,1,611.37,446.28Zm-34.25-1h33.75V398.22H577.12Z" style="fill:#263238"></path><rect x="576.62" y="325.26" width="34.75" height="2.96" style="fill:#263238"></rect><path d="M611.37,328.72H576.62a.5.5,0,0,1-.5-.5v-3a.51.51,0,0,1,.5-.5h34.75a.5.5,0,0,1,.5.5v3A.5.5,0,0,1,611.37,328.72Zm-34.25-1h33.75v-2H577.12Z" style="fill:#263238"></path><rect x="576.62" y="231.36" width="34.75" height="2.96" style="fill:#263238"></rect><path d="M611.37,234.82H576.62a.51.51,0,0,1-.5-.5v-3a.5.5,0,0,1,.5-.5h34.75a.5.5,0,0,1,.5.5v3A.5.5,0,0,1,611.37,234.82Zm-34.25-1h33.75v-2H577.12Z" style="fill:#263238"></path><rect x="462.46" y="176.81" width="52.5" height="289.84" rx="6.12" style="fill:#707070"></rect><path d="M508.84,467.16H468.58a6.63,6.63,0,0,1-6.62-6.62V182.93a6.63,6.63,0,0,1,6.62-6.62h40.26a6.63,6.63,0,0,1,6.62,6.62V460.54A6.63,6.63,0,0,1,508.84,467.16ZM468.58,177.31a5.62,5.62,0,0,0-5.62,5.62V460.54a5.62,5.62,0,0,0,5.62,5.62h40.26a5.62,5.62,0,0,0,5.62-5.62V182.93a5.62,5.62,0,0,0-5.62-5.62Z" style="fill:#263238"></path><rect x="462.46" y="414.99" width="52.5" height="4.57" style="fill:#263238"></rect><path d="M515,420.06h-52.5a.5.5,0,0,1-.5-.5V415a.5.5,0,0,1,.5-.5H515a.5.5,0,0,1,.5.5v4.57A.5.5,0,0,1,515,420.06Zm-52-1h51.5v-3.57H463Z" style="fill:#263238"></path><rect x="462.46" y="433.81" width="52.5" height="11.74" style="fill:#263238"></rect><path d="M515,446.05h-52.5a.5.5,0,0,1-.5-.5V433.81a.51.51,0,0,1,.5-.5H515a.5.5,0,0,1,.5.5v11.74A.5.5,0,0,1,515,446.05Zm-52-1h51.5V434.31H463Z" style="fill:#263238"></path><rect x="462.46" y="200.35" width="52.5" height="4.57" style="fill:#263238"></rect><path d="M515,205.42h-52.5a.5.5,0,0,1-.5-.5v-4.57a.5.5,0,0,1,.5-.5H515a.5.5,0,0,1,.5.5v4.57A.5.5,0,0,1,515,205.42Zm-52-1h51.5v-3.57H463Z" style="fill:#263238"></path></g></svg>
