<svg xmlns="http://www.w3.org/2000/svg" viewBox="0 0 500 500"><g id="freepik--background-simple--inject-7"><path d="M471.34,263.11C488,156.69,399.2,49.42,282.63,36.1c-1.45-.17-2.9-.32-4.36-.47-81.45-8.09-155.9,54.13-177.19,101.58s-77,92.6-56.35,180.56S121.48,452.58,253,466.45s155.79-23.74,190.7-105.92A420.16,420.16,0,0,0,471.34,263.11Z" style="fill:#FFC100"></path><path d="M471.34,263.11C488,156.69,399.2,49.42,282.63,36.1c-1.45-.17-2.9-.32-4.36-.47-81.45-8.09-155.9,54.13-177.19,101.58s-77,92.6-56.35,180.56S121.48,452.58,253,466.45s155.79-23.74,190.7-105.92A420.16,420.16,0,0,0,471.34,263.11Z" style="fill:#fff;opacity:0.8"></path></g><g id="freepik--Plants--inject-7"><path d="M428.47,425.65a.35.35,0,0,0,.45-.12,43.43,43.43,0,0,0,2.44-42.29.34.34,0,0,0-.46-.15.33.33,0,0,0-.15.45,42.74,42.74,0,0,1-2.41,41.62.35.35,0,0,0,.1.48Z" style="fill:#FFC100"></path><path d="M428.3,411c4.1.81,3.91,7.56,3.74,7.6-.26.67-.53,1.34-.81,2,0-1-1.14-3-3.62-4.95S424.42,410.08,428.3,411Z" style="fill:#FFC100"></path><path d="M440,413.87c4,.94.8,5.61-2.5,5.56s-5.54.55-6.25,1.19c.33-.64.65-1.29,1-1.95C432.35,418.78,436.21,413.12,440,413.87Z" style="fill:#FFC100"></path><path d="M429.26,404.86c4.18.12,5.14,6.74,5,6.79-.13.7-.28,1.39-.45,2.09-.11-.95-1.64-2.74-4.41-4.23S425.28,404.61,429.26,404.86Z" style="fill:#FFC100"></path><path d="M441.31,405.73c4.1.26,1.74,5.35-1.52,5.84s-5.35,1.44-5.94,2.18c.22-.68.41-1.36.59-2.05C434.57,411.8,437.42,405.64,441.31,405.73Z" style="fill:#FFC100"></path><path d="M429.19,398.68c4.14-.58,6.19,5.76,6,5.84,0,.71,0,1.41-.09,2.11-.27-.9-2.08-2.4-5.06-3.4S425.22,399.11,429.19,398.68Z" style="fill:#FFC100"></path><path d="M441.21,397.52c4.08-.43,2.61,5-.52,6s-5,2.3-5.49,3.12c.1-.7.18-1.4.24-2.11C435.58,404.61,437.36,398.09,441.21,397.52Z" style="fill:#FFC100"></path><path d="M428.08,392.6c4-1.26,7.07,4.66,6.94,4.75.1.7.19,1.4.26,2.1-.42-.85-2.45-2-5.56-2.51S424.24,393.68,428.08,392.6Z" style="fill:#FFC100"></path><path d="M439.74,389.44c3.95-1.11,3.4,4.48.49,6s-4.58,3.11-4.89,4c0-.7-.06-1.41-.12-2.11C435.38,397.39,436,390.65,439.74,389.44Z" style="fill:#FFC100"></path><path d="M425.94,386.73c3.72-1.91,7.78,3.46,7.66,3.57.22.67.43,1.35.61,2-.55-.76-2.75-1.59-5.9-1.55S422.34,388.45,425.94,386.73Z" style="fill:#FFC100"></path><path d="M436.9,381.65c3.72-1.76,4.13,3.89,1.52,5.9s-4,3.84-4.15,4.77c-.14-.7-.3-1.39-.47-2.08C434,390.28,433.47,383.48,436.9,381.65Z" style="fill:#FFC100"></path><path d="M432.39,386.37c.1,0-.46-6.05-2.14-8.95s-4.1-2.41-4.8-1.15.45,3.22,1.76,4.64S432.45,386.28,432.39,386.37Z" style="fill:#FFC100"></path><path d="M432.28,386.57h0a.22.22,0,0,0,.25-.07l0,0a.17.17,0,0,0,0-.17c.09-1.13-.72-6.52-2.16-9a3.74,3.74,0,0,0-3.13-2.25,2.33,2.33,0,0,0-2.07,1.11c-1,1.69,1.12,4.18,1.79,4.9,1.36,1.27,4.86,5,5.13,5.38A.24.24,0,0,0,432.28,386.57Zm-3.8-10.76a4.05,4.05,0,0,1,1.57,1.72c1.32,2.28,1.93,6.53,2.08,8.15-.31-.36-.82-.9-1.62-1.75-1-1.08-2.4-2.5-3.15-3.19-1.25-1.36-2.36-3.23-1.71-4.36a1.88,1.88,0,0,1,1.66-.88A2.43,2.43,0,0,1,428.48,375.81Z" style="fill:#FFC100"></path><path d="M175.74,425.63a.49.49,0,0,0,.64-.16,61.47,61.47,0,0,0,3.46-59.87.49.49,0,1,0-.87.43,60.48,60.48,0,0,1-3.41,58.91.48.48,0,0,0,.15.67Z" style="fill:#FFC100"></path><path d="M175.51,404.88c5.81,1.15,5.53,10.7,5.29,10.76-.36.95-.74,1.9-1.15,2.84.08-1.37-1.61-4.26-5.12-7S170,403.59,175.51,404.88Z" style="fill:#FFC100"></path><path d="M192.12,409c5.65,1.33,1.13,7.94-3.55,7.87-4.59.1-7.83.78-8.85,1.68.48-.91.92-1.83,1.35-2.76C181.23,415.91,186.71,407.9,192.12,409Z" style="fill:#FFC100"></path><path d="M176.87,396.2c5.92.17,7.27,9.54,7,9.62-.19,1-.4,2-.64,2.95-.16-1.34-2.32-3.88-6.25-6S171.23,395.85,176.87,396.2Z" style="fill:#FFC100"></path><path d="M193.93,397.43c5.8.37,2.46,7.57-2.16,8.28s-7.57,2-8.41,3.08c.31-1,.59-1.93.84-2.9C184.39,406,188.42,397.3,193.93,397.43Z" style="fill:#FFC100"></path><path d="M176.76,387.46c5.86-.82,8.76,8.15,8.56,8.26,0,1-.06,2-.13,3-.38-1.28-2.94-3.4-7.17-4.81S171.15,388.06,176.76,387.46Z" style="fill:#FFC100"></path><path d="M193.79,385.82c5.77-.61,3.68,7-.75,8.49s-7.12,3.25-7.76,4.41c.13-1,.25-2,.33-3C185.81,395.85,188.33,386.62,193.79,385.82Z" style="fill:#FFC100"></path><path d="M175.19,378.84c5.64-1.78,10,6.6,9.83,6.73.14,1,.27,2,.37,3-.6-1.2-3.47-2.86-7.88-3.54S169.76,380.37,175.19,378.84Z" style="fill:#FFC100"></path><path d="M191.7,374.37c5.6-1.57,4.82,6.34.69,8.51-4,2.28-6.48,4.4-6.92,5.65,0-1-.08-2-.16-3C185.52,385.62,186.46,376.08,191.7,374.37Z" style="fill:#FFC100"></path><path d="M172.17,370.54c5.27-2.71,11,4.89,10.84,5q.47,1.43.87,2.88c-.79-1.09-3.9-2.25-8.36-2.2S167.08,373,172.17,370.54Z" style="fill:#FFC100"></path><path d="M187.69,363.35c5.25-2.49,5.84,5.51,2.14,8.34-3.53,2.92-5.64,5.45-5.87,6.76-.2-1-.42-2-.67-2.94C183.53,375.56,182.82,365.93,187.69,363.35Z" style="fill:#FFC100"></path><path d="M181.29,370c.15.06-.65-8.56-3-12.66-2.21-4.1-5.81-3.42-6.8-1.64s.64,4.57,2.49,6.57C175.94,364.13,181.38,369.9,181.29,370Z" style="fill:#FFC100"></path><path d="M181.14,370.31h0a.32.32,0,0,0,.36-.09l0,0a.24.24,0,0,0,.05-.25c.13-1.59-1-9.23-3.06-12.76-1.09-2-2.7-3.18-4.43-3.19a3.3,3.3,0,0,0-2.93,1.57c-1.38,2.39,1.59,5.92,2.53,6.94,1.93,1.79,6.88,7.05,7.27,7.62A.34.34,0,0,0,181.14,370.31Zm-5.38-15.23a5.68,5.68,0,0,1,2.22,2.43c1.87,3.24,2.74,9.25,3,11.55-.45-.51-1.17-1.28-2.31-2.48-1.45-1.54-3.39-3.54-4.45-4.52-1.77-1.92-3.35-4.57-2.43-6.18a2.69,2.69,0,0,1,2.36-1.24A3.63,3.63,0,0,1,175.76,355.08Z" style="fill:#FFC100"></path><path d="M61.17,424.73a.48.48,0,0,1-.4-.53A62.14,62.14,0,0,1,95,374.2a.48.48,0,0,1,.65.22.5.5,0,0,1-.22.66,61.15,61.15,0,0,0-33.73,49.21.48.48,0,0,1-.53.44Z" style="fill:#FFC100"></path><path d="M74.2,408.28c-5.35-2.68-11,5.14-10.88,5.33-.31,1-.59,2-.84,3,.78-1.14,3.92-2.41,8.43-2.45S79.4,410.65,74.2,408.28Z" style="fill:#FFC100"></path><path d="M58.4,401.27c-5.35-2.44-5.81,5.64-2,8.49,3.61,2.91,5.79,5.46,6,6.81.18-1,.39-2,.63-3C62.8,413.55,63.37,403.76,58.4,401.27Z" style="fill:#FFC100"></path><path d="M78.48,400.5c-4.83-3.53-11.71,3.12-11.59,3.33-.46.9-.89,1.82-1.31,2.75,1-1,4.25-1.66,8.7-.92C78.71,406.25,83.2,403.71,78.48,400.5Z" style="fill:#FFC100"></path><path d="M64.08,390.93c-4.86-3.3-6.65,4.53-3.39,7.95,3.07,3.46,4.79,6.31,4.81,7.67.35-1,.73-1.91,1.13-2.85C66.4,403.7,68.57,394.24,64.08,390.93Z" style="fill:#FFC100"></path><path d="M84,393.58c-4.18-4.28-12,1.1-12,1.31-.6.81-1.18,1.63-1.74,2.47,1.09-.79,4.45-.9,8.7.59C83.25,399.27,88.09,397.53,84,393.58Z" style="fill:#FFC100"></path><path d="M71.38,381.73c-4.24-4.06-7.3,3.34-4.66,7.25,2.46,3.92,3.68,7,3.48,8.33.51-.87,1-1.74,1.58-2.59C71.55,394.68,75.25,385.75,71.38,381.73Z" style="fill:#FFC100"></path><path d="M90.56,387.66c-3.4-4.92-12.08-.92-12-.7-.72.7-1.43,1.41-2.12,2.14,1.21-.59,4.54-.13,8.48,2S94,392.25,90.56,387.66Z" style="fill:#FFC100"></path><path d="M80.13,373.87c-3.5-4.72-7.77,2.09-5.82,6.38,1.77,4.27,2.46,7.52,2,8.8.64-.78,1.3-1.55,2-2.29C78.11,386.69,83.26,378.48,80.13,373.87Z" style="fill:#FFC100"></path><path d="M98.11,382.89c-2.53-5.42-11.82-2.89-11.79-2.67-.84.57-1.66,1.16-2.47,1.77,1.3-.39,4.51.61,8,3.41S100.68,388,98.11,382.89Z" style="fill:#FFC100"></path><path d="M90.16,367.54c-2.66-5.24-8.08.79-6.88,5.35,1,4.51,1.15,7.84.52,9,.76-.66,1.55-1.31,2.35-1.94C85.93,379.88,92.45,372.62,90.16,367.54Z" style="fill:#FFC100"></path><path d="M91.14,376.83c-.15,0,5.82-6.44,10.26-8.25s6.75.86,6.44,2.9-3.33,3.25-6,3.71C99.07,375.43,91.15,376.69,91.14,376.83Z" style="fill:#FFC100"></path><path d="M91.09,377.15h0a.34.34,0,0,1-.24-.3,0,0,0,0,1,0,0,.24.24,0,0,1,.11-.23c.89-1.35,6.53-6.74,10.34-8.3,2.12-.95,4.14-.88,5.53.18a3.37,3.37,0,0,1,1.36,3.07c-.38,2.77-4.93,3.75-6.32,4-2.65.24-9.86,1.39-10.52,1.6A.31.31,0,0,1,91.09,377.15Zm13.73-8.84a5.76,5.76,0,0,0-3.29.57c-3.5,1.43-7.91,5.7-9.5,7.4.67-.13,1.72-.3,3.37-.55,2.12-.33,4.9-.73,6.36-.86,2.6-.45,5.5-1.58,5.76-3.44A2.7,2.7,0,0,0,106.4,369,3.54,3.54,0,0,0,104.82,368.31Z" style="fill:#FFC100"></path><path d="M189.18,419.78a.59.59,0,0,0,.79.13,74.1,74.1,0,0,0,32.91-64.33.59.59,0,0,0-1.17.05,72.9,72.9,0,0,1-32.39,63.3.58.58,0,0,0-.16.81Z" style="fill:#FFC100"></path><path d="M199,396.78c5.85,4.09.9,14.49.61,14.43-.86.88-1.74,1.74-2.65,2.57.75-1.46.3-5.47-2.23-10.22C192.4,398.77,193.58,392.68,199,396.78Z" style="fill:#FFC100"></path><path d="M215.34,409.35c5.59,4.21-2.61,9.3-7.74,7-5.1-2.13-9-2.95-10.56-2.45,1-.77,1.9-1.57,2.82-2.39C200,411.72,209.9,405.56,215.34,409.35Z" style="fill:#FFC100"></path><path d="M204.73,387.88c6.44,3.05,3.38,14,3.1,14-.69,1-1.4,2-2.14,2.94.48-1.55-.67-5.4-4-9.63C198.58,390.91,198.69,384.75,204.73,387.88Z" style="fill:#FFC100"></path><path d="M222.94,397.52c6.22,3.22-1,9.54-6.4,8.08-5.37-1.25-9.34-1.43-10.77-.69q1.22-1.37,2.34-2.79C208.25,402.36,216.93,394.7,222.94,397.52Z" style="fill:#FFC100"></path><path d="M208.86,378.19c6.86,1.94,5.7,13.24,5.42,13.27-.5,1.09-1,2.16-1.6,3.23.21-1.6-1.59-5.18-5.56-8.79C203.31,382.19,202.38,376.12,208.86,378.19Z" style="fill:#FFC100"></path><path d="M228.43,384.65c6.66,2.13.64,9.54-5,9-5.5-.35-9.43.13-10.71,1.09.64-1,1.24-2.07,1.83-3.12C214.76,391.84,222,382.88,228.43,384.65Z" style="fill:#FFC100"></path><path d="M211.32,367.92c7.09.78,7.82,12.14,7.56,12.2-.32,1.15-.66,2.3-1,3.45-.07-1.61-2.43-4.84-7-7.73S204.58,367,211.32,367.92Z" style="fill:#FFC100"></path><path d="M231.69,371c6.93,1,2.23,9.34-3.37,9.73-5.48.58-9.28,1.7-10.38,2.86.45-1.11.88-2.24,1.27-3.38C219.41,380.42,225.08,370.36,231.69,371Z" style="fill:#FFC100"></path><path d="M212,357.31c7.12-.43,9.75,10.73,9.5,10.83-.12,1.2-.27,2.4-.45,3.59-.33-1.57-3.2-4.38-8.14-6.48S205.22,357.51,212,357.31Z" style="fill:#FFC100"></path><path d="M232.62,356.91c7-.19,3.77,8.92-1.69,10.25-5.31,1.5-8.87,3.26-9.75,4.59.25-1.18.49-2.37.69-3.56C222.1,368.36,226,357.39,232.62,356.91Z" style="fill:#FFC100"></path><path d="M222.33,361.16c.14.14,3.44-9.75,2.82-15.43-.44-5.59-4.75-6.59-6.7-5.1s-1.51,5.34-.45,8.45C219.29,352.06,222.48,361.07,222.33,361.16Z" style="fill:#FFC100"></path><path d="M222,361.4a.08.08,0,0,0,0,0,.38.38,0,0,0,.45.07l0,0a.27.27,0,0,0,.17-.25c.92-1.69,3.36-10.68,2.83-15.55-.22-2.76-1.43-4.83-3.34-5.68a4,4,0,0,0-4,.31c-2.69,2-1.13,7.3-.59,8.88,1.26,2.92,4.16,11.12,4.31,11.93A.41.41,0,0,0,222,361.4Zm1.47-19.4a6.9,6.9,0,0,1,1.27,3.76c.49,4.48-1.47,11.53-2.35,14.16-.25-.77-.67-2-1.34-3.84-.86-2.41-2-5.56-2.72-7.16-1-3-1.47-6.66.33-8a3.22,3.22,0,0,1,3.21-.22A4.24,4.24,0,0,1,223.49,342Z" style="fill:#FFC100"></path></g><g id="freepik--Floor--inject-7"><path d="M467.27,424.8H42.57a.5.5,0,1,1,0-1h424.7a.5.5,0,0,1,0,1Z" style="fill:#263238"></path></g><g id="freepik--Paper--inject-7"><path d="M434.48,275.3a10.48,10.48,0,0,0,9.46-5.53c3.57-6.06,6.78-16.41,6.78-16.41H428.59s-5.71,11.42-3.92,16.41S434.48,275.3,434.48,275.3Z" style="fill:#263238"></path><path d="M434.89,275.82c-.24,0-.4,0-.45,0-.41,0-8.38-.64-10.24-5.86s3.71-16.33,3.95-16.81a.48.48,0,0,1,.44-.27h22.13a.48.48,0,0,1,.4.2.5.5,0,0,1,.08.44c0,.11-3.27,10.48-6.83,16.53A11,11,0,0,1,434.89,275.82Zm-6-22c-.85,1.76-5.31,11.43-3.77,15.74,1.65,4.63,9.3,5.2,9.37,5.2h0a9.92,9.92,0,0,0,9-5.28c3-5.08,5.76-13.31,6.53-15.66Z" style="fill:#263238"></path><path d="M436.46,164.24s15.32-2.14,14.83,20.6S431.78,256.7,430,264.92c-1.79,8.42,4.45,10.38,4.45,10.38H383.07s-3.46-60.31,4.45-80.08S415.2,165.88,436.46,164.24Z" style="fill:#d6d6d6"></path><path d="M434.48,275.8H383.07a.5.5,0,0,1-.5-.47c0-.6-3.38-60.65,4.48-80.3,7.21-18,25.2-29.42,49.36-31.29a12.91,12.91,0,0,1,9.69,3.16c4,3.52,5.87,9.56,5.69,17.95-.36,16.63-10.62,47.41-16.75,65.8-2.26,6.8-4.05,12.17-4.52,14.37-1.67,7.86,3.87,9.73,4.11,9.8a.5.5,0,0,1,.34.56A.49.49,0,0,1,434.48,275.8Zm-50.94-1h49c-1.82-1.33-4.22-4.25-3-10,.48-2.27,2.19-7.39,4.55-14.48,6.11-18.34,16.34-49,16.7-65.51.17-8.08-1.62-13.85-5.34-17.17a12.14,12.14,0,0,0-8.92-2.93h0c-23.77,1.84-41.46,13-48.52,30.67C380.57,213.93,383.24,269.11,383.54,274.8Zm52.92-110.56h0Z" style="fill:#263238"></path><path d="M436.46,164.24c-13.86,1.07-27.09,5.51-36.81,13.95h51.26C448.57,162.56,436.46,164.24,436.46,164.24Z" style="fill:#263238"></path><path d="M450.91,178.69H399.65a.5.5,0,0,1-.47-.32.51.51,0,0,1,.14-.56c9.27-8,22.09-12.91,37.09-14.07.57-.07,12.66-1.26,15,14.38a.49.49,0,0,1-.12.4A.48.48,0,0,1,450.91,178.69Zm-49.89-1h49.3c-2.43-14.36-13.32-13-13.79-13h0C422.27,165.83,410,170.31,401,177.69Zm35.44-13.45h0Z" style="fill:#263238"></path><path d="M436.46,164.24H278.92s-21.3,5.45-27.74,31.7,0,106-.5,136.24-19.32,64.4-34.18,79.76-53,30.71-64.4,34.67S110.3,454,110.3,454H319.05a103.39,103.39,0,0,0,40.62-9.9c20.31-9.91,35.76-28.2,41.12-67.87,3.28-24.24-7.93-105.52-7.93-130.79s-1-47.56,12.39-64.9C417.29,165,436.46,164.24,436.46,164.24Z" style="fill:#fff"></path><path d="M319.05,454.54H110.3a.49.49,0,0,1-.5-.47.49.49,0,0,1,.44-.52c.3,0,30.48-3.51,41.69-7.41,12-4.18,49.66-19.51,64.21-34.55,13.83-14.29,33.53-48.38,34-79.42.16-9.62-.37-24-1-40.61-1.29-34.65-2.9-77.78,1.5-95.74,6.44-26.24,27.89-32,28.11-32.07H436.46a.5.5,0,0,1,.5.49.51.51,0,0,1-.48.51c-.19,0-19.08.94-30.84,16.15-12.4,16.05-12.35,36.25-12.29,59.63,0,1.64,0,3.29,0,5,0,10,1.78,29,3.66,49.13,2.93,31.4,6.25,67,4.26,81.72-4.81,35.59-17.57,56.64-41.39,68.26A104.79,104.79,0,0,1,319.05,454.54Zm-200.78-1H319.05a103.61,103.61,0,0,0,40.4-9.85c23.49-11.46,36.08-32.27,40.84-67.49,2-14.61-1.34-50.15-4.27-81.5-1.88-20.17-3.66-39.22-3.66-49.22,0-1.66,0-3.32,0-5-.06-23.56-.11-43.92,12.5-60.24,7.73-10,18.47-14,25.22-15.54H279c-1.23.34-21.2,6.34-27.33,31.32-4.37,17.82-2.76,60.87-1.47,95.46.62,16.65,1.15,31,1,40.66-.51,31.32-20.38,65.7-34.32,80.1-14.69,15.18-52.51,30.6-64.6,34.81C144.57,449.76,128.12,452.23,118.27,453.54Z" style="fill:#263238"></path><path d="M259.08,399.32a11.58,11.58,0,0,1,8.57,4.28c3.21,4.28,3.57,14.63,3.57,14.63H225.54S244.81,399.32,259.08,399.32Z" style="fill:#263238"></path><path d="M271.21,418.73H225.54a.5.5,0,0,1-.47-.31.51.51,0,0,1,.12-.55c.79-.78,19.58-19.05,33.89-19.05a12,12,0,0,1,9,4.48c3.26,4.36,3.65,14.48,3.66,14.91a.47.47,0,0,1-.14.37A.51.51,0,0,1,271.21,418.73Zm-44.42-1h43.9c-.12-2.13-.77-10.26-3.44-13.83a11.09,11.09,0,0,0-8.17-4.08C246.91,399.82,230.76,414.05,226.79,417.73Z" style="fill:#263238"></path><path d="M268.72,453.92s-24.84-3.08-30-21.06c-4.28-15,3.21-24.62,10-28.9s10.35-4.64,10.35-4.64-59.95,4.28-98.85,3.56-59.54-10-70.25,0-8.21,25.7-1.78,37.83S110.3,454,110.3,454Z" style="fill:#fff"></path><path d="M110.3,454.54c-.2,0-16.07-1.36-22.54-13.59-3.05-5.76-11.92-25.55,1.88-38.43,6.87-6.41,17.75-5.09,34.22-3.07a335.43,335.43,0,0,0,36.38,2.93c38.43.72,98.21-3.52,98.81-3.56a.49.49,0,0,1,.53.45.51.51,0,0,1-.45.54s-3.56.42-10.13,4.57c-3.55,2.24-14.76,10.92-9.78,28.34s29.31,20.67,29.56,20.7a.5.5,0,0,1-.06,1Zm-5.25-55.75c-6.31,0-11.15,1.12-14.73,4.46-13.28,12.4-4.65,31.63-1.68,37.23,6.22,11.74,21.54,13,21.69,13.07l153.49-.13c-7.59-1.94-21.81-7.28-25.56-20.42-5.17-18.1,6.5-27.13,10.21-29.47a45.07,45.07,0,0,1,6.42-3.43c-14.36.95-62.14,3.89-94.67,3.28a336.79,336.79,0,0,1-36.48-2.94A166.46,166.46,0,0,0,105.05,398.79Z" style="fill:#263238"></path></g><g id="freepik--Letters--inject-7"><path d="M319,143.28l6.07-28.58h3.84l6.11,28.58h-3.78l-1.31-7.2h-5.82l-1.37,7.2Zm5.64-10.05h4.77L327,120.35Z" style="fill:#263238"></path><path d="M283.56,196,292.63,145l12.67,2.25a14.19,14.19,0,0,1,7.05,3,9.76,9.76,0,0,1,3.15,5.54,20.8,20.8,0,0,1-.09,7.85,16.32,16.32,0,0,1-2.66,6.75,10.44,10.44,0,0,1-5,3.83,13.82,13.82,0,0,1-7.22.38l-5.61-1-4.22,23.78Zm12.25-27.63,3.28.59a13.83,13.83,0,0,0,5,.16,4.47,4.47,0,0,0,3-2,12.68,12.68,0,0,0,1.62-4.75,22.76,22.76,0,0,0,.46-5.71,4,4,0,0,0-1.76-3.11,14.16,14.16,0,0,0-5.16-1.7l-3.34-.59Z" style="fill:#263238"></path><path d="M355.89,250.73l-6.77-36.4,6.74-1.26,1,5.17A12.42,12.42,0,0,1,360,213a8.3,8.3,0,0,1,3.82-1.88l.47-.09c.14,0,.35,0,.61,0l1.38,7.43a11.84,11.84,0,0,0-1.83-.21,9.92,9.92,0,0,0-2,.15,5.93,5.93,0,0,0-2.73,1.26,7.83,7.83,0,0,0-2,3.28l4.95,26.57Z" style="fill:#263238"></path><path d="M354,336.68a13.46,13.46,0,0,1-7.69-.52,12.14,12.14,0,0,1-5.41-4.4,22,22,0,0,1-3.2-7.42l6-2.87a29,29,0,0,0,1.82,5.07,9.49,9.49,0,0,0,2.94,3.72,5.65,5.65,0,0,0,4.52.82,5.52,5.52,0,0,0,3.9-2.32,6.48,6.48,0,0,0,.59-4.71,9.25,9.25,0,0,0-2.61-5.28,29.83,29.83,0,0,0-4.76-3.51l-10-6a14.75,14.75,0,0,1-4.61-4.13,15.8,15.8,0,0,1-2.4-6.23q-1-5.61,1.59-9.29t8.18-4.72a16.83,16.83,0,0,1,5.47-.2,9.48,9.48,0,0,1,4.29,1.71,12,12,0,0,1,3.23,3.67,23.48,23.48,0,0,1,2.31,5.6l-5.74,2.76a25.62,25.62,0,0,0-1.62-4.49,7,7,0,0,0-2.61-3,6,6,0,0,0-4.31-.54A5.83,5.83,0,0,0,340,292.6a5.64,5.64,0,0,0-.7,4.46,8.45,8.45,0,0,0,1.5,3.7,11.6,11.6,0,0,0,3.13,2.61l10,5.95a27.36,27.36,0,0,1,6.22,5.06,15.51,15.51,0,0,1,3.75,7.87,13.11,13.11,0,0,1-.36,6.82,10.82,10.82,0,0,1-3.54,5A13.55,13.55,0,0,1,354,336.68Z" style="fill:#263238"></path><path d="M374.08,336a3.3,3.3,0,0,1,1.54,2,2,2,0,0,1-.3,1.64,2,2,0,0,1-1.28.79,1.84,1.84,0,0,1-1.39-.24,1.59,1.59,0,0,1-.74-1.09,2.4,2.4,0,0,1,.13-1.24,2.57,2.57,0,0,0,.19-.88.79.79,0,0,0-.55-.56,2.77,2.77,0,0,0-1.42,0q-3.36.63-5.13,4.92a14.73,14.73,0,0,0-1,8.5,6.08,6.08,0,0,0,1.69,3.52,3.58,3.58,0,0,0,3.26.79,6,6,0,0,0,3-1.52,12.69,12.69,0,0,0,2.35-2.89l.11-.2.7.35a15.55,15.55,0,0,1-2.3,3.39,9,9,0,0,1-5,2.73A6.16,6.16,0,0,1,363,355a6.87,6.87,0,0,1-2.65-4.56,12.56,12.56,0,0,1,2.25-9.47q3.09-4.68,7.54-5.52A5.11,5.11,0,0,1,374.08,336Z" style="fill:#263238"></path><path d="M340.49,125.69a37.16,37.16,0,0,1,6.32-2.8v-1.47a6,6,0,0,0-.35-2.45,2.46,2.46,0,0,0-2.42-1.15,3.36,3.36,0,0,0-1.68.45,1.43,1.43,0,0,0-.79,1.27,4.51,4.51,0,0,0,.09.7c0,.33.08.54.08.63a1.43,1.43,0,0,1-.63,1.34,1.6,1.6,0,0,1-.86.23,1.43,1.43,0,0,1-1.19-.51,1.74,1.74,0,0,1-.42-1.13,3.6,3.6,0,0,1,1.49-2.52A6.41,6.41,0,0,1,344.5,117q3.35,0,4.53,2.17a7.43,7.43,0,0,1,.64,3.46v6.91a4.33,4.33,0,0,0,.14,1.38.9.9,0,0,0,.93.67,1.54,1.54,0,0,0,.65-.12,7.32,7.32,0,0,0,.9-.59v.9a5.54,5.54,0,0,1-1.19,1.1,3.45,3.45,0,0,1-2,.66,1.9,1.9,0,0,1-1.69-.76,3.47,3.47,0,0,1-.58-1.81,16.14,16.14,0,0,1-2.24,1.69,5.86,5.86,0,0,1-3,.93,3.61,3.61,0,0,1-2.57-1,3.54,3.54,0,0,1-1.08-2.65A4.91,4.91,0,0,1,340.49,125.69Zm6.32-1.94a15.84,15.84,0,0,0-3.27,1.44q-2.49,1.55-2.49,3.48a2.64,2.64,0,0,0,1,2.31,2.53,2.53,0,0,0,1.5.48,4.16,4.16,0,0,0,2.18-.63,1.89,1.89,0,0,0,1-1.62Z" style="fill:#263238"></path><path d="M321.54,242.41a37.34,37.34,0,0,1,6.32-2.81v-1.46a6,6,0,0,0-.34-2.45,2.46,2.46,0,0,0-2.43-1.16,3.32,3.32,0,0,0-1.67.45,1.42,1.42,0,0,0-.79,1.28,4.17,4.17,0,0,0,.08.7,4.58,4.58,0,0,1,.09.62,1.42,1.42,0,0,1-.64,1.35,1.6,1.6,0,0,1-.86.22,1.45,1.45,0,0,1-1.19-.51,1.74,1.74,0,0,1-.41-1.12,3.57,3.57,0,0,1,1.49-2.53,6.38,6.38,0,0,1,4.36-1.32c2.23,0,3.74.73,4.54,2.17a7.62,7.62,0,0,1,.63,3.47v6.91a4.62,4.62,0,0,0,.14,1.37.9.9,0,0,0,.93.68,1.47,1.47,0,0,0,.66-.13,6.33,6.33,0,0,0,.89-.58v.9a5.83,5.83,0,0,1-1.19,1.1,3.5,3.5,0,0,1-2,.65,1.91,1.91,0,0,1-1.7-.76,3.41,3.41,0,0,1-.58-1.8,15.39,15.39,0,0,1-2.24,1.68,5.83,5.83,0,0,1-3,.93,3.55,3.55,0,0,1-2.56-1,3.47,3.47,0,0,1-1.09-2.64A4.91,4.91,0,0,1,321.54,242.41Zm6.32-1.95a15.82,15.82,0,0,0-3.27,1.45c-1.65,1-2.48,2.18-2.48,3.48a2.66,2.66,0,0,0,1,2.31,2.53,2.53,0,0,0,1.5.48,4.06,4.06,0,0,0,2.18-.64,1.85,1.85,0,0,0,1-1.62Z" style="fill:#263238"></path><path d="M302.39,108.05a3.51,3.51,0,0,1,.85,1.35l.11.33.53-1.76a2,2,0,0,1,.16-.4c0-.07.16-.11.34-.13l2.68-.3c.14,0,.22,0,.24.08a.48.48,0,0,1,0,.29c-.06.21-.11.36-.15.48s-.08.28-.15.5l-2.3,8.33c-.5,1.81-.93,3.38-1.28,4.7a36.22,36.22,0,0,0-.86,4.08.58.58,0,0,0,.18.47.63.63,0,0,0,.43.15.9.9,0,0,0,.46-.14,4.86,4.86,0,0,0,.63-.42l.41-.32.45-.38.58-.55,1.52-1.49.56.49a25.2,25.2,0,0,1-4,4.2,5,5,0,0,1-2.87,1.1,1.64,1.64,0,0,1-1.36-.6,2.35,2.35,0,0,1-.48-1.51,13,13,0,0,1,.31-2.4c.21-1,.42-1.92.62-2.64q-.42.7-1.41,2a16.14,16.14,0,0,1-2.42,2.6,11.44,11.44,0,0,1-3.26,2.14,7,7,0,0,1-2.32.42,4.75,4.75,0,0,1-3.42-1.55,6,6,0,0,1-1.53-4.39q0-4.89,4.42-10.2,4.57-5.52,9.46-5.52A4,4,0,0,1,302.39,108.05Zm-.76.88a2.54,2.54,0,0,0-1.88-.79q-3.83,0-7.12,5.83c-1.93,3.41-2.89,6.36-2.89,8.83a3.82,3.82,0,0,0,.8,2.71,2.59,2.59,0,0,0,2,.85q3.51,0,6.76-5.66,3.14-5.15,3.13-9.3A3.42,3.42,0,0,0,301.63,108.93Z" style="fill:#263238"></path><path d="M345.89,249.91a3.51,3.51,0,0,1,.85,1.35l.11.33.53-1.76a2,2,0,0,1,.16-.4c0-.07.16-.11.34-.13l2.68-.3c.14,0,.22,0,.24.08a.51.51,0,0,1,0,.3c-.06.2-.11.36-.15.47s-.08.28-.15.5l-2.3,8.33c-.5,1.81-.93,3.38-1.28,4.7a36.22,36.22,0,0,0-.86,4.08.58.58,0,0,0,.18.47.63.63,0,0,0,.43.15.9.9,0,0,0,.46-.14,5.85,5.85,0,0,0,.63-.41l.41-.33.45-.38.58-.55,1.52-1.49.56.49a25.2,25.2,0,0,1-4,4.2,4.89,4.89,0,0,1-2.87,1.1,1.64,1.64,0,0,1-1.36-.6,2.33,2.33,0,0,1-.48-1.51,13,13,0,0,1,.31-2.4c.21-1.05.42-1.92.62-2.64q-.42.7-1.41,2a16.14,16.14,0,0,1-2.42,2.6,11.44,11.44,0,0,1-3.26,2.14,7,7,0,0,1-2.32.42,4.75,4.75,0,0,1-3.42-1.55,6,6,0,0,1-1.53-4.39q0-4.89,4.42-10.2Q338.14,249,343,249A4,4,0,0,1,345.89,249.91Zm-.76.89a2.52,2.52,0,0,0-1.88-.8q-3.83,0-7.12,5.83-2.89,5.13-2.89,8.83a3.82,3.82,0,0,0,.8,2.71,2.59,2.59,0,0,0,2,.85q3.51,0,6.76-5.66,3.14-5.15,3.13-9.3A3.38,3.38,0,0,0,345.13,250.8Z" style="fill:#263238"></path><path d="M316.19,181.56a7,7,0,0,1,1.43,4.38c0,2.93-1.3,5.79-3.87,8.61s-5.51,4.38-8.53,4.38a6.31,6.31,0,0,1-4.57-1.65,6.15,6.15,0,0,1-1.72-4.66q0-4.53,3.85-8.67t8.5-4.24C313.6,179.71,315.23,180.33,316.19,181.56Zm-12.82,15.32a3,3,0,0,0,2.51,1.12c2.25,0,4.25-1.69,6-5.09a17.89,17.89,0,0,0,2.22-8,7,7,0,0,0-.38-2.51,2.63,2.63,0,0,0-2.65-1.8c-2.1,0-4.09,1.58-5.93,4.74a17.09,17.09,0,0,0-2.61,8.71A4.6,4.6,0,0,0,303.37,196.88Z" style="fill:#263238"></path><path d="M331.62,342.29a2.56,2.56,0,0,0,.1-.54c0-.18,0-.32,0-.43a.78.78,0,0,0-.57-.86,9.68,9.68,0,0,0-2.24-.13v-.69l2.15-.29c.81-.11,1.34-.18,1.59-.23.78-.13,1.72-.34,2.83-.62a.37.37,0,0,1,.29.21l-6.88,24.87c-.16.6-.25.95-.27,1.08a1.57,1.57,0,0,0-.05.37,1.38,1.38,0,0,0,.15.67.54.54,0,0,0,.54.28c.49,0,1.14-.44,1.94-1.32a21.63,21.63,0,0,0,2-2.57l.56.4a29.55,29.55,0,0,1-2.78,3.64,5,5,0,0,1-3.47,1.71,2.37,2.37,0,0,1-1.32-.37,2,2,0,0,1-.89-1.9,7.75,7.75,0,0,1,.16-1.39c.08-.34.17-.74.29-1.2Z" style="fill:#263238"></path><path d="M326.15,176.36q7.5-7.87,15.51-7.88a7.47,7.47,0,0,1,4.71,1.36,4.83,4.83,0,0,1,1.74,4q0,5.46-6.39,9.34A33.75,33.75,0,0,1,328.27,188l-2.16.26a23.74,23.74,0,0,0-.68,2.49,11.62,11.62,0,0,0-.19,2.33,6.44,6.44,0,0,0,2.18,5.2,7.72,7.72,0,0,0,5.18,1.86,12,12,0,0,0,6-1.9,49.6,49.6,0,0,0,5.27-3.95l1,.88a23.7,23.7,0,0,1-4.9,4.43,19.33,19.33,0,0,1-11.34,4.06,10,10,0,0,1-7.06-2.84q-3-2.84-3-8.15Q318.56,184.25,326.15,176.36Zm12.29,5.08q4.55-4,4.55-8a3.59,3.59,0,0,0-.68-2.29,2.43,2.43,0,0,0-2-.85,7.28,7.28,0,0,0-4.84,2.1,28.54,28.54,0,0,0-4.27,4.75,37,37,0,0,0-3.18,5.94c-.43,1-.89,2.16-1.37,3.44A22.13,22.13,0,0,0,338.44,181.44Z" style="fill:#263238"></path><path d="M367.29,150.33a10.71,10.71,0,0,1,3.14-2.32,3.56,3.56,0,0,1-.71-.58,1.16,1.16,0,0,1-.27-.8,2.44,2.44,0,0,1,1-1.62,15.9,15.9,0,0,1,1.79-1.36,5.44,5.44,0,0,1-1.89-1.17,3.66,3.66,0,0,1-1-2.64,5.45,5.45,0,0,1,2-4.32,7.53,7.53,0,0,1,5-1.72,6.42,6.42,0,0,1,2.66.49,3,3,0,0,1,1.27.82h2.33v1.38h-1.76c.07.26.12.48.16.69a6.41,6.41,0,0,1,.05.88,5.15,5.15,0,0,1-2.17,4.39,7.71,7.71,0,0,1-4.66,1.6,3.64,3.64,0,0,1-.48,0l-.55-.09c-.17,0-.41.16-.7.5a1.36,1.36,0,0,0-.47.89c0,.39,1.26,1.06,3.79,2s3.77,2.35,3.77,4.19a4.61,4.61,0,0,1-1.89,3.62c-1.27,1-3.17,1.56-5.72,1.56a7.05,7.05,0,0,1-4.21-1.13,3.38,3.38,0,0,1-1.55-2.78A3.68,3.68,0,0,1,367.29,150.33Zm8.85,4.62a2.84,2.84,0,0,0,1.35-2.34,2.36,2.36,0,0,0-.7-1.74,5.19,5.19,0,0,0-1.23-.81c-.47-.23-1.26-.56-2.38-1a11.3,11.3,0,0,0-1.94-.65q-.45,0-1.74,1.2a3.62,3.62,0,0,0-1.29,2.71,3.16,3.16,0,0,0,2,3.16,6.59,6.59,0,0,0,2.55.44A5.61,5.61,0,0,0,376.14,155Zm-3.68-12.68a2,2,0,0,0,2,1c1,0,2-.65,2.77-2a8.1,8.1,0,0,0,1.21-4.35,2.79,2.79,0,0,0-.5-1.78,1.77,1.77,0,0,0-1.5-.65,3.54,3.54,0,0,0-3.11,2.05,8,8,0,0,0-1.18,3.95A3.7,3.7,0,0,0,372.46,142.27Z" style="fill:#263238"></path><path d="M311.15,300.06a18.35,18.35,0,0,1,5.33-3.92,5.84,5.84,0,0,1-1.2-1,1.94,1.94,0,0,1-.47-1.36,4.17,4.17,0,0,1,1.67-2.74,26.37,26.37,0,0,1,3-2.31,9.54,9.54,0,0,1-3.21-2,6.23,6.23,0,0,1-1.63-4.47,9.2,9.2,0,0,1,3.44-7.33,12.77,12.77,0,0,1,8.52-2.92,10.79,10.79,0,0,1,4.5.84,5.17,5.17,0,0,1,2.16,1.38h3.94v2.35h-3a11.84,11.84,0,0,1,.27,1.17,11,11,0,0,1,.08,1.49,8.74,8.74,0,0,1-3.66,7.43,13,13,0,0,1-7.9,2.71,6.86,6.86,0,0,1-.81,0c-.26,0-.57-.08-.94-.16s-.69.28-1.19.85a2.36,2.36,0,0,0-.79,1.51c0,.67,2.14,1.79,6.42,3.39s6.39,4,6.39,7.09a7.8,7.8,0,0,1-3.21,6.15q-3.21,2.64-9.69,2.64a11.75,11.75,0,0,1-7.12-1.93,5.68,5.68,0,0,1-2.63-4.7A6.34,6.34,0,0,1,311.15,300.06Zm15,7.84a4.82,4.82,0,0,0,2.29-4,4,4,0,0,0-1.19-2.95,8.44,8.44,0,0,0-2.08-1.37c-.79-.39-2.14-.95-4-1.68a18.44,18.44,0,0,0-3.28-1.09c-.51,0-1.49.67-3,2a6.12,6.12,0,0,0-2.19,4.59,5.33,5.33,0,0,0,3.36,5.34,10.78,10.78,0,0,0,4.32.76A9.53,9.53,0,0,0,326.15,307.9Zm-6.23-21.48a3.46,3.46,0,0,0,3.36,1.78q2.63,0,4.68-3.35a13.77,13.77,0,0,0,2.06-7.37,4.8,4.8,0,0,0-.85-3,3,3,0,0,0-2.54-1.09c-2.17,0-3.93,1.16-5.26,3.47a13.37,13.37,0,0,0-2,6.69A6.39,6.39,0,0,0,319.92,286.42Z" style="fill:#263238"></path><path d="M341.41,210.6a3.56,3.56,0,0,1,.12-.62l5.64-20.36h-4.44a2.5,2.5,0,0,1,.12-1,1.3,1.3,0,0,1,.59-.41,24.79,24.79,0,0,0,4.59-2.43,28.44,28.44,0,0,0,4.44-4.51l.47-.55a.57.57,0,0,1,.22-.19.57.57,0,0,1,.28-.08,1.91,1.91,0,0,1,.41.12,1.66,1.66,0,0,1,.1.36,1.32,1.32,0,0,1,0,.34l-1.71,6.36H357l-.35,2h-5l-5.37,19.6a1.33,1.33,0,0,0,.09,1,.79.79,0,0,0,.78.48c.51,0,1.22-.5,2.13-1.51.53-.55,1.42-1.63,2.66-3.24l.76.44-.41.61a22.24,22.24,0,0,1-4.43,5.23,6,6,0,0,1-3.63,1.48,2.52,2.52,0,0,1-2.84-2.57Q341.38,210.92,341.41,210.6Z" style="fill:#263238"></path><path d="M360.71,104.46h1a18.77,18.77,0,0,0,1.52,5.16,5.14,5.14,0,0,0,4.79,3,4,4,0,0,0,3-1.25,4.6,4.6,0,0,0,1.22-3.33,6.12,6.12,0,0,0-.31-2.1,6.77,6.77,0,0,0-.77-1.49l-2.42-3.59a51.53,51.53,0,0,1-2.75-4.37,7.34,7.34,0,0,1-.84-3.33,6.38,6.38,0,0,1,1.82-4.48,6.78,6.78,0,0,1,5.18-1.94,11.82,11.82,0,0,1,3.27.54,11,11,0,0,0,2.5.54,1.62,1.62,0,0,0,1.08-.29,2.78,2.78,0,0,0,.65-.79h.84L379.24,95h-1a13,13,0,0,0-1.14-4.26,4.66,4.66,0,0,0-4.43-2.65,3.53,3.53,0,0,0-2.29.8,2.83,2.83,0,0,0-1,2.35,4.57,4.57,0,0,0,.46,2.1,31.93,31.93,0,0,0,2.05,3.21l2.07,3a27,27,0,0,1,2.28,3.76,7.45,7.45,0,0,1,.67,3.15,6.57,6.57,0,0,1-2.68,5.31,9.88,9.88,0,0,1-6.39,2.16,16.74,16.74,0,0,1-3.41-.49,23.17,23.17,0,0,0-2.57-.5,1.23,1.23,0,0,0-.86.26,2.34,2.34,0,0,0-.51.79h-1Z" style="fill:#263238"></path><path d="M365.18,249.11a2,2,0,0,1,1.55-.61,2.59,2.59,0,0,1,1.18.25,5.51,5.51,0,0,1,1.07.73l.37.27a1.07,1.07,0,0,0,.36.2,1.33,1.33,0,0,0,.45.07q1.3,0,4.21-3.46t2.9-5a33.29,33.29,0,0,0-1-5.87q-1-4.36-1.93-7.79a27.33,27.33,0,0,0-2.4-6.51,3.53,3.53,0,0,0-3.19-1.71l-.55,0-1.32.15V219l7.29-1.42.56,0c.45-.05,1.3,1.95,2.57,6a66.33,66.33,0,0,1,2.12,8l1.08,6.38q2.82-4.71,4.12-7.23c1.72-3.3,2.57-5.61,2.57-6.93a2.59,2.59,0,0,0-.16-.9,1.44,1.44,0,0,0-.75-.76l-.45-.24a4,4,0,0,1-1-.81,2.11,2.11,0,0,1-.58-1.57,2,2,0,0,1,.54-1.4,2.12,2.12,0,0,1,1.6-.56,3,3,0,0,1,2.17.79,3.62,3.62,0,0,1,.82,2.69q0,2.87-3.12,9.2a92.48,92.48,0,0,1-5.38,9.36,81.77,81.77,0,0,1-6.38,8.73q-4.26,4.85-7.06,4.84a3.07,3.07,0,0,1-1.94-.67,2.35,2.35,0,0,1-.31-3.29Z" style="fill:#263238"></path></g></svg>
