<svg xmlns="http://www.w3.org/2000/svg" viewBox="0 0 500 500"><g id="freepik--background-simple--inject-22"><path d="M402.82,122.51a210.4,210.4,0,0,0-57.34-40.24C313.86,67.48,279,60.36,244.2,59.93c-101.79-1.23-109.54,118.35-140.84,135s-88,18.59-90,85.09c-1.23,41.83,8.54,84.85,36,117.44,25.15,29.85,62.09,45,98.49,56.15,40.88,12.56,84.23,24.87,127.23,16.4,44.13-8.69,75.13-43.63,111.36-67.24,22.82-14.87,43.3-30.52,57.39-54.38,1.68-2.84,3.26-5.76,4.76-8.71,18.86-37.06,22.56-79.82,12.16-119.93C451.43,183.72,430.36,149.45,402.82,122.51Z" style="fill:#FFC100"></path><path d="M402.82,122.51a210.4,210.4,0,0,0-57.34-40.24C313.86,67.48,279,60.36,244.2,59.93c-101.79-1.23-109.54,118.35-140.84,135s-88,18.59-90,85.09c-1.23,41.83,8.54,84.85,36,117.44,25.15,29.85,62.09,45,98.49,56.15,40.88,12.56,84.23,24.87,127.23,16.4,44.13-8.69,75.13-43.63,111.36-67.24,22.82-14.87,43.3-30.52,57.39-54.38,1.68-2.84,3.26-5.76,4.76-8.71,18.86-37.06,22.56-79.82,12.16-119.93C451.43,183.72,430.36,149.45,402.82,122.51Z" style="fill:#fff;opacity:0.7000000000000001"></path></g><g id="freepik--Symbol--inject-22"><path d="M402.38,139.9a2.45,2.45,0,0,1,.11.65q0,.38,0,.69a6.09,6.09,0,0,1-.19,1.57,3.48,3.48,0,0,1-.6,1.29,3.08,3.08,0,0,1-1.08.9,3.67,3.67,0,0,1-1.68.35,4.69,4.69,0,0,1-1.92-.42,23,23,0,0,1-2.33-1.2L384.8,138a8,8,0,0,1-.65-7.15,4,4,0,0,1,1.62-1.66l12.69-7.39a5.71,5.71,0,0,1,3.07,1.64,3.62,3.62,0,0,1,.8,2.24,3.65,3.65,0,0,1-.8,2.51,7.88,7.88,0,0,1-2.38,1.69L391,134Z" style="fill:none;stroke:#263238;stroke-linecap:round;stroke-linejoin:round"></path><path d="M419.68,150.43c-.43.06-.84.09-1.24.11s-.77,0-1.11,0a4.66,4.66,0,0,1-3-.83,3.21,3.21,0,0,1-1-2.67,9.24,9.24,0,0,1,.36-2.52c.25-.84.47-1.59.65-2.24l8.12-29.3c.46-.06.89-.1,1.3-.12l1.1,0a4.85,4.85,0,0,1,2.93.79,2.88,2.88,0,0,1,1.09,2.53,8.76,8.76,0,0,1-.37,2.54q-.37,1.2-.69,2.4Z" style="fill:none;stroke:#263238;stroke-linecap:round;stroke-linejoin:round"></path><path d="M439.8,127.26a2.45,2.45,0,0,1-.11-.65c0-.24,0-.47,0-.69a6.62,6.62,0,0,1,.18-1.57,3.48,3.48,0,0,1,.6-1.29,3.12,3.12,0,0,1,1.09-.9,3.61,3.61,0,0,1,1.68-.35,4.64,4.64,0,0,1,1.91.42c.63.28,1.41.68,2.33,1.2l9.93,5.72a6.66,6.66,0,0,1,1.2,4.15,6.54,6.54,0,0,1-.56,3,4,4,0,0,1-1.61,1.67l-12.69,7.38a5.67,5.67,0,0,1-3.07-1.64,3.57,3.57,0,0,1-.81-2.24,3.62,3.62,0,0,1,.81-2.51,8.13,8.13,0,0,1,2.37-1.69l8.13-4.1Z" style="fill:none;stroke:#263238;stroke-linecap:round;stroke-linejoin:round"></path></g><g id="freepik--Controls--inject-22"><polyline points="252.39 135.63 252.39 148.43 288.63 148.43 288.63 118.73 318.32 118.73 318.32 82.5 301.6 82.5" style="fill:none;stroke:#263238;stroke-linecap:round;stroke-linejoin:round"></polyline><polyline points="237.63 82.5 222.69 82.5 222.69 118.73 252.39 118.73 252.39 129.36" style="fill:none;stroke:#263238;stroke-linecap:round;stroke-linejoin:round"></polyline><polyline points="296.51 82.5 288.63 82.5 288.63 52.8 252.39 52.8 252.39 82.5 244.8 82.5" style="fill:none;stroke:#263238;stroke-linecap:round;stroke-linejoin:round"></polyline><circle cx="270.51" cy="100.61" r="7.54" style="fill:none;stroke:#263238;stroke-linecap:round;stroke-linejoin:round"></circle><polygon points="270.9 64.45 265.08 74.54 276.73 74.54 270.9 64.45" style="fill:none;stroke:#263238;stroke-linecap:round;stroke-linejoin:round"></polygon><polygon points="270.9 139.1 276.73 129 265.08 129 270.9 139.1" style="fill:none;stroke:#263238;stroke-linecap:round;stroke-linejoin:round"></polygon><polygon points="233.58 101.77 243.67 107.6 243.67 95.95 233.58 101.77" style="fill:none;stroke:#263238;stroke-linecap:round;stroke-linejoin:round"></polygon><polygon points="308.23 101.77 298.13 95.95 298.13 107.6 308.23 101.77" style="fill:none;stroke:#263238;stroke-linecap:round;stroke-linejoin:round"></polygon></g><g id="freepik--Hearts--inject-22"><path d="M405.15,211.84a4.88,4.88,0,0,0-6.91,0l-1.58,1.58-1.58-1.58a4.89,4.89,0,0,0-6.91,6.91l8.33,8.34.16-.16.16.16,8.33-8.34A4.88,4.88,0,0,0,405.15,211.84Z" style="fill:none;stroke:#263238;stroke-linecap:round;stroke-linejoin:round"></path><path d="M428.07,211.84a4.88,4.88,0,0,0-6.91,0l-1.58,1.58L418,211.84a4.89,4.89,0,1,0-6.91,6.91l8.33,8.34.16-.16.16.16,8.33-8.34A4.88,4.88,0,0,0,428.07,211.84Z" style="fill:none;stroke:#263238;stroke-linecap:round;stroke-linejoin:round"></path><path d="M451,211.84a4.88,4.88,0,0,0-6.91,0l-1.58,1.58-1.58-1.58a4.89,4.89,0,0,0-6.91,6.91l8.33,8.34.16-.16.16.16,8.33-8.34A4.88,4.88,0,0,0,451,211.84Z" style="fill:none;stroke:#263238;stroke-linecap:round;stroke-linejoin:round"></path><path d="M114.51,99.07a5.67,5.67,0,0,0-7.5,0l-1.71,1.57-1.72-1.57a5.67,5.67,0,0,0-7.5,0,4.57,4.57,0,0,0,0,6.86l9,8.27.18-.16.17.16,9-8.27A4.57,4.57,0,0,0,114.51,99.07Z" style="fill:none;stroke:#263238;stroke-linecap:round;stroke-linejoin:round"></path><path d="M139.37,99.07a5.67,5.67,0,0,0-7.5,0l-1.71,1.57-1.72-1.57a5.67,5.67,0,0,0-7.5,0,4.57,4.57,0,0,0,0,6.86L130,114.2l.17-.16.17.16,9-8.27A4.57,4.57,0,0,0,139.37,99.07Z" style="fill:none;stroke:#263238;stroke-linecap:round;stroke-linejoin:round"></path><path d="M164.23,99.07a5.66,5.66,0,0,0-7.49,0L155,100.64l-1.71-1.57a5.67,5.67,0,0,0-7.5,0,4.57,4.57,0,0,0,0,6.86l9,8.27L155,114l.17.16,9-8.27A4.55,4.55,0,0,0,164.23,99.07Z" style="fill:none;stroke:#263238;stroke-linecap:round;stroke-linejoin:round"></path></g><g id="freepik--Drink--inject-22"><rect x="380.99" y="263.91" width="20.76" height="7.28" style="fill:#fff;stroke:#263238;stroke-linecap:round;stroke-linejoin:round"></rect><polygon points="401.93 271.19 380.8 271.19 383.44 299.05 399.29 299.05 401.93 271.19" style="fill:#FFC100;stroke:#263238;stroke-linecap:round;stroke-linejoin:round"></polygon><rect x="378.72" y="269.91" width="25.29" height="4.29" style="fill:#fff;stroke:#263238;stroke-linecap:round;stroke-linejoin:round"></rect></g><g id="freepik--Desk--inject-22"><rect x="247.65" y="181.57" width="123.66" height="96.75" style="fill:#263238;stroke:#263238;stroke-linecap:round;stroke-linejoin:round"></rect><rect x="251.64" y="184.69" width="115.68" height="86.88" style="fill:#fff;stroke:#263238;stroke-linecap:round;stroke-linejoin:round"></rect><rect x="336.87" y="184.69" width="30.45" height="86.88" style="fill:#263238;stroke:#263238;stroke-linecap:round;stroke-linejoin:round"></rect><rect x="251.64" y="184.69" width="115.68" height="4.75" style="fill:#fff;stroke:#263238;stroke-linecap:round;stroke-linejoin:round"></rect><rect x="263.95" y="239.19" width="12.47" height="25.07" style="fill:#fff;stroke:#263238;stroke-linecap:round;stroke-linejoin:round"></rect><rect x="263.95" y="252.4" width="12.47" height="11.86" style="fill:#fff;stroke:#263238;stroke-linecap:round;stroke-linejoin:round"></rect><line x1="264.2" y1="254.5" x2="276.3" y2="254.5" style="fill:#fff;stroke:#263238;stroke-linecap:round;stroke-linejoin:round"></line><line x1="264.2" y1="256.85" x2="276.3" y2="256.85" style="fill:#fff;stroke:#263238;stroke-linecap:round;stroke-linejoin:round"></line><line x1="264.2" y1="259.19" x2="276.3" y2="259.19" style="fill:#fff;stroke:#263238;stroke-linecap:round;stroke-linejoin:round"></line><line x1="264.2" y1="261.54" x2="276.3" y2="261.54" style="fill:#fff;stroke:#263238;stroke-linecap:round;stroke-linejoin:round"></line><path d="M262.87,257h6.39a0,0,0,0,1,0,0v7.29a0,0,0,0,1,0,0H256.79a0,0,0,0,1,0,0v-1.2A6.08,6.08,0,0,1,262.87,257Z" style="fill:#fff;stroke:#263238;stroke-linecap:round;stroke-linejoin:round"></path><rect x="282.72" y="239.19" width="12.47" height="25.07" transform="translate(577.92 503.44) rotate(180)" style="fill:#fff;stroke:#263238;stroke-linecap:round;stroke-linejoin:round"></rect><rect x="282.72" y="252.4" width="12.47" height="11.86" style="fill:#fff;stroke:#263238;stroke-linecap:round;stroke-linejoin:round"></rect><line x1="294.95" y1="254.5" x2="282.85" y2="254.5" style="fill:#fff;stroke:#263238;stroke-linecap:round;stroke-linejoin:round"></line><line x1="294.95" y1="256.85" x2="282.85" y2="256.85" style="fill:#fff;stroke:#263238;stroke-linecap:round;stroke-linejoin:round"></line><line x1="294.95" y1="259.19" x2="282.85" y2="259.19" style="fill:#fff;stroke:#263238;stroke-linecap:round;stroke-linejoin:round"></line><line x1="294.95" y1="261.54" x2="282.85" y2="261.54" style="fill:#fff;stroke:#263238;stroke-linecap:round;stroke-linejoin:round"></line><path d="M289.89,257h12.47a0,0,0,0,1,0,0v7.29a0,0,0,0,1,0,0H296a6.08,6.08,0,0,1-6.08-6.08V257A0,0,0,0,1,289.89,257Z" transform="translate(592.25 521.23) rotate(180)" style="fill:#fff;stroke:#263238;stroke-linecap:round;stroke-linejoin:round"></path><polygon points="264.08 235.98 264.08 241.57 276.33 250.55 282.51 250.55 294.18 241.96 294.18 235.98 264.08 235.98" style="fill:#FFC100;stroke:#263238;stroke-linecap:round;stroke-linejoin:round"></polygon><rect x="264.08" y="213.69" width="30.01" height="22.29" style="fill:#fff;stroke:#263238;stroke-linecap:round;stroke-linejoin:round"></rect><rect x="264.56" y="228.91" width="29.62" height="7.53" style="fill:#263238;stroke:#263238;stroke-linecap:round;stroke-linejoin:round"></rect><path d="M259.07,217.74s-3.05,4.38-3.05,8.09v21.95a1,1,0,0,0,1,1h7.83a1,1,0,0,0,1-1h0a1,1,0,0,1,1-1H268a1,1,0,0,0,1-1V217.61S262.12,213.49,259.07,217.74Z" style="fill:#fff;stroke:#263238;stroke-linecap:round;stroke-linejoin:round"></path><rect x="256.02" y="232.59" width="13" height="8.36" style="fill:#263238;stroke:#263238;stroke-linecap:round;stroke-linejoin:round"></rect><path d="M301.29,217.74s3,4.38,3,8.09v21.95a1,1,0,0,1-1,1h-7.83a1,1,0,0,1-1-1h0a1,1,0,0,0-1-1h-1.2a1,1,0,0,1-1-1V217.61S298.23,213.49,301.29,217.74Z" style="fill:#fff;stroke:#263238;stroke-linecap:round;stroke-linejoin:round"></path><rect x="291.34" y="232.59" width="13" height="8.36" style="fill:#263238;stroke:#263238;stroke-linecap:round;stroke-linejoin:round"></rect><path d="M276.63,210.43a12.15,12.15,0,0,0-11.42.53c-5.87,3.52-5.44,7.58-4.48,9s3.09,1.6,5,.75,3-4.16,6.94-4.59,6-1.49,5.55-4.05S276.63,210.43,276.63,210.43Z" style="fill:#fff;stroke:#263238;stroke-linecap:round;stroke-linejoin:round"></path><path d="M283.9,210.43a12.15,12.15,0,0,1,11.42.53c5.87,3.52,5.44,7.58,4.48,9s-3.09,1.6-5,.75-3-4.16-6.94-4.59-6-1.49-5.55-4.05S283.9,210.43,283.9,210.43Z" style="fill:#fff;stroke:#263238;stroke-linecap:round;stroke-linejoin:round"></path><path d="M282.71,200.16h5.39l1.38-3.44a.25.25,0,0,1,.48.09v5.49a2.7,2.7,0,0,1-2.7,2.7h-4.55Z" style="fill:#fff;stroke:#263238;stroke-linecap:round;stroke-linejoin:round"></path><path d="M277.76,200.16h-5.39L271,196.72a.25.25,0,0,0-.48.09v5.49a2.69,2.69,0,0,0,2.69,2.7h4.56Z" style="fill:#fff;stroke:#263238;stroke-linecap:round;stroke-linejoin:round"></path><path d="M276.31,205.18a7.19,7.19,0,0,0-.55,2.79c0,3.19,2,5.77,4.38,5.77s4.37-2.58,4.37-5.77a7.19,7.19,0,0,0-.55-2.79Z" style="fill:#fff;stroke:#263238;stroke-linecap:round;stroke-linejoin:round"></path><path d="M276.31,205.18s.58-7.81,4.3-7.62,3.35,7.62,3.35,7.62Z" style="fill:#263238;stroke:#263238;stroke-linecap:round;stroke-linejoin:round"></path><path d="M276.31,208.06a7.19,7.19,0,0,0-.55,2.79c0,3.19,2,5.77,4.38,5.77s4.37-2.58,4.37-5.77a7.19,7.19,0,0,0-.55-2.79Z" style="fill:#FFC100;stroke:#263238;stroke-linecap:round;stroke-linejoin:round"></path><rect x="279.08" y="205.09" width="1.92" height="4.37" style="fill:#fff;stroke:#263238;stroke-linecap:round;stroke-linejoin:round"></rect><line x1="280.14" y1="216.62" x2="280.14" y2="228.74" style="fill:#fff;stroke:#263238;stroke-linecap:round;stroke-linejoin:round"></line><rect x="335.57" y="189.43" width="3.35" height="81.81" style="fill:#fff;stroke:#263238;stroke-linecap:round;stroke-linejoin:round"></rect><rect x="306.21" y="192.99" width="5.95" height="5.95" style="fill:#FFC100;stroke:#263238;stroke-linecap:round;stroke-linejoin:round"></rect><rect x="306.21" y="201.17" width="5.95" height="5.95" style="fill:#263238;stroke:#263238;stroke-linecap:round;stroke-linejoin:round"></rect><rect x="306.21" y="209.22" width="5.95" height="5.95" style="fill:#fff;stroke:#263238;stroke-linecap:round;stroke-linejoin:round"></rect><path d="M342.9,195.37h-1.53A.37.37,0,0,1,341,195a.38.38,0,0,1,.37-.38h1.53a.37.37,0,0,1,.37.38A.36.36,0,0,1,342.9,195.37Zm.37,1.37a.37.37,0,0,0-.37-.38h-1.53a.38.38,0,0,0-.37.38.37.37,0,0,0,.37.37h1.53A.36.36,0,0,0,343.27,196.74Zm0,1.74a.37.37,0,0,0-.37-.38h-1.53a.38.38,0,0,0,0,.76h1.53A.37.37,0,0,0,343.27,198.48Zm0,1.74a.37.37,0,0,0-.37-.38h-1.53a.38.38,0,0,0,0,.76h1.53A.37.37,0,0,0,343.27,200.22Zm0,1.74a.36.36,0,0,0-.37-.37h-1.53a.37.37,0,0,0-.37.37.38.38,0,0,0,.37.38h1.53A.37.37,0,0,0,343.27,202Zm0,1.74a.37.37,0,0,0-.37-.37h-1.53a.38.38,0,0,0,0,.75h1.53A.37.37,0,0,0,343.27,203.7Zm0,1.74a.37.37,0,0,0-.37-.37h-1.53a.38.38,0,0,0,0,.75h1.53A.37.37,0,0,0,343.27,205.44Zm0,1.75a.37.37,0,0,0-.37-.38h-1.53a.38.38,0,0,0,0,.75h1.53A.37.37,0,0,0,343.27,207.19ZM349,195a.37.37,0,0,0-.37-.38h-4a.38.38,0,0,0-.38.38.37.37,0,0,0,.38.37h4A.36.36,0,0,0,349,195Zm0,1.74a.37.37,0,0,0-.37-.38h-4a.38.38,0,0,0-.38.38.37.37,0,0,0,.38.37h4A.36.36,0,0,0,349,196.74Zm0,1.74a.37.37,0,0,0-.37-.38h-4a.38.38,0,0,0,0,.76h4A.37.37,0,0,0,349,198.48Zm0,1.74a.37.37,0,0,0-.37-.38h-4a.38.38,0,0,0,0,.76h4A.37.37,0,0,0,349,200.22Zm0,1.74a.36.36,0,0,0-.37-.37h-4a.37.37,0,0,0-.38.37.38.38,0,0,0,.38.38h4A.37.37,0,0,0,349,202Zm4.79,1.74a.38.38,0,0,0-.37-.37h-4a.38.38,0,1,0,0,.75h4A.38.38,0,0,0,353.76,203.7Zm0,1.74a.38.38,0,0,0-.37-.37h-4a.38.38,0,1,0,0,.75h4A.38.38,0,0,0,353.76,205.44Zm0,1.75a.38.38,0,0,0-.37-.38h-4a.38.38,0,1,0,0,.75h4A.38.38,0,0,0,353.76,207.19Zm-3-12.19a.44.44,0,0,0-.43-.44.44.44,0,0,0-.44.44.44.44,0,0,0,.44.43A.43.43,0,0,0,350.73,195Zm1.31,0a.44.44,0,0,0-.44-.44.44.44,0,0,0-.43.44.43.43,0,0,0,.43.43A.44.44,0,0,0,352,195Zm1.3,0a.44.44,0,0,0-.43-.44.44.44,0,0,0-.44.44.44.44,0,0,0,.44.43A.43.43,0,0,0,353.34,195Zm1.31,0a.44.44,0,1,0-.87,0,.44.44,0,0,0,.87,0Zm1.31,0a.44.44,0,0,0-.44-.44.44.44,0,0,0-.43.44.43.43,0,0,0,.43.43A.44.44,0,0,0,356,195Zm1.3,0a.44.44,0,0,0-.43-.44.44.44,0,0,0-.44.44.44.44,0,0,0,.44.43A.43.43,0,0,0,357.26,195Zm-6.53,3.48a.44.44,0,0,0-.43-.44.44.44,0,0,0-.44.44.44.44,0,0,0,.44.43A.43.43,0,0,0,350.73,198.48Zm1.31,0a.44.44,0,0,0-.44-.44.44.44,0,0,0-.43.44.43.43,0,0,0,.43.43A.44.44,0,0,0,352,198.48Zm1.3,0a.44.44,0,0,0-.43-.44.44.44,0,0,0-.44.44.44.44,0,0,0,.44.43A.43.43,0,0,0,353.34,198.48Zm1.31,0a.44.44,0,1,0-.87,0,.44.44,0,0,0,.87,0Zm1.31,0a.44.44,0,0,0-.44-.44.44.44,0,0,0-.43.44.43.43,0,0,0,.43.43A.44.44,0,0,0,356,198.48Zm1.3,0a.44.44,0,0,0-.43-.44.44.44,0,0,0-.44.44.44.44,0,0,0,.44.43A.43.43,0,0,0,357.26,198.48Zm-2.07,5a.43.43,0,0,0-.43-.44.44.44,0,1,0,0,.87A.43.43,0,0,0,355.19,203.49Zm1.31,0a.44.44,0,1,0-.43.43A.43.43,0,0,0,356.5,203.49Zm1.31,0a.44.44,0,0,0-.44-.44.44.44,0,0,0,0,.87A.44.44,0,0,0,357.81,203.49Zm1.3,0a.43.43,0,0,0-.43-.44.44.44,0,1,0,0,.87A.43.43,0,0,0,359.11,203.49Zm1.31,0a.44.44,0,0,0-.44-.44.44.44,0,0,0,0,.87A.44.44,0,0,0,360.42,203.49Zm1.3,0a.43.43,0,0,0-.43-.44.44.44,0,1,0,0,.87A.43.43,0,0,0,361.72,203.49Zm-6.53,3.59a.44.44,0,0,0-.43-.44.44.44,0,0,0-.44.44.44.44,0,0,0,.44.43A.43.43,0,0,0,355.19,207.08Zm1.31,0a.44.44,0,1,0-.87,0,.44.44,0,0,0,.87,0Zm1.31,0a.44.44,0,0,0-.44-.44.44.44,0,0,0-.43.44.43.43,0,0,0,.43.43A.44.44,0,0,0,357.81,207.08Zm1.3,0a.44.44,0,0,0-.43-.44.44.44,0,0,0-.44.44.44.44,0,0,0,.44.43A.43.43,0,0,0,359.11,207.08Zm1.31,0a.44.44,0,0,0-.44-.44.44.44,0,0,0-.43.44.43.43,0,0,0,.43.43A.44.44,0,0,0,360.42,207.08Zm1.3,0a.44.44,0,0,0-.43-.44.44.44,0,0,0-.44.44.44.44,0,0,0,.44.43A.43.43,0,0,0,361.72,207.08Z" style="fill:#FFC100"></path><path d="M342.9,209.64h-1.53a.38.38,0,0,1,0-.75h1.53a.38.38,0,0,1,0,.75Zm.37,1.37a.37.37,0,0,0-.37-.38h-1.53a.38.38,0,0,0,0,.75h1.53A.37.37,0,0,0,343.27,211Zm0,1.74a.37.37,0,0,0-.37-.38h-1.53a.38.38,0,0,0-.37.38.37.37,0,0,0,.37.37h1.53A.36.36,0,0,0,343.27,212.75Zm0,1.74a.37.37,0,0,0-.37-.38h-1.53a.38.38,0,0,0-.37.38.37.37,0,0,0,.37.37h1.53A.36.36,0,0,0,343.27,214.49Zm0,1.74a.37.37,0,0,0-.37-.38h-1.53a.38.38,0,0,0,0,.76h1.53A.37.37,0,0,0,343.27,216.23Zm0,1.74a.36.36,0,0,0-.37-.37h-1.53a.37.37,0,0,0-.37.37.38.38,0,0,0,.37.38h1.53A.37.37,0,0,0,343.27,218Zm0,1.74a.36.36,0,0,0-.37-.37h-1.53a.37.37,0,0,0-.37.37.38.38,0,0,0,.37.38h1.53A.37.37,0,0,0,343.27,219.71Zm0,1.74a.37.37,0,0,0-.37-.37h-1.53a.38.38,0,0,0,0,.75h1.53A.37.37,0,0,0,343.27,221.45Zm5.7-12.18a.37.37,0,0,0-.37-.38h-4a.38.38,0,1,0,0,.75h4A.37.37,0,0,0,349,209.27Zm0,1.74a.37.37,0,0,0-.37-.38h-4a.38.38,0,1,0,0,.75h4A.37.37,0,0,0,349,211Zm0,1.74a.37.37,0,0,0-.37-.38h-4a.38.38,0,0,0-.38.38.37.37,0,0,0,.38.37h4A.36.36,0,0,0,349,212.75Zm0,1.74a.37.37,0,0,0-.37-.38h-4a.38.38,0,0,0-.38.38.37.37,0,0,0,.38.37h4A.36.36,0,0,0,349,214.49Zm0,1.74a.37.37,0,0,0-.37-.38h-4a.38.38,0,0,0,0,.76h4A.37.37,0,0,0,349,216.23Zm4.79,1.74a.37.37,0,0,0-.37-.37h-4a.37.37,0,0,0-.38.37.38.38,0,0,0,.38.38h4A.38.38,0,0,0,353.76,218Zm0,1.74a.37.37,0,0,0-.37-.37h-4a.37.37,0,0,0-.38.37.38.38,0,0,0,.38.38h4A.38.38,0,0,0,353.76,219.71Zm0,1.74a.38.38,0,0,0-.37-.37h-4a.38.38,0,1,0,0,.75h4A.38.38,0,0,0,353.76,221.45Zm-3-12.18a.44.44,0,0,0-.43-.44.44.44,0,0,0-.44.44.44.44,0,0,0,.44.43A.43.43,0,0,0,350.73,209.27Zm1.31,0a.44.44,0,0,0-.44-.44.44.44,0,0,0-.43.44.43.43,0,0,0,.43.43A.44.44,0,0,0,352,209.27Zm1.3,0a.44.44,0,0,0-.43-.44.44.44,0,0,0-.44.44.44.44,0,0,0,.44.43A.43.43,0,0,0,353.34,209.27Zm1.31,0a.44.44,0,1,0-.87,0,.44.44,0,0,0,.87,0Zm1.31,0a.44.44,0,0,0-.44-.44.44.44,0,0,0-.43.44.43.43,0,0,0,.43.43A.44.44,0,0,0,356,209.27Zm1.3,0a.44.44,0,0,0-.43-.44.44.44,0,0,0-.44.44.44.44,0,0,0,.44.43A.43.43,0,0,0,357.26,209.27Zm-6.53,3.48a.44.44,0,0,0-.43-.44.44.44,0,0,0-.44.44.44.44,0,0,0,.44.43A.43.43,0,0,0,350.73,212.75Zm1.31,0a.44.44,0,0,0-.44-.44.44.44,0,0,0-.43.44.43.43,0,0,0,.43.43A.44.44,0,0,0,352,212.75Zm1.3,0a.44.44,0,0,0-.43-.44.44.44,0,0,0-.44.44.44.44,0,0,0,.44.43A.43.43,0,0,0,353.34,212.75Zm1.31,0a.44.44,0,1,0-.87,0,.44.44,0,0,0,.87,0Zm1.31,0a.44.44,0,0,0-.44-.44.44.44,0,0,0-.43.44.43.43,0,0,0,.43.43A.44.44,0,0,0,356,212.75Zm1.3,0a.44.44,0,0,0-.43-.44.44.44,0,0,0-.44.44.44.44,0,0,0,.44.43A.43.43,0,0,0,357.26,212.75Zm-2.07,5a.43.43,0,0,0-.43-.43.44.44,0,0,0-.44.43.44.44,0,0,0,.44.44A.44.44,0,0,0,355.19,217.75Zm1.31,0a.44.44,0,0,0-.87,0,.44.44,0,1,0,.87,0Zm1.31,0a.44.44,0,0,0-.44-.43.43.43,0,0,0-.43.43.44.44,0,0,0,.43.44A.44.44,0,0,0,357.81,217.75Zm1.3,0a.43.43,0,0,0-.43-.43.44.44,0,0,0-.44.43.44.44,0,0,0,.44.44A.44.44,0,0,0,359.11,217.75Zm1.31,0a.44.44,0,0,0-.44-.43.43.43,0,0,0-.43.43.44.44,0,0,0,.43.44A.44.44,0,0,0,360.42,217.75Zm1.3,0a.43.43,0,0,0-.43-.43.44.44,0,0,0-.44.43.44.44,0,0,0,.44.44A.44.44,0,0,0,361.72,217.75Zm-6.53,3.59a.43.43,0,0,0-.43-.43.44.44,0,1,0,0,.87A.43.43,0,0,0,355.19,221.34Zm1.31,0a.44.44,0,0,0-.87,0,.44.44,0,1,0,.87,0Zm1.31,0a.44.44,0,0,0-.44-.43.44.44,0,0,0,0,.87A.44.44,0,0,0,357.81,221.34Zm1.3,0a.43.43,0,0,0-.43-.43.44.44,0,1,0,0,.87A.43.43,0,0,0,359.11,221.34Zm1.31,0a.44.44,0,0,0-.44-.43.44.44,0,0,0,0,.87A.44.44,0,0,0,360.42,221.34Zm1.3,0a.43.43,0,0,0-.43-.43.44.44,0,1,0,0,.87A.43.43,0,0,0,361.72,221.34Z" style="fill:#FFC100"></path><rect x="310.96" y="219.77" width="21.62" height="13.71" style="fill:#fff;stroke:#263238;stroke-linecap:round;stroke-linejoin:round"></rect><path d="M321.65,252.31h0a1.63,1.63,0,0,1-1.63-1.63V219.77h3.26v30.91A1.63,1.63,0,0,1,321.65,252.31Z" style="fill:#FFC100;stroke:#263238;stroke-linecap:round;stroke-linejoin:round"></path><polyline points="320.26 235.12 322.81 235.12 320.26 238.14 323.28 238.14 320.26 241.39 323.28 241.39 320.26 244.41 323.05 244.41 320.02 247.2 322.58 247.2 320.02 249.87 323.28 249.87" style="fill:none;stroke:#263238;stroke-linecap:round;stroke-linejoin:round"></polyline><rect x="315.37" y="219.77" width="12.78" height="13.71" style="fill:#fff;stroke:#263238;stroke-linecap:round;stroke-linejoin:round"></rect><rect x="300.02" y="274.59" width="12.56" height="25.69" style="fill:#263238;stroke:#263238;stroke-linecap:round;stroke-linejoin:round"></rect><polygon points="365.79 280.48 376.62 298.72 352.96 298.72 365.79 280.48" style="fill:#263238;stroke:#263238;stroke-linecap:round;stroke-linejoin:round"></polygon><polygon points="376.84 263.66 311.29 263.66 290.89 299.29 356.45 299.29 376.84 263.66" style="fill:#263238;stroke:#263238;stroke-linecap:round;stroke-linejoin:round"></polygon><polygon points="367.38 267.37 316.51 267.37 300.51 295.3 351.39 295.3 367.38 267.37" style="fill:#fff;stroke:#263238;stroke-linecap:round;stroke-linejoin:round"></polygon><polygon points="335.5 295.01 342.14 283.41 319.32 283.41 312.68 295.01 335.5 295.01" style="fill:#fff;stroke:#263238;stroke-linecap:round;stroke-linejoin:round"></polygon><polygon points="335.57 295.01 335.59 294.98 313.06 294.98 313.04 295.01 335.57 295.01" style="fill:#fff;stroke:#263238;stroke-linecap:round;stroke-linejoin:round"></polygon><path d="M316.43,295l4.94-8.63a5.88,5.88,0,0,0-7.62.1s-4.23,3.33-5.85,6.16L306.54,295Z" style="fill:#fff;stroke:#263238;stroke-linecap:round;stroke-linejoin:round"></path><path d="M343.29,295l1.36-2.37a11.12,11.12,0,0,0,1.21-6.16c-.48-3.22-7.51-.1-7.51-.1L333.41,295Z" style="fill:#fff;stroke:#263238;stroke-linecap:round;stroke-linejoin:round"></path><path d="M330.28,280.92s-2.91-2.27-8.91.41-7.44,5.76-7.31,6.82,1.66,1.21,3.49.56,4.08-3.16,7.27-3.49,5.2-1.13,6-3.08S330.28,280.92,330.28,280.92Z" style="fill:#fff;stroke:#263238;stroke-linecap:round;stroke-linejoin:round"></path><path d="M335.82,280.92s5.52-2.27,8.45.41.84,5.76-.49,6.82a3.81,3.81,0,0,1-4.14.56c-1.09-.65-.46-3.16-3.28-3.49s-3.89-1.13-2.46-3.08S335.82,280.92,335.82,280.92Z" style="fill:#fff;stroke:#263238;stroke-linecap:round;stroke-linejoin:round"></path><path d="M339.38,273.12h4.1L346,270.5c.19-.2.44-.14.32.07L344,274.74a4.19,4.19,0,0,1-3.22,2.05h-3.47Z" style="fill:#fff;stroke:#263238;stroke-linecap:round;stroke-linejoin:round"></path><path d="M335.62,273.12h-4.11l.46-2.62c0-.2-.29-.14-.41.07l-2.39,4.17c-.65,1.14-.26,2.05.88,2.05h3.46Z" style="fill:#fff;stroke:#263238;stroke-linecap:round;stroke-linejoin:round"></path><path d="M332.33,276.94a9.89,9.89,0,0,0-1.63,2.12c-1.39,2.42-1,4.38.81,4.38s4.45-2,5.84-4.38a6.46,6.46,0,0,0,.8-2.12Z" style="fill:#fff;stroke:#263238;stroke-linecap:round;stroke-linejoin:round"></path><path d="M332.33,276.94s3.84-5.95,6.59-5.8-.77,5.8-.77,5.8Z" style="fill:#fff;stroke:#263238;stroke-linecap:round;stroke-linejoin:round"></path><path d="M331.07,279.13a10.5,10.5,0,0,0-1.63,2.12c-1.38,2.42-1,4.38.82,4.38s4.45-2,5.83-4.38a6.16,6.16,0,0,0,.8-2.12Z" style="fill:#fff;stroke:#263238;stroke-linecap:round;stroke-linejoin:round"></path><polygon points="334.03 280.19 332.57 280.19 334.47 276.87 335.94 276.87 334.03 280.19" style="fill:#fff;stroke:#263238;stroke-linecap:round;stroke-linejoin:round"></polygon><path d="M330.26,285.63q-2.31,4-4.61,8.06" style="fill:#fff;stroke:#263238;stroke-linecap:round;stroke-linejoin:round"></path><rect x="175.52" y="273.93" width="9.61" height="20.25" style="fill:#263238;stroke:#263238;stroke-linecap:round;stroke-linejoin:round"></rect><rect x="121.45" y="181.13" width="121.21" height="97.61" style="fill:#fff;stroke:#263238;stroke-linecap:round;stroke-linejoin:round"></rect><rect x="127.93" y="186.21" width="108.25" height="84.67" style="fill:#263238;stroke:#263238;stroke-linecap:round;stroke-linejoin:round"></rect><path d="M193.07,192h-2.79a.69.69,0,0,1,0-1.38h2.79a.69.69,0,0,1,0,1.38Zm.68,2.5a.68.68,0,0,0-.68-.69h-2.79a.69.69,0,0,0,0,1.38h2.79A.68.68,0,0,0,193.75,194.53Zm0,3.19a.68.68,0,0,0-.68-.69h-2.79a.69.69,0,0,0,0,1.38h2.79A.68.68,0,0,0,193.75,197.72Zm0,3.19a.68.68,0,0,0-.68-.69h-2.79a.69.69,0,0,0,0,1.38h2.79A.68.68,0,0,0,193.75,200.91Zm0,3.19a.68.68,0,0,0-.68-.69h-2.79a.69.69,0,0,0-.69.69.68.68,0,0,0,.69.68h2.79A.67.67,0,0,0,193.75,204.1Zm0,3.19a.68.68,0,0,0-.68-.69h-2.79a.69.69,0,0,0-.69.69.68.68,0,0,0,.69.68h2.79A.67.67,0,0,0,193.75,207.29Zm0,3.18a.67.67,0,0,0-.68-.68h-2.79a.69.69,0,1,0,0,1.37h2.79A.68.68,0,0,0,193.75,210.47Zm0,3.19a.67.67,0,0,0-.68-.68h-2.79a.68.68,0,0,0-.69.68.69.69,0,0,0,.69.69h2.79A.68.68,0,0,0,193.75,213.66Zm10.44-22.32a.69.69,0,0,0-.69-.69h-7.32a.69.69,0,0,0,0,1.38h7.32A.69.69,0,0,0,204.19,191.34Zm0,3.19a.69.69,0,0,0-.69-.69h-7.32a.69.69,0,0,0,0,1.38h7.32A.69.69,0,0,0,204.19,194.53Zm0,3.19a.69.69,0,0,0-.69-.69h-7.32a.69.69,0,0,0,0,1.38h7.32A.69.69,0,0,0,204.19,197.72Zm0,3.19a.69.69,0,0,0-.69-.69h-7.32a.69.69,0,0,0,0,1.38h7.32A.69.69,0,0,0,204.19,200.91Zm0,3.19a.69.69,0,0,0-.69-.69h-7.32a.69.69,0,0,0-.69.69.68.68,0,0,0,.69.68h7.32A.68.68,0,0,0,204.19,204.1Zm8.77,3.19a.69.69,0,0,0-.69-.69H205a.69.69,0,0,0-.69.69.68.68,0,0,0,.69.68h7.32A.68.68,0,0,0,213,207.29Zm0,3.18a.68.68,0,0,0-.69-.68H205a.69.69,0,1,0,0,1.37h7.32A.69.69,0,0,0,213,210.47Zm0,3.19a.68.68,0,0,0-.69-.68H205a.68.68,0,0,0-.69.68.69.69,0,0,0,.69.69h7.32A.69.69,0,0,0,213,213.66Zm-5.54-22.32a.8.8,0,0,0-1.6,0,.8.8,0,0,0,1.6,0Zm2.39,0a.8.8,0,0,0-1.6,0,.8.8,0,0,0,1.6,0Zm2.39,0a.8.8,0,0,0-1.6,0,.8.8,0,0,0,1.6,0Zm2.39,0a.79.79,0,0,0-.8-.79.79.79,0,0,0-.79.79.79.79,0,0,0,.79.8A.8.8,0,0,0,214.59,191.34Zm2.39,0a.8.8,0,1,0-.8.8A.8.8,0,0,0,217,191.34Zm2.39,0a.79.79,0,0,0-.79-.79.79.79,0,0,0-.8.79.8.8,0,0,0,.8.8A.79.79,0,0,0,219.37,191.34Zm-12,6.38a.8.8,0,1,0-.8.8A.8.8,0,0,0,207.42,197.72Zm2.39,0a.8.8,0,1,0-.8.8A.8.8,0,0,0,209.81,197.72Zm2.39,0a.8.8,0,1,0-.8.8A.8.8,0,0,0,212.2,197.72Zm2.39,0a.8.8,0,0,0-.8-.8.8.8,0,0,0,0,1.6A.8.8,0,0,0,214.59,197.72Zm2.39,0a.8.8,0,1,0-.8.8A.8.8,0,0,0,217,197.72Zm2.39,0a.79.79,0,0,0-.79-.8.8.8,0,0,0,0,1.6A.79.79,0,0,0,219.37,197.72Zm-3.78,9.17a.8.8,0,1,0-1.6,0,.8.8,0,0,0,1.6,0Zm2.39,0a.8.8,0,0,0-1.6,0,.8.8,0,0,0,1.6,0Zm2.39,0a.8.8,0,0,0-.8-.8.79.79,0,0,0-.79.8.79.79,0,0,0,.79.79A.79.79,0,0,0,220.37,206.89Zm2.39,0a.8.8,0,0,0-.8-.8.79.79,0,0,0-.79.8.79.79,0,0,0,.79.79A.79.79,0,0,0,222.76,206.89Zm2.39,0a.79.79,0,0,0-.79-.8.8.8,0,0,0-.8.8.79.79,0,0,0,.8.79A.79.79,0,0,0,225.15,206.89Zm2.4,0a.8.8,0,1,0-1.6,0,.8.8,0,0,0,1.6,0Zm-12,6.57a.8.8,0,0,0-1.6,0,.8.8,0,0,0,1.6,0Zm2.39,0a.8.8,0,0,0-1.6,0,.8.8,0,0,0,1.6,0Zm2.39,0a.79.79,0,0,0-.8-.79.79.79,0,0,0-.79.79.79.79,0,0,0,.79.8A.8.8,0,0,0,220.37,213.46Zm2.39,0a.79.79,0,0,0-.8-.79.79.79,0,0,0-.79.79.79.79,0,0,0,.79.8A.8.8,0,0,0,222.76,213.46Zm2.39,0a.79.79,0,0,0-.79-.79.79.79,0,0,0-.8.79.8.8,0,0,0,.8.8A.79.79,0,0,0,225.15,213.46Zm2.4,0a.8.8,0,0,0-1.6,0,.8.8,0,0,0,1.6,0Z" style="fill:#FFC100"></path><path d="M193.07,217.55h-2.79a.69.69,0,0,1,0-1.38h2.79a.69.69,0,0,1,0,1.38Zm.68,2.5a.68.68,0,0,0-.68-.69h-2.79a.69.69,0,0,0,0,1.38h2.79A.68.68,0,0,0,193.75,220.05Zm0,3.19a.68.68,0,0,0-.68-.69h-2.79a.69.69,0,0,0-.69.69.68.68,0,0,0,.69.68h2.79A.67.67,0,0,0,193.75,223.24Zm0,3.18a.67.67,0,0,0-.68-.68h-2.79a.69.69,0,1,0,0,1.37h2.79A.68.68,0,0,0,193.75,226.42Zm0,3.19a.67.67,0,0,0-.68-.68h-2.79a.68.68,0,0,0-.69.68.69.69,0,0,0,.69.69h2.79A.68.68,0,0,0,193.75,229.61Zm0,3.19a.68.68,0,0,0-.68-.69h-2.79a.69.69,0,0,0,0,1.38h2.79A.68.68,0,0,0,193.75,232.8Zm0,3.19a.68.68,0,0,0-.68-.69h-2.79a.69.69,0,1,0,0,1.38h2.79A.68.68,0,0,0,193.75,236Zm0,3.19a.68.68,0,0,0-.68-.69h-2.79a.69.69,0,0,0,0,1.38h2.79A.68.68,0,0,0,193.75,239.18Zm10.44-22.32a.69.69,0,0,0-.69-.69h-7.32a.69.69,0,0,0,0,1.38h7.32A.69.69,0,0,0,204.19,216.86Zm0,3.19a.69.69,0,0,0-.69-.69h-7.32a.69.69,0,0,0,0,1.38h7.32A.69.69,0,0,0,204.19,220.05Zm0,3.19a.69.69,0,0,0-.69-.69h-7.32a.69.69,0,0,0-.69.69.68.68,0,0,0,.69.68h7.32A.68.68,0,0,0,204.19,223.24Zm0,3.18a.68.68,0,0,0-.69-.68h-7.32a.69.69,0,1,0,0,1.37h7.32A.69.69,0,0,0,204.19,226.42Zm0,3.19a.68.68,0,0,0-.69-.68h-7.32a.68.68,0,0,0-.69.68.69.69,0,0,0,.69.69h7.32A.69.69,0,0,0,204.19,229.61ZM213,232.8a.69.69,0,0,0-.69-.69H205a.69.69,0,0,0,0,1.38h7.32A.69.69,0,0,0,213,232.8Zm0,3.19a.69.69,0,0,0-.69-.69H205a.69.69,0,0,0,0,1.38h7.32A.69.69,0,0,0,213,236Zm0,3.19a.69.69,0,0,0-.69-.69H205a.69.69,0,0,0,0,1.38h7.32A.69.69,0,0,0,213,239.18Zm-5.54-22.32a.8.8,0,1,0-.8.8A.8.8,0,0,0,207.42,216.86Zm2.39,0a.8.8,0,1,0-.8.8A.8.8,0,0,0,209.81,216.86Zm2.39,0a.8.8,0,1,0-.8.8A.8.8,0,0,0,212.2,216.86Zm2.39,0a.8.8,0,0,0-.8-.8.8.8,0,0,0,0,1.6A.8.8,0,0,0,214.59,216.86Zm2.39,0a.8.8,0,1,0-.8.8A.8.8,0,0,0,217,216.86Zm2.39,0a.79.79,0,0,0-.79-.8.8.8,0,1,0,0,1.6A.79.79,0,0,0,219.37,216.86Zm-12,6.38a.8.8,0,0,0-1.6,0,.8.8,0,0,0,1.6,0Zm2.39,0a.8.8,0,0,0-1.6,0,.8.8,0,0,0,1.6,0Zm2.39,0a.8.8,0,0,0-1.6,0,.8.8,0,0,0,1.6,0Zm2.39,0a.8.8,0,0,0-.8-.8.79.79,0,0,0-.79.8.79.79,0,0,0,.79.79A.79.79,0,0,0,214.59,223.24Zm2.39,0a.8.8,0,1,0-1.59,0,.8.8,0,0,0,1.59,0Zm2.39,0a.79.79,0,0,0-.79-.8.8.8,0,0,0-.8.8.79.79,0,0,0,.8.79A.79.79,0,0,0,219.37,223.24Zm-3.78,9.16a.8.8,0,0,0-1.6,0,.8.8,0,0,0,1.6,0Zm2.39,0a.8.8,0,0,0-1.6,0,.8.8,0,0,0,1.6,0Zm2.39,0a.79.79,0,0,0-.8-.79.79.79,0,0,0-.79.79.79.79,0,0,0,.79.8A.8.8,0,0,0,220.37,232.4Zm2.39,0a.79.79,0,0,0-.8-.79.79.79,0,0,0-.79.79.79.79,0,0,0,.79.8A.8.8,0,0,0,222.76,232.4Zm2.39,0a.79.79,0,0,0-.79-.79.79.79,0,0,0-.8.79.8.8,0,0,0,.8.8A.79.79,0,0,0,225.15,232.4Zm2.4,0a.8.8,0,0,0-1.6,0,.8.8,0,0,0,1.6,0Zm-12,6.58a.8.8,0,1,0-.8.8A.8.8,0,0,0,215.59,239Zm2.39,0a.8.8,0,1,0-.8.8A.8.8,0,0,0,218,239Zm2.39,0a.8.8,0,0,0-.8-.8.8.8,0,0,0,0,1.6A.8.8,0,0,0,220.37,239Zm2.39,0a.8.8,0,0,0-.8-.8.8.8,0,0,0,0,1.6A.8.8,0,0,0,222.76,239Zm2.39,0a.79.79,0,0,0-.79-.8.8.8,0,0,0,0,1.6A.79.79,0,0,0,225.15,239Zm2.4,0a.8.8,0,1,0-.8.8A.8.8,0,0,0,227.55,239Z" style="fill:#FFC100"></path><path d="M193.07,243.68h-2.79a.69.69,0,1,1,0-1.38h2.79a.69.69,0,0,1,0,1.38Zm.68,2.5a.68.68,0,0,0-.68-.69h-2.79a.69.69,0,0,0,0,1.38h2.79A.68.68,0,0,0,193.75,246.18Zm0,3.19a.68.68,0,0,0-.68-.69h-2.79a.69.69,0,1,0,0,1.38h2.79A.68.68,0,0,0,193.75,249.37Zm0,3.19a.68.68,0,0,0-.68-.69h-2.79a.69.69,0,0,0,0,1.38h2.79A.68.68,0,0,0,193.75,252.56Zm0,3.19a.68.68,0,0,0-.68-.69h-2.79a.69.69,0,0,0-.69.69.68.68,0,0,0,.69.68h2.79A.67.67,0,0,0,193.75,255.75Zm0,3.19a.68.68,0,0,0-.68-.69h-2.79a.69.69,0,0,0-.69.69.68.68,0,0,0,.69.68h2.79A.67.67,0,0,0,193.75,258.94Zm0,3.18a.67.67,0,0,0-.68-.68h-2.79a.68.68,0,0,0-.69.68.69.69,0,0,0,.69.69h2.79A.68.68,0,0,0,193.75,262.12Zm0,3.19a.68.68,0,0,0-.68-.69h-2.79a.69.69,0,1,0,0,1.38h2.79A.68.68,0,0,0,193.75,265.31ZM204.19,243a.69.69,0,0,0-.69-.69h-7.32a.69.69,0,0,0,0,1.38h7.32A.69.69,0,0,0,204.19,243Zm0,3.19a.69.69,0,0,0-.69-.69h-7.32a.69.69,0,0,0,0,1.38h7.32A.69.69,0,0,0,204.19,246.18Zm0,3.19a.69.69,0,0,0-.69-.69h-7.32a.69.69,0,0,0,0,1.38h7.32A.69.69,0,0,0,204.19,249.37Zm0,3.19a.69.69,0,0,0-.69-.69h-7.32a.69.69,0,0,0,0,1.38h7.32A.69.69,0,0,0,204.19,252.56Zm0,3.19a.69.69,0,0,0-.69-.69h-7.32a.69.69,0,0,0-.69.69.68.68,0,0,0,.69.68h7.32A.68.68,0,0,0,204.19,255.75Zm8.77,3.19a.69.69,0,0,0-.69-.69H205a.69.69,0,0,0-.69.69.68.68,0,0,0,.69.68h7.32A.68.68,0,0,0,213,258.94Zm0,3.18a.68.68,0,0,0-.69-.68H205a.68.68,0,0,0-.69.68.69.69,0,0,0,.69.69h7.32A.69.69,0,0,0,213,262.12Zm0,3.19a.69.69,0,0,0-.69-.69H205a.69.69,0,0,0,0,1.38h7.32A.69.69,0,0,0,213,265.31ZM207.42,243a.8.8,0,1,0-.8.8A.8.8,0,0,0,207.42,243Zm2.39,0a.8.8,0,1,0-.8.8A.8.8,0,0,0,209.81,243Zm2.39,0a.8.8,0,1,0-.8.8A.8.8,0,0,0,212.2,243Zm2.39,0a.8.8,0,0,0-.8-.8.8.8,0,0,0,0,1.6A.8.8,0,0,0,214.59,243Zm2.39,0a.8.8,0,1,0-.8.8A.8.8,0,0,0,217,243Zm2.39,0a.79.79,0,0,0-.79-.8.8.8,0,1,0,0,1.6A.79.79,0,0,0,219.37,243Zm-12,6.38a.8.8,0,1,0-.8.8A.8.8,0,0,0,207.42,249.37Zm2.39,0a.8.8,0,1,0-.8.8A.8.8,0,0,0,209.81,249.37Zm2.39,0a.8.8,0,1,0-.8.8A.8.8,0,0,0,212.2,249.37Zm2.39,0a.8.8,0,0,0-.8-.8.8.8,0,0,0,0,1.6A.8.8,0,0,0,214.59,249.37Zm2.39,0a.8.8,0,1,0-.8.8A.8.8,0,0,0,217,249.37Zm2.39,0a.79.79,0,0,0-.79-.8.8.8,0,1,0,0,1.6A.79.79,0,0,0,219.37,249.37Zm-3.78,9.17a.8.8,0,0,0-1.6,0,.8.8,0,0,0,1.6,0Zm2.39,0a.8.8,0,0,0-1.6,0,.8.8,0,0,0,1.6,0Zm2.39,0a.8.8,0,0,0-.8-.8.79.79,0,0,0-.79.8.79.79,0,0,0,.79.79A.79.79,0,0,0,220.37,258.54Zm2.39,0a.8.8,0,0,0-.8-.8.79.79,0,0,0-.79.8.79.79,0,0,0,.79.79A.79.79,0,0,0,222.76,258.54Zm2.39,0a.79.79,0,0,0-.79-.8.8.8,0,0,0-.8.8.79.79,0,0,0,.8.79A.79.79,0,0,0,225.15,258.54Zm2.4,0a.8.8,0,1,0-1.6,0,.8.8,0,0,0,1.6,0Zm-12,6.57a.8.8,0,0,0-1.6,0,.8.8,0,1,0,1.6,0Zm2.39,0a.8.8,0,0,0-1.6,0,.8.8,0,0,0,1.6,0Zm2.39,0a.79.79,0,0,0-.8-.79.79.79,0,0,0-.79.79.79.79,0,0,0,.79.8A.8.8,0,0,0,220.37,265.11Zm2.39,0a.79.79,0,0,0-.8-.79.79.79,0,0,0-.79.79.79.79,0,0,0,.79.8A.8.8,0,0,0,222.76,265.11Zm2.39,0a.79.79,0,0,0-.79-.79.79.79,0,0,0-.8.79.8.8,0,0,0,.8.8A.79.79,0,0,0,225.15,265.11Zm2.4,0a.8.8,0,0,0-1.6,0,.8.8,0,0,0,1.6,0Z" style="fill:#FFC100"></path><path d="M150,192h-2.79a.69.69,0,0,1,0-1.38H150a.69.69,0,0,1,0,1.38Zm.68,2.5a.68.68,0,0,0-.68-.69h-2.79a.69.69,0,0,0,0,1.38H150A.68.68,0,0,0,150.63,194.53Zm0,3.19A.68.68,0,0,0,150,197h-2.79a.69.69,0,0,0,0,1.38H150A.68.68,0,0,0,150.63,197.72Zm0,3.19a.68.68,0,0,0-.68-.69h-2.79a.69.69,0,0,0,0,1.38H150A.68.68,0,0,0,150.63,200.91Zm0,3.19a.68.68,0,0,0-.68-.69h-2.79a.69.69,0,0,0-.69.69.68.68,0,0,0,.69.68H150A.67.67,0,0,0,150.63,204.1Zm0,3.19a.68.68,0,0,0-.68-.69h-2.79a.69.69,0,0,0-.69.69.68.68,0,0,0,.69.68H150A.67.67,0,0,0,150.63,207.29Zm0,3.18a.67.67,0,0,0-.68-.68h-2.79a.69.69,0,1,0,0,1.37H150A.68.68,0,0,0,150.63,210.47Zm0,3.19A.67.67,0,0,0,150,213h-2.79a.68.68,0,0,0-.69.68.69.69,0,0,0,.69.69H150A.68.68,0,0,0,150.63,213.66Zm10.44-22.32a.69.69,0,0,0-.69-.69h-7.32a.69.69,0,0,0,0,1.38h7.32A.69.69,0,0,0,161.07,191.34Zm0,3.19a.69.69,0,0,0-.69-.69h-7.32a.69.69,0,0,0,0,1.38h7.32A.69.69,0,0,0,161.07,194.53Zm0,3.19a.69.69,0,0,0-.69-.69h-7.32a.69.69,0,0,0,0,1.38h7.32A.69.69,0,0,0,161.07,197.72Zm0,3.19a.69.69,0,0,0-.69-.69h-7.32a.69.69,0,0,0,0,1.38h7.32A.69.69,0,0,0,161.07,200.91Zm0,3.19a.69.69,0,0,0-.69-.69h-7.32a.69.69,0,0,0-.69.69.68.68,0,0,0,.69.68h7.32A.68.68,0,0,0,161.07,204.1Zm8.77,3.19a.69.69,0,0,0-.69-.69h-7.32a.69.69,0,0,0-.69.69.68.68,0,0,0,.69.68h7.32A.68.68,0,0,0,169.84,207.29Zm0,3.18a.68.68,0,0,0-.69-.68h-7.32a.69.69,0,1,0,0,1.37h7.32A.69.69,0,0,0,169.84,210.47Zm0,3.19a.68.68,0,0,0-.69-.68h-7.32a.68.68,0,0,0-.69.68.69.69,0,0,0,.69.69h7.32A.69.69,0,0,0,169.84,213.66Zm-5.54-22.32a.8.8,0,0,0-1.6,0,.8.8,0,0,0,1.6,0Zm2.39,0a.8.8,0,0,0-1.6,0,.8.8,0,0,0,1.6,0Zm2.39,0a.8.8,0,0,0-1.6,0,.8.8,0,0,0,1.6,0Zm2.39,0a.79.79,0,0,0-.8-.79.79.79,0,0,0-.79.79.79.79,0,0,0,.79.8A.8.8,0,0,0,171.47,191.34Zm2.39,0a.79.79,0,0,0-.8-.79.79.79,0,0,0-.79.79.79.79,0,0,0,.79.8A.8.8,0,0,0,173.86,191.34Zm2.39,0a.79.79,0,0,0-.79-.79.79.79,0,0,0-.8.79.8.8,0,0,0,.8.8A.79.79,0,0,0,176.25,191.34Zm-11.95,6.38a.8.8,0,1,0-.8.8A.8.8,0,0,0,164.3,197.72Zm2.39,0a.8.8,0,1,0-.8.8A.8.8,0,0,0,166.69,197.72Zm2.39,0a.8.8,0,1,0-.8.8A.8.8,0,0,0,169.08,197.72Zm2.39,0a.8.8,0,0,0-.8-.8.8.8,0,0,0,0,1.6A.8.8,0,0,0,171.47,197.72Zm2.39,0a.8.8,0,0,0-.8-.8.8.8,0,0,0,0,1.6A.8.8,0,0,0,173.86,197.72Zm2.39,0a.79.79,0,0,0-.79-.8.8.8,0,0,0,0,1.6A.79.79,0,0,0,176.25,197.72Zm-3.78,9.17a.8.8,0,1,0-1.6,0,.8.8,0,0,0,1.6,0Zm2.39,0a.8.8,0,1,0-1.6,0,.8.8,0,0,0,1.6,0Zm2.39,0a.8.8,0,0,0-.8-.8.79.79,0,0,0-.79.8.79.79,0,0,0,.79.79A.79.79,0,0,0,177.25,206.89Zm2.39,0a.8.8,0,0,0-.8-.8.79.79,0,0,0-.79.8.79.79,0,0,0,.79.79A.79.79,0,0,0,179.64,206.89Zm2.39,0a.79.79,0,0,0-.79-.8.8.8,0,0,0-.8.8.79.79,0,0,0,.8.79A.79.79,0,0,0,182,206.89Zm2.39,0a.79.79,0,0,0-.79-.8.8.8,0,0,0-.8.8.79.79,0,0,0,.8.79A.79.79,0,0,0,184.42,206.89Zm-11.95,6.57a.8.8,0,0,0-1.6,0,.8.8,0,0,0,1.6,0Zm2.39,0a.8.8,0,0,0-1.6,0,.8.8,0,0,0,1.6,0Zm2.39,0a.79.79,0,0,0-.8-.79.79.79,0,0,0-.79.79.79.79,0,0,0,.79.8A.8.8,0,0,0,177.25,213.46Zm2.39,0a.79.79,0,0,0-.8-.79.79.79,0,0,0-.79.79.79.79,0,0,0,.79.8A.8.8,0,0,0,179.64,213.46Zm2.39,0a.79.79,0,0,0-.79-.79.79.79,0,0,0-.8.79.8.8,0,0,0,.8.8A.79.79,0,0,0,182,213.46Zm2.39,0a.79.79,0,0,0-.79-.79.79.79,0,0,0-.8.79.8.8,0,0,0,.8.8A.79.79,0,0,0,184.42,213.46Z" style="fill:#FFC100"></path><path d="M150,218.16h-2.79a.69.69,0,1,1,0-1.37H150a.69.69,0,0,1,0,1.37Zm.68,2.5A.67.67,0,0,0,150,220h-2.79a.68.68,0,0,0-.69.68.69.69,0,0,0,.69.69H150A.68.68,0,0,0,150.63,220.66Zm0,3.19a.68.68,0,0,0-.68-.69h-2.79a.69.69,0,0,0,0,1.38H150A.68.68,0,0,0,150.63,223.85Zm0,3.19a.68.68,0,0,0-.68-.69h-2.79a.69.69,0,0,0,0,1.38H150A.68.68,0,0,0,150.63,227Zm0,3.19a.68.68,0,0,0-.68-.69h-2.79a.69.69,0,0,0,0,1.38H150A.68.68,0,0,0,150.63,230.23Zm0,3.19a.68.68,0,0,0-.68-.69h-2.79a.69.69,0,0,0,0,1.38H150A.68.68,0,0,0,150.63,233.42Zm0,3.19a.68.68,0,0,0-.68-.69h-2.79a.69.69,0,0,0,0,1.38H150A.68.68,0,0,0,150.63,236.61Zm0,3.19a.68.68,0,0,0-.68-.69h-2.79a.69.69,0,0,0-.69.69.68.68,0,0,0,.69.68H150A.67.67,0,0,0,150.63,239.8Zm10.44-22.32a.69.69,0,0,0-.69-.69h-7.32a.69.69,0,1,0,0,1.37h7.32A.68.68,0,0,0,161.07,217.48Zm0,3.18a.68.68,0,0,0-.69-.68h-7.32a.68.68,0,0,0-.69.68.69.69,0,0,0,.69.69h7.32A.69.69,0,0,0,161.07,220.66Zm0,3.19a.69.69,0,0,0-.69-.69h-7.32a.69.69,0,0,0,0,1.38h7.32A.69.69,0,0,0,161.07,223.85Zm0,3.19a.69.69,0,0,0-.69-.69h-7.32a.69.69,0,0,0,0,1.38h7.32A.69.69,0,0,0,161.07,227Zm0,3.19a.69.69,0,0,0-.69-.69h-7.32a.69.69,0,0,0,0,1.38h7.32A.69.69,0,0,0,161.07,230.23Zm8.77,3.19a.69.69,0,0,0-.69-.69h-7.32a.69.69,0,1,0,0,1.38h7.32A.69.69,0,0,0,169.84,233.42Zm0,3.19a.69.69,0,0,0-.69-.69h-7.32a.69.69,0,1,0,0,1.38h7.32A.69.69,0,0,0,169.84,236.61Zm0,3.19a.69.69,0,0,0-.69-.69h-7.32a.69.69,0,0,0-.69.69.68.68,0,0,0,.69.68h7.32A.68.68,0,0,0,169.84,239.8Zm-5.54-22.33a.8.8,0,1,0-.8.8A.79.79,0,0,0,164.3,217.47Zm2.39,0a.8.8,0,1,0-.8.8A.79.79,0,0,0,166.69,217.47Zm2.39,0a.8.8,0,1,0-.8.8A.79.79,0,0,0,169.08,217.47Zm2.39,0a.79.79,0,0,0-.8-.79.8.8,0,0,0,0,1.59A.8.8,0,0,0,171.47,217.47Zm2.39,0a.79.79,0,0,0-.8-.79.8.8,0,0,0,0,1.59A.8.8,0,0,0,173.86,217.47Zm2.39,0a.79.79,0,0,0-.79-.79.8.8,0,1,0,.79.79Zm-11.95,6.38a.8.8,0,0,0-1.6,0,.8.8,0,1,0,1.6,0Zm2.39,0a.8.8,0,0,0-1.6,0,.8.8,0,1,0,1.6,0Zm2.39,0a.8.8,0,0,0-1.6,0,.8.8,0,0,0,1.6,0Zm2.39,0a.79.79,0,0,0-.8-.79.79.79,0,0,0-.79.79.79.79,0,0,0,.79.8A.8.8,0,0,0,171.47,223.85Zm2.39,0a.79.79,0,0,0-.8-.79.79.79,0,0,0-.79.79.79.79,0,0,0,.79.8A.8.8,0,0,0,173.86,223.85Zm2.39,0a.79.79,0,0,0-.79-.79.79.79,0,0,0-.8.79.8.8,0,0,0,.8.8A.79.79,0,0,0,176.25,223.85ZM172.47,233a.8.8,0,1,0-.8.8A.8.8,0,0,0,172.47,233Zm2.39,0a.8.8,0,1,0-.8.8A.8.8,0,0,0,174.86,233Zm2.39,0a.8.8,0,0,0-.8-.8.8.8,0,0,0,0,1.6A.8.8,0,0,0,177.25,233Zm2.39,0a.8.8,0,0,0-.8-.8.8.8,0,0,0,0,1.6A.8.8,0,0,0,179.64,233Zm2.39,0a.79.79,0,0,0-.79-.8.8.8,0,1,0,0,1.6A.79.79,0,0,0,182,233Zm2.39,0a.79.79,0,0,0-.79-.8.8.8,0,0,0,0,1.6A.79.79,0,0,0,184.42,233Zm-11.95,6.58a.8.8,0,1,0-1.6,0,.8.8,0,0,0,1.6,0Zm2.39,0a.8.8,0,1,0-1.6,0,.8.8,0,0,0,1.6,0Zm2.39,0a.8.8,0,0,0-.8-.8.79.79,0,0,0-.79.8.79.79,0,0,0,.79.79A.79.79,0,0,0,177.25,239.6Zm2.39,0a.8.8,0,0,0-.8-.8.79.79,0,0,0-.79.8.79.79,0,0,0,.79.79A.79.79,0,0,0,179.64,239.6Zm2.39,0a.79.79,0,0,0-.79-.8.8.8,0,0,0-.8.8.79.79,0,0,0,.8.79A.79.79,0,0,0,182,239.6Zm2.39,0a.79.79,0,0,0-.79-.8.8.8,0,0,0-.8.8.79.79,0,0,0,.8.79A.79.79,0,0,0,184.42,239.6Z" style="fill:#FFC100"></path><rect x="215.5" y="295.42" width="4.29" height="1.43" style="fill:#fff;stroke:#263238;stroke-linecap:round;stroke-linejoin:round"></rect><rect x="221.53" y="295.42" width="4.29" height="1.43" style="fill:#fff;stroke:#263238;stroke-linecap:round;stroke-linejoin:round"></rect><rect x="227.56" y="295.42" width="4.29" height="1.43" style="fill:#fff;stroke:#263238;stroke-linecap:round;stroke-linejoin:round"></rect><rect x="233.6" y="295.42" width="4.29" height="1.43" style="fill:#fff;stroke:#263238;stroke-linecap:round;stroke-linejoin:round"></rect><rect x="239.63" y="295.42" width="4.29" height="1.43" style="fill:#fff;stroke:#263238;stroke-linecap:round;stroke-linejoin:round"></rect><rect x="245.66" y="295.42" width="4.29" height="1.43" style="fill:#fff;stroke:#263238;stroke-linecap:round;stroke-linejoin:round"></rect><rect x="251.7" y="295.42" width="4.29" height="1.43" style="fill:#fff;stroke:#263238;stroke-linecap:round;stroke-linejoin:round"></rect><rect x="257.73" y="295.42" width="4.29" height="1.43" style="fill:#fff;stroke:#263238;stroke-linecap:round;stroke-linejoin:round"></rect><rect x="263.76" y="295.42" width="4.29" height="1.43" style="fill:#fff;stroke:#263238;stroke-linecap:round;stroke-linejoin:round"></rect><rect x="269.8" y="295.42" width="4.29" height="1.43" style="fill:#fff;stroke:#263238;stroke-linecap:round;stroke-linejoin:round"></rect><rect x="275.83" y="295.42" width="4.29" height="1.43" style="fill:#fff;stroke:#263238;stroke-linecap:round;stroke-linejoin:round"></rect><rect x="281.86" y="295.42" width="4.29" height="1.43" style="fill:#fff;stroke:#263238;stroke-linecap:round;stroke-linejoin:round"></rect><rect x="287.9" y="295.42" width="4.29" height="1.43" style="fill:#fff;stroke:#263238;stroke-linecap:round;stroke-linejoin:round"></rect><rect x="293.93" y="295.42" width="4.29" height="1.43" style="fill:none;stroke:#263238;stroke-linecap:round;stroke-linejoin:round"></rect><rect x="299.96" y="295.42" width="4.29" height="1.43" style="fill:none;stroke:#263238;stroke-linecap:round;stroke-linejoin:round"></rect><rect x="212.48" y="296.63" width="93.14" height="2.6" style="fill:#263238;stroke:#263238;stroke-linecap:round;stroke-linejoin:round"></rect><rect x="274.4" y="296.63" width="31.22" height="2.6" style="fill:#fff;stroke:#263238;stroke-linecap:round;stroke-linejoin:round"></rect><path d="M134.23,455.49h0a2.46,2.46,0,0,0,2.46-2.42l2.48-149.74h-9.88l2.48,149.74A2.46,2.46,0,0,0,134.23,455.49Z" style="fill:#fff;stroke:#263238;stroke-linecap:round;stroke-linejoin:round"></path><polygon points="129.46 313.56 139 313.56 139.17 303.33 129.29 303.33 129.46 313.56" style="fill:#263238;stroke:#263238;stroke-linecap:round;stroke-linejoin:round"></polygon><path d="M213.13,455.49h0a2.46,2.46,0,0,0,2.46-2.42l2.48-149.74h-9.88l2.48,149.74A2.46,2.46,0,0,0,213.13,455.49Z" style="fill:#fff;stroke:#263238;stroke-linecap:round;stroke-linejoin:round"></path><polygon points="208.36 313.56 217.9 313.56 218.07 303.33 208.19 303.33 208.36 313.56" style="fill:#263238;stroke:#263238;stroke-linecap:round;stroke-linejoin:round"></polygon><path d="M287.72,455.49h0a2.47,2.47,0,0,0,2.46-2.42l2.48-149.74h-9.88l2.48,149.74A2.46,2.46,0,0,0,287.72,455.49Z" style="fill:#fff;stroke:#263238;stroke-linecap:round;stroke-linejoin:round"></path><polygon points="282.94 313.56 292.49 313.56 292.66 303.33 282.78 303.33 282.94 313.56" style="fill:#263238;stroke:#263238;stroke-linecap:round;stroke-linejoin:round"></polygon><path d="M409.46,455.49h0a2.46,2.46,0,0,0,2.46-2.42l2.48-149.74h-9.88L407,453.07A2.47,2.47,0,0,0,409.46,455.49Z" style="fill:#fff;stroke:#263238;stroke-linecap:round;stroke-linejoin:round"></path><polygon points="404.69 313.56 414.24 313.56 414.4 303.33 404.52 303.33 404.69 313.56" style="fill:#263238;stroke:#263238;stroke-linecap:round;stroke-linejoin:round"></polygon><rect x="124.35" y="298.88" width="299.86" height="7.41" style="fill:#263238;stroke:#263238;stroke-linecap:round;stroke-linejoin:round"></rect><rect x="301.55" y="298.88" width="122.66" height="7.41" style="fill:#fff;stroke:#263238;stroke-linecap:round;stroke-linejoin:round"></rect><rect x="215.5" y="295.42" width="4.29" height="1.43" style="fill:#fff;stroke:#263238;stroke-linecap:round;stroke-linejoin:round"></rect><rect x="221.53" y="295.42" width="4.29" height="1.43" style="fill:#fff;stroke:#263238;stroke-linecap:round;stroke-linejoin:round"></rect><rect x="227.56" y="295.42" width="4.29" height="1.43" style="fill:#fff;stroke:#263238;stroke-linecap:round;stroke-linejoin:round"></rect><rect x="233.6" y="295.42" width="4.29" height="1.43" style="fill:#fff;stroke:#263238;stroke-linecap:round;stroke-linejoin:round"></rect><rect x="239.63" y="295.42" width="4.29" height="1.43" style="fill:#fff;stroke:#263238;stroke-linecap:round;stroke-linejoin:round"></rect><rect x="245.66" y="295.42" width="4.29" height="1.43" style="fill:#fff;stroke:#263238;stroke-linecap:round;stroke-linejoin:round"></rect><rect x="251.7" y="295.42" width="4.29" height="1.43" style="fill:#fff;stroke:#263238;stroke-linecap:round;stroke-linejoin:round"></rect><rect x="257.73" y="295.42" width="4.29" height="1.43" style="fill:#fff;stroke:#263238;stroke-linecap:round;stroke-linejoin:round"></rect><rect x="263.76" y="295.42" width="4.29" height="1.43" style="fill:#fff;stroke:#263238;stroke-linecap:round;stroke-linejoin:round"></rect><rect x="269.8" y="295.42" width="4.29" height="1.43" style="fill:#fff;stroke:#263238;stroke-linecap:round;stroke-linejoin:round"></rect><rect x="275.83" y="295.42" width="4.29" height="1.43" style="fill:#fff;stroke:#263238;stroke-linecap:round;stroke-linejoin:round"></rect><rect x="281.86" y="295.42" width="4.29" height="1.43" style="fill:#fff;stroke:#263238;stroke-linecap:round;stroke-linejoin:round"></rect><rect x="287.9" y="295.42" width="4.29" height="1.43" style="fill:#fff;stroke:#263238;stroke-linecap:round;stroke-linejoin:round"></rect><rect x="293.93" y="295.42" width="4.29" height="1.43" style="fill:none;stroke:#263238;stroke-linecap:round;stroke-linejoin:round"></rect><rect x="299.96" y="295.42" width="4.29" height="1.43" style="fill:none;stroke:#263238;stroke-linecap:round;stroke-linejoin:round"></rect><rect x="212.48" y="296.63" width="93.14" height="2.6" style="fill:#263238;stroke:#263238;stroke-linecap:round;stroke-linejoin:round"></rect><rect x="274.4" y="296.63" width="31.22" height="2.6" style="fill:#fff;stroke:#263238;stroke-linecap:round;stroke-linejoin:round"></rect></g><g id="freepik--Plant--inject-22"><ellipse cx="422.62" cy="320.95" rx="8.88" ry="23.29" style="fill:#FFC100;stroke:#263238;stroke-miterlimit:10"></ellipse><path d="M395,306.59c2.77,8.74,8.1,14.84,11.91,13.63s4.63-9.27,1.86-18-8.11-14.84-11.91-13.63S392.25,297.85,395,306.59Z" style="fill:#FFC100;stroke:#263238;stroke-miterlimit:10"></path><path d="M460.18,359.27c9-1.53,15.83-6,15.16-9.89s-8.53-5.89-17.57-4.35-15.83,6-15.16,9.89S451.14,360.8,460.18,359.27Z" style="fill:#FFC100;stroke:#263238;stroke-miterlimit:10"></path><path d="M386.67,337.74c7.55,7.49,16.47,10.73,19.92,7.25s.13-12.37-7.42-19.86-16.47-10.73-19.92-7.25S379.12,330.25,386.67,337.74Z" style="fill:#FFC100;stroke:#263238;stroke-miterlimit:10"></path><path d="M438.68,317.2c-7.29,10.59-9.47,21.76-4.85,24.94s14.27-2.82,21.57-13.41,9.48-21.76,4.86-24.94S446,306.61,438.68,317.2Z" style="fill:#FFC100;stroke:#263238;stroke-miterlimit:10"></path><line x1="421.99" y1="343.08" x2="421.31" y2="413.93" style="fill:none;stroke:#263238;stroke-linecap:round;stroke-miterlimit:10"></line><line x1="422.82" y1="312.29" x2="421.99" y2="343.08" style="fill:none;stroke:#263238;stroke-linecap:round;stroke-miterlimit:10"></line><line x1="422.76" y1="307.27" x2="422.82" y2="309.63" style="fill:none;stroke:#263238;stroke-linecap:round;stroke-miterlimit:10"></line><path d="M433.86,340.63a89.43,89.43,0,0,0-8.77,33.6v43.82" style="fill:none;stroke:#263238;stroke-linecap:round;stroke-miterlimit:10"></path><path d="M449.11,317.29a105.5,105.5,0,0,0-15.25,23.34" style="fill:none;stroke:#263238;stroke-linecap:round;stroke-miterlimit:10"></path><path d="M453.91,312.22s-.92.84-2.43,2.45" style="fill:none;stroke:#263238;stroke-linecap:round;stroke-miterlimit:10"></path><path d="M406,343.92a105.11,105.11,0,0,1,14.39,28.56" style="fill:none;stroke:#263238;stroke-linecap:round;stroke-miterlimit:10"></path><path d="M395.82,332.18A83.9,83.9,0,0,1,406,343.92" style="fill:none;stroke:#263238;stroke-linecap:round;stroke-miterlimit:10"></path><path d="M384.91,323.86a46.8,46.8,0,0,1,7.78,5.52" style="fill:none;stroke:#263238;stroke-linecap:round;stroke-miterlimit:10"></path><path d="M406.41,318.06c4.92,15.48,11.52,38.35,14.6,58.21" style="fill:none;stroke:#263238;stroke-linecap:round;stroke-miterlimit:10"></path><path d="M403.41,308.87c.88,2.61,1.9,5.71,3,9.19" style="fill:none;stroke:#263238;stroke-linecap:round;stroke-miterlimit:10"></path><path d="M400.34,300s.86,2.37,2.25,6.43" style="fill:none;stroke:#263238;stroke-linecap:round;stroke-miterlimit:10"></path><path d="M443.06,352.77c-6.14,2.34-14.55,8.84-17.46,17.35" style="fill:none;stroke:#263238;stroke-linecap:round;stroke-miterlimit:10"></path><path d="M454.42,350.47a38.79,38.79,0,0,0-11.36,2.3" style="fill:none;stroke:#263238;stroke-linecap:round;stroke-miterlimit:10"></path><path d="M461.77,350.65s-1.09-.16-2.89-.23" style="fill:none;stroke:#263238;stroke-linecap:round;stroke-miterlimit:10"></path><path d="M442.45,393.33c8.31,3.88,16.41,4.09,18.1.47s-3.68-9.69-12-13.56-16.4-4.1-18.09-.48S434.15,389.45,442.45,393.33Z" style="fill:#FFC100;stroke:#263238;stroke-miterlimit:10"></path><path d="M442.71,382.81a38.85,38.85,0,0,0-10.65-4.56,5.32,5.32,0,0,0-5.71.11c-1.13.75-.75,6.37-.75,6.37v29.2" style="fill:none;stroke:#263238;stroke-linecap:round;stroke-miterlimit:10"></path><path d="M448.66,387.14s-.81-.75-2.25-1.84" style="fill:none;stroke:#263238;stroke-linecap:round;stroke-miterlimit:10"></path><path d="M382.83,359.27c-9-1.53-15.82-6-15.16-9.89s8.54-5.89,17.58-4.35,15.82,6,15.16,9.89S391.87,360.8,382.83,359.27Z" style="fill:#FFC100;stroke:#263238;stroke-miterlimit:10"></path><path d="M399.76,352.7a28.43,28.43,0,0,1,3.22,1.42,22.51,22.51,0,0,1,12,20.08v38.61" style="fill:none;stroke:#263238;stroke-linecap:round;stroke-miterlimit:10"></path><path d="M387.65,350.42a39.76,39.76,0,0,1,12.11,2.28" style="fill:none;stroke:#263238;stroke-linecap:round;stroke-miterlimit:10"></path><path d="M381.24,350.65s.72-.1,2-.18" style="fill:none;stroke:#263238;stroke-linecap:round;stroke-miterlimit:10"></path><path d="M391.91,385.72c-8,4.58-16,5.48-18,2s2.83-10,10.77-14.55,16-5.49,18-2S399.85,381.14,391.91,385.72Z" style="fill:#FFC100;stroke:#263238;stroke-miterlimit:10"></path><path d="M390,375.83a39.63,39.63,0,0,1,10.79-6s9.85-1.62,12.1,4.75" style="fill:none;stroke:#263238;stroke-linecap:round;stroke-miterlimit:10"></path><path d="M385.19,380.09s.49-.54,1.39-1.39" style="fill:none;stroke:#263238;stroke-linecap:round;stroke-miterlimit:10"></path><path d="M411.37,375S423,372.74,423,380.61s-8.24,14.23-11.61,23.21-9.74,9.37-13.11.38S399.76,378.73,411.37,375Z" style="fill:#FFC100;stroke:#263238;stroke-miterlimit:10"></path><path d="M419.23,375.36s-10.11,4.12-13.11,17.23" style="fill:#FFC100;stroke:#263238;stroke-miterlimit:10"></path><line x1="418.48" y1="392.59" x2="418.48" y2="413.93" style="fill:none;stroke:#263238;stroke-linecap:round;stroke-miterlimit:10"></line><path d="M399.88,455.5a91.24,91.24,0,0,1-4.19-27.32,81.59,81.59,0,0,1,1.68-16.71h47.29a82.3,82.3,0,0,1,1.68,16.71,90.92,90.92,0,0,1-4.2,27.32Z" style="fill:#263238"></path><path d="M445.88,419.28c.13,1.29.24,2.59.31,3.91H395.84c.07-1.32.18-2.62.31-3.91Z" style="fill:#7a7a7a"></path><path d="M396.37,439.24c-.16-1.29-.29-2.59-.4-3.9h50.09c-.11,1.31-.25,2.61-.4,3.9Z" style="fill:#7a7a7a"></path><path d="M440.23,428.4a2,2,0,1,0,2-2A2,2,0,0,0,440.23,428.4Z" style="fill:#8c8c8c"></path><path d="M430,428.4a2,2,0,1,0,2-2A2,2,0,0,0,430,428.4Z" style="fill:#8c8c8c"></path><path d="M419.85,428.4a2,2,0,1,0,2-2A2,2,0,0,0,419.85,428.4Z" style="fill:#8c8c8c"></path><path d="M409.66,428.4a2,2,0,1,0,2-2A2,2,0,0,0,409.66,428.4Z" style="fill:#8c8c8c"></path><path d="M399.47,428.4a2,2,0,1,0,2-2A2,2,0,0,0,399.47,428.4Z" style="fill:#8c8c8c"></path></g><g id="freepik--Floor--inject-22"><line x1="340.2" y1="455.5" x2="482.48" y2="455.5" style="fill:none;stroke:#263238;stroke-linecap:round;stroke-linejoin:round"></line><line x1="9.5" y1="455.5" x2="335.31" y2="455.5" style="fill:none;stroke:#263238;stroke-linecap:round;stroke-linejoin:round"></line></g></svg>